<svg width="24" height="24" fill="none" xmlns="http://www.w3.org/2000/svg"><g clip-path="url(#clip0_166_4766)" fill="#3391AC"><path d="M10.583 20.53a5.028 5.028 0 01-7.11-7.11l4.261-4.264L6.32 7.742l-4.26 4.265A7.028 7.028 0 1012 21.944l4.262-4.262-1.414-1.414-4.265 4.262zM21.944 2.061a6.978 6.978 0 00-4.969-2.06 6.983 6.983 0 00-4.968 2.056L7.74 6.32l1.414 1.415 4.265-4.262A4.993 4.993 0 0116.973 2a5.028 5.028 0 013.554 8.583l-4.262 4.262 1.415 1.415L21.942 12a7.037 7.037 0 00.002-9.939z"/><path d="M14.845 7.742l-7.104 7.104 1.414 1.414 7.105-7.104-1.415-1.414z"/></g><defs><clipPath id="clip0_166_4766"><path fill="#fff" d="M0 0h24v24H0z"/></clipPath></defs></svg>