<svg width="24" height="24" viewBox="0 0 24 24" fill="none" xmlns="http://www.w3.org/2000/svg">
<g clip-path="url(#clip0_166_4766)">
<path d="M10.5833 20.5297C9.63619 21.4514 8.36427 21.9633 7.04271 21.9544C5.72115 21.9455 4.45621 21.4167 3.52157 20.4824C2.58694 19.548 2.05776 18.2832 2.04853 16.9616C2.0393 15.6401 2.55077 14.368 3.47226 13.4207L7.73426 9.1557L6.31926 7.7417L2.05826 12.0067C0.740537 13.3251 0.00050793 15.1129 0.000976785 16.9769C0.00144564 18.841 0.742374 20.6284 2.06076 21.9462C3.37916 23.2639 5.16701 24.0039 7.03103 24.0035C8.89505 24.003 10.6825 23.2621 12.0003 21.9437L16.2623 17.6817L14.8483 16.2677L10.5833 20.5297Z" fill="#3391AC"/>
<path d="M21.9442 2.06139C21.2935 1.40621 20.5193 0.886669 19.6663 0.532887C18.8133 0.179104 17.8987 -0.00189024 16.9752 0.000390852C16.0523 -0.00206088 15.138 0.178469 14.2853 0.531542C13.4326 0.884615 12.6583 1.40323 12.0072 2.05739L7.74023 6.32039L9.15424 7.73539L13.4192 3.47339C13.8848 3.00504 14.4386 2.63369 15.0487 2.38085C15.6587 2.12801 16.3129 1.99869 16.9732 2.00039C17.9675 2.00072 18.9393 2.29582 19.7659 2.84839C20.5925 3.40096 21.2367 4.18619 21.6171 5.10481C21.9974 6.02343 22.0969 7.03421 21.9029 8.00937C21.709 8.98452 21.2302 9.88028 20.5272 10.5834L16.2652 14.8454L17.6802 16.2604L21.9422 12.0004C23.2583 10.6815 23.9975 8.89449 23.9979 7.0313C23.9983 5.16812 23.2597 3.38082 21.9442 2.06139Z" fill="#3391AC"/>
<path d="M14.8455 7.74189L7.74121 14.8462L9.15543 16.2604L16.2597 9.1561L14.8455 7.74189Z" fill="#3391AC"/>
</g>
<defs>
<clipPath id="clip0_166_4766">
<rect width="24" height="24" fill="white"/>
</clipPath>
</defs>
</svg>
