<svg width="100" height="100" fill="none" xmlns="http://www.w3.org/2000/svg"><path d="M92.297 98.704H7.704a7.703 7.703 0 01-7.7-7.698V17.133a7.705 7.705 0 017.698-7.698h6.794a1.367 1.367 0 010 2.734H7.704a4.973 4.973 0 00-4.964 4.964v73.873a4.973 4.973 0 004.964 4.962h84.593a4.973 4.973 0 004.962-4.962V17.133a4.973 4.973 0 00-4.962-4.964H85.5a1.367 1.367 0 110-2.734h6.796a7.705 7.705 0 017.695 7.698v73.873a7.703 7.703 0 01-7.695 7.698zm-16.16-86.535H64.956a1.367 1.367 0 010-2.734h11.188a1.367 1.367 0 11-.007 2.734zm-20.547 0H44.409a1.367 1.367 0 010-2.734h11.188a1.367 1.367 0 01-.007 2.734zm-20.547 0H23.86a1.367 1.367 0 110-2.734h11.19a1.367 1.367 0 01-.007 2.734z" fill="#3391AC"/><path d="M98.629 29.159H1.372a1.366 1.366 0 010-2.732h97.257a1.367 1.367 0 01.966 2.334 1.365 1.365 0 01-.966.398zm-79.446-8.852a6.05 6.05 0 01-6.046-6.046V7.343a6.048 6.048 0 016.043-6.044c3.334 0 6.049 2.708 6.049 6.044v6.918a6.055 6.055 0 01-6.046 6.044v.002zm0-16.275a3.322 3.322 0 00-3.313 3.31v6.919a3.322 3.322 0 003.313 3.313 3.322 3.322 0 003.312-3.313V7.343a3.322 3.322 0 00-3.312-3.31zM39.73 20.307a6.051 6.051 0 01-6.046-6.046V7.343a6.048 6.048 0 016.044-6.044 6.052 6.052 0 016.048 6.044v6.918a6.055 6.055 0 01-6.046 6.044v.002zm-.01-16.275a3.322 3.322 0 00-3.31 3.31v6.919a3.32 3.32 0 003.31 3.313 3.322 3.322 0 003.313-3.313V7.343a3.31 3.31 0 00-3.312-3.31zm20.557 16.275a6.051 6.051 0 01-6.046-6.046V7.343a6.048 6.048 0 016.044-6.044 6.052 6.052 0 016.048 6.044v6.918a6.055 6.055 0 01-6.046 6.044v.002zm-.01-16.275a3.322 3.322 0 00-3.31 3.31v6.919a3.32 3.32 0 003.31 3.313 3.316 3.316 0 003.314-3.313V7.343a3.31 3.31 0 00-3.313-3.31zm20.548 16.275a6.05 6.05 0 01-6.044-6.046V7.343a6.047 6.047 0 016.044-6.044 6.049 6.049 0 016.046 6.044v6.918a6.044 6.044 0 01-6.044 6.044l-.002.002zm0-16.275a3.322 3.322 0 00-3.31 3.31v6.919a3.32 3.32 0 003.31 3.313 3.316 3.316 0 003.313-3.313V7.343a3.31 3.31 0 00-3.313-3.31zM50 89.525c-14.868 0-26.96-12.093-26.96-26.96 0-14.868 12.092-26.959 26.96-26.959s26.956 12.088 26.956 26.956S64.868 89.525 50 89.525zm0-51.185c-13.361 0-24.227 10.872-24.227 24.224 0 13.362 10.873 24.227 24.227 24.227 13.352 0 24.224-10.865 24.224-24.227C74.224 49.203 63.36 38.34 50 38.34z" fill="#3391AC"/><path d="M50.007 45.005a1.372 1.372 0 01-1.375-1.369 1.36 1.36 0 011.36-1.367h.024a1.368 1.368 0 11-.01 2.736zm9.462 2.546a1.38 1.38 0 01-1.176-2.076 1.35 1.35 0 011.861-.47l.016.006a1.368 1.368 0 01-.699 2.538l-.002.002zm6.925 6.925a1.37 1.37 0 01-1.318-1.742 1.38 1.38 0 011.149-.995 1.36 1.36 0 011.35.677l.01.017a1.38 1.38 0 01-1.188 2.043h-.003zm2.533 9.47a1.372 1.372 0 010-2.743 1.36 1.36 0 011.366 1.361v.023c0 .743-.618 1.361-1.368 1.361l.002-.002zM40.502 47.551a1.355 1.355 0 01-1.172-.669 1.375 1.375 0 012.36-1.407 1.36 1.36 0 01-.456 1.873l-.017.007a1.485 1.485 0 01-.715.196zm-6.925 6.925a1.368 1.368 0 01-1.179-2.057 1.372 1.372 0 011.871-.508 1.361 1.361 0 01.505 1.857l-.009.016a1.37 1.37 0 01-1.188.692zm-2.528 9.47a1.372 1.372 0 010-2.743 1.362 1.362 0 011.365 1.361v.023a1.37 1.37 0 01-1.368 1.361l.003-.002zm18.958 18.94a1.372 1.372 0 01-1.375-1.369 1.36 1.36 0 011.36-1.367h.024a1.367 1.367 0 11-.01 2.735zm9.455-2.54a1.388 1.388 0 01-1.179-.66 1.362 1.362 0 01.455-1.871l.016-.01a1.355 1.355 0 011.873.474 1.358 1.358 0 01-.473 1.87 1.29 1.29 0 01-.692.197zm6.916-6.926a1.298 1.298 0 01-.641-.161 1.353 1.353 0 01-.563-1.841l.01-.023a1.369 1.369 0 111.9 1.83 1.384 1.384 0 01-.706.195zM40.51 80.353a1.35 1.35 0 01-.692-.194l-.014-.01a1.366 1.366 0 011.398-2.343 1.37 1.37 0 01-.692 2.547zm-6.932-6.933a1.339 1.339 0 01-1.179-.692l-.009-.023a1.375 1.375 0 01.53-1.864 1.375 1.375 0 11.658 2.58zm24.836-4.63a1.33 1.33 0 01-.683-.186l-8.416-4.852a1.364 1.364 0 01-.682-1.188V50.036a1.367 1.367 0 112.733 0v11.742l7.73 4.468c.653.374.88 1.211.508 1.862a1.38 1.38 0 01-1.19.682z" fill="#3391AC"/></svg>