<svg width="100" height="100" viewBox="0 0 100 100" fill="none" xmlns="http://www.w3.org/2000/svg">
<path d="M92.2967 98.7036H7.7042C5.66254 98.7029 3.70465 97.8918 2.26076 96.4483C0.816874 95.0049 0.00512907 93.0472 0.00390625 91.0056V17.133C0.00573873 15.092 0.817363 13.135 2.26062 11.6918C3.70387 10.2485 5.66082 9.43689 7.70189 9.43506H14.4956C14.8581 9.43506 15.2057 9.57906 15.4621 9.83539C15.7184 10.0917 15.8624 10.4394 15.8624 10.8019C15.8624 11.1644 15.7184 11.512 15.4621 11.7684C15.2057 12.0247 14.8581 12.1687 14.4956 12.1687H7.7042C6.38832 12.1711 5.12703 12.6949 4.19656 13.6254C3.26609 14.5559 2.74228 15.8172 2.73984 17.133V91.0056C2.73984 93.7392 4.97057 95.9676 7.7042 95.9676H92.2967C93.6118 95.9646 94.8721 95.4408 95.802 94.5109C96.7319 93.581 97.2557 92.3206 97.2587 91.0056V17.133C97.2563 15.8176 96.7328 14.5566 95.8028 13.6262C94.8729 12.6958 93.6122 12.1717 92.2967 12.1687H85.5007C85.1382 12.1687 84.7905 12.0247 84.5342 11.7684C84.2779 11.512 84.1339 11.1644 84.1339 10.8019C84.1339 10.4394 84.2779 10.0917 84.5342 9.83539C84.7905 9.57906 85.1382 9.43506 85.5007 9.43506H92.2967C94.3374 9.4375 96.2937 10.2494 97.7365 11.6926C99.1792 13.1358 99.9905 15.0924 99.9924 17.133V91.0056C99.9912 93.0464 99.18 95.0034 97.7372 96.4467C96.2943 97.89 94.3375 98.7017 92.2967 98.7036ZM76.1372 12.1687H64.9558C64.5933 12.1687 64.2457 12.0247 63.9893 11.7684C63.733 11.512 63.589 11.1644 63.589 10.8019C63.589 10.4394 63.733 10.0917 63.9893 9.83539C64.2457 9.57906 64.5933 9.43506 64.9558 9.43506H76.1441C76.5066 9.43598 76.8539 9.58086 77.1095 9.83784C77.3652 10.0948 77.5083 10.4428 77.5074 10.8053C77.5065 11.1678 77.3616 11.5151 77.1047 11.7708C76.8477 12.0265 76.4997 12.1696 76.1372 12.1687ZM55.59 12.1687H44.4086C44.0461 12.1687 43.6985 12.0247 43.4421 11.7684C43.1858 11.512 43.0418 11.1644 43.0418 10.8019C43.0418 10.4394 43.1858 10.0917 43.4421 9.83539C43.6985 9.57906 44.0461 9.43506 44.4086 9.43506H55.5969C55.7764 9.43551 55.954 9.47132 56.1197 9.54042C56.2853 9.60953 56.4358 9.71059 56.5624 9.83784C56.689 9.96508 56.7892 10.116 56.8575 10.282C56.9258 10.448 56.9607 10.6258 56.9602 10.8053C56.9598 10.9848 56.924 11.1625 56.8549 11.3281C56.7858 11.4938 56.6847 11.6442 56.5575 11.7708C56.4302 11.8974 56.2793 11.9977 56.1133 12.066C55.9473 12.1342 55.7695 12.1691 55.59 12.1687ZM35.0428 12.1687H23.8614C23.4989 12.1687 23.1513 12.0247 22.895 11.7684C22.6386 11.512 22.4946 11.1644 22.4946 10.8019C22.4946 10.4394 22.6386 10.0917 22.895 9.83539C23.1513 9.57906 23.4989 9.43506 23.8614 9.43506H35.0497C35.4122 9.43598 35.7595 9.58086 36.0152 9.83784C36.2708 10.0948 36.414 10.4428 36.4131 10.8053C36.4121 11.1678 36.2673 11.5151 36.0103 11.7708C35.7533 12.0265 35.4053 12.1696 35.0428 12.1687Z" fill="#3391AC"/>
<path d="M98.6287 29.1587H1.37152C1.00932 29.1587 0.661963 29.0148 0.405852 28.7587C0.149741 28.5026 0.00585937 28.1552 0.00585938 27.793C0.00585937 27.4308 0.149741 27.0835 0.405852 26.8274C0.661963 26.5713 1.00932 26.4274 1.37152 26.4274H98.6287C98.9912 26.4274 99.3388 26.5714 99.5952 26.8277C99.8515 27.084 99.9955 27.4317 99.9955 27.7942C99.9955 28.1567 99.8515 28.5043 99.5952 28.7607C99.3388 29.017 98.9912 29.1587 98.6287 29.1587ZM19.1828 20.3073C17.5796 20.3061 16.0424 19.6686 14.9088 18.535C13.7751 17.4014 13.1377 15.8642 13.1365 14.261V7.34274C13.1365 4.00702 15.8471 1.29877 19.1805 1.29877C22.5139 1.29877 25.229 4.00702 25.229 7.34274V14.261C25.226 15.8634 24.5879 17.3993 23.4546 18.5322C22.3213 19.665 20.7852 20.3025 19.1828 20.305V20.3073ZM19.1828 4.03239C18.3053 4.03483 17.4645 4.3843 16.8439 5.00452C16.2232 5.62474 15.8732 6.46532 15.8701 7.34274V14.261C15.8701 16.0834 17.3604 17.5737 19.1828 17.5737C21.0052 17.5737 22.4954 16.0834 22.4954 14.261V7.34274C22.4924 6.46532 22.1423 5.62474 21.5217 5.00452C20.901 4.3843 20.0602 4.03483 19.1828 4.03239ZM39.73 20.3073C38.1268 20.3061 36.5896 19.6686 35.4559 18.535C34.3223 17.4014 33.6849 15.8642 33.6837 14.261V7.34274C33.6837 4.00702 36.3942 1.29877 39.7277 1.29877C43.0611 1.29877 45.7762 4.00702 45.7762 7.34274V14.261C45.7732 15.8634 45.1351 17.3993 44.0018 18.5322C42.8685 19.665 41.3324 20.3025 39.73 20.305V20.3073ZM39.7207 4.03239C38.8437 4.03543 38.0035 4.38518 37.3833 5.00533C36.7632 5.62548 36.4134 6.46571 36.4104 7.34274V14.261C36.4104 16.0834 37.8983 17.5737 39.7207 17.5737C40.5986 17.5712 41.4397 17.2214 42.0604 16.6007C42.6812 15.98 43.0309 15.1388 43.0334 14.261V7.34274C43.0334 6.90782 42.9477 6.47717 42.7812 6.07539C42.6147 5.67361 42.3706 5.30858 42.063 5.00115C41.7553 4.69373 41.3901 4.44994 40.9883 4.28372C40.5864 4.11749 40.1556 4.03209 39.7207 4.03239ZM60.2771 20.3073C58.6739 20.3061 57.1368 19.6686 56.0031 18.535C54.8695 17.4014 54.2321 15.8642 54.2309 14.261V7.34274C54.2309 4.00702 56.9414 1.29877 60.2748 1.29877C63.6082 1.29877 66.3234 4.00702 66.3234 7.34274V14.261C66.3204 15.8634 65.6823 17.3993 64.549 18.5322C63.4157 19.665 61.8796 20.3025 60.2771 20.305V20.3073ZM60.2679 4.03239C59.3909 4.03543 58.5507 4.38518 57.9305 5.00533C57.3104 5.62548 56.9606 6.46571 56.9576 7.34274V14.261C56.9576 16.0834 58.4455 17.5737 60.2679 17.5737C62.0996 17.5737 63.5806 16.0834 63.5806 14.261V7.34274C63.5806 6.90782 63.4949 6.47717 63.3284 6.07539C63.1619 5.67361 62.9178 5.30858 62.6102 5.00115C62.3025 4.69373 61.9373 4.44994 61.5354 4.28372C61.1335 4.11749 60.7028 4.03209 60.2679 4.03239ZM80.8151 20.3073C79.2123 20.3054 77.6757 19.6678 76.5426 18.5342C75.4095 17.4006 74.7724 15.8638 74.7711 14.261V7.34274C74.7711 4.00702 77.4794 1.29877 80.8151 1.29877C84.1508 1.29877 86.8614 4.00702 86.8614 7.34274V14.261C86.8614 15.864 86.2246 17.4013 85.0911 18.5347C83.9577 19.6682 82.4204 20.305 80.8174 20.305L80.8151 20.3073ZM80.8151 4.03239C79.9381 4.03543 79.0979 4.38518 78.4777 5.00533C77.8576 5.62548 77.5078 6.46571 77.5048 7.34274V14.261C77.5048 16.0834 78.9927 17.5737 80.8151 17.5737C82.6468 17.5737 84.1278 16.0834 84.1278 14.261V7.34274C84.1278 6.90782 84.0421 6.47717 83.8756 6.07539C83.7091 5.67361 83.465 5.30858 83.1574 5.00115C82.8497 4.69373 82.4845 4.44994 82.0826 4.28372C81.6807 4.11749 81.25 4.03209 80.8151 4.03239ZM50.0001 89.5246C35.1324 89.5246 23.0398 77.432 23.0398 62.5643C23.0398 47.6966 35.1324 35.6064 50.0001 35.6064C64.8678 35.6064 76.9557 47.6943 76.9557 62.562C76.9557 77.4297 64.8678 89.5246 50.0001 89.5246ZM50.0001 38.34C36.6388 38.34 25.7735 49.2122 25.7735 62.5643C25.7735 75.9256 36.6457 86.7909 50.0001 86.7909C63.3522 86.7909 74.2244 75.9256 74.2244 62.5643C74.2244 49.203 63.3591 38.34 50.0001 38.34Z" fill="#3391AC"/>
<path d="M50.0065 45.0045C49.2499 45.0045 48.6316 44.3932 48.6316 43.6365C48.6316 42.8799 49.2337 42.2686 49.9927 42.2686H50.0157C50.1954 42.2692 50.3731 42.3051 50.5389 42.3744C50.7046 42.4438 50.8551 42.545 50.9817 42.6725C51.1083 42.7999 51.2085 42.9511 51.2767 43.1173C51.3449 43.2835 51.3797 43.4615 51.3791 43.6411C51.3785 43.8208 51.3425 43.9985 51.2732 44.1643C51.2039 44.33 51.1026 44.4805 50.9752 44.6071C50.8477 44.7337 50.6966 44.8339 50.5304 44.9021C50.3642 44.9703 50.1861 45.0051 50.0065 45.0045ZM59.4692 47.5513C59.2276 47.5488 58.9909 47.4829 58.7827 47.3602C58.5746 47.2374 58.4023 47.0622 58.2832 46.8519C58.164 46.6417 58.1022 46.4039 58.1039 46.1622C58.1056 45.9206 58.1707 45.6836 58.2927 45.4751C58.3833 45.3211 58.5035 45.1867 58.6464 45.0795C58.7893 44.9724 58.9521 44.8946 59.1252 44.8509C59.2984 44.8071 59.4786 44.7981 59.6552 44.8245C59.8319 44.8509 60.0015 44.9121 60.1544 45.0045L60.1705 45.0114C60.4251 45.1658 60.6223 45.399 60.7323 45.6757C60.8422 45.9523 60.859 46.2573 60.7799 46.5443C60.7009 46.8313 60.5303 47.0847 60.2942 47.266C60.0581 47.4473 59.7692 47.5467 59.4715 47.549L59.4692 47.5513ZM66.3944 54.4764C66.1509 54.4763 65.9118 54.4112 65.7018 54.288C65.4918 54.1647 65.3184 53.9877 65.1995 53.7752C65.0229 53.4578 64.9786 53.0836 65.0762 52.7338C65.1738 52.3839 65.4055 52.0867 65.7208 51.9066C65.876 51.8181 66.0472 51.7611 66.2245 51.7388C66.4017 51.7166 66.5816 51.7295 66.7539 51.7768C66.9262 51.8242 67.0874 51.9051 67.2284 52.0148C67.3694 52.1246 67.4874 52.261 67.5755 52.4164L67.5848 52.4326C67.6994 52.6411 67.7581 52.8757 67.7553 53.1136C67.7524 53.3515 67.6881 53.5846 67.5685 53.7904C67.449 53.9961 67.2782 54.1673 67.0729 54.2876C66.8676 54.4078 66.6346 54.4729 66.3967 54.4764H66.3944ZM68.9274 63.9461C68.5734 63.9316 68.2387 63.7807 67.9934 63.5251C67.748 63.2695 67.611 62.929 67.611 62.5747C67.611 62.2204 67.748 61.8798 67.9934 61.6242C68.2387 61.3686 68.5734 61.2178 68.9274 61.2032C69.684 61.2056 70.293 61.8076 70.293 62.5643V62.5874C70.293 63.3302 69.6748 63.9484 68.925 63.9484L68.9274 63.9461ZM40.5023 47.5513C40.2655 47.5519 40.0327 47.4905 39.827 47.3731C39.6214 47.2557 39.4502 47.0865 39.3304 46.8823C39.1607 46.5702 39.1184 46.2046 39.2123 45.862C39.3062 45.5195 39.529 45.2265 39.8341 45.0446C40.1392 44.8627 40.5028 44.8059 40.8489 44.8862C41.1949 44.9664 41.4964 45.1775 41.6903 45.4751C41.7836 45.628 41.8458 45.7978 41.8733 45.9748C41.9009 46.1518 41.8932 46.3325 41.8508 46.5065C41.8083 46.6805 41.732 46.8445 41.6261 46.9889C41.5201 47.1333 41.3867 47.2555 41.2335 47.3483L41.2174 47.3552C40.9994 47.48 40.7534 47.5475 40.5023 47.5513ZM33.5771 54.4764C33.3366 54.476 33.1005 54.4122 32.8925 54.2914C32.6846 54.1706 32.5121 53.9971 32.3926 53.7885C32.2731 53.5798 32.2107 53.3433 32.2116 53.1028C32.2126 52.8624 32.277 52.6264 32.3983 52.4187C32.5794 52.1037 32.8781 51.8734 33.2288 51.7783C33.5795 51.6831 33.9536 51.7309 34.2691 51.9112C34.5823 52.0905 34.8115 52.3869 34.9062 52.7351C35.001 53.0834 34.9535 53.455 34.7743 53.7682L34.7651 53.7844C34.6456 53.9942 34.4728 54.1687 34.2642 54.2902C34.0555 54.4117 33.8185 54.476 33.5771 54.4764ZM31.0487 63.9461C30.6948 63.9316 30.3601 63.7807 30.1148 63.5251C29.8694 63.2695 29.7324 62.929 29.7324 62.5747C29.7324 62.2204 29.8694 61.8798 30.1148 61.6242C30.3601 61.3686 30.6948 61.2178 31.0487 61.2032C31.8031 61.2056 32.4144 61.8076 32.4144 62.5643V62.5874C32.4144 63.3302 31.8031 63.9484 31.0464 63.9484L31.0487 63.9461ZM50.0065 82.8854C49.2499 82.8854 48.6316 82.2741 48.6316 81.5174C48.6316 80.7608 49.2337 80.1495 49.9927 80.1495H50.0157C50.3782 80.1507 50.7254 80.2959 50.9809 80.5531C51.2363 80.8103 51.3792 81.1584 51.3779 81.5209C51.3767 81.8834 51.2315 82.2306 50.9743 82.486C50.7171 82.7415 50.369 82.8866 50.0065 82.8854ZM59.4623 80.3456C59.2259 80.3452 58.9934 80.2844 58.7871 80.169C58.5808 80.0535 58.4074 79.8872 58.2835 79.6858C58.1905 79.5331 58.1284 79.3636 58.1009 79.187C58.0734 79.0103 58.0809 78.83 58.1231 78.6562C58.1653 78.4825 58.2414 78.3188 58.3469 78.1744C58.4524 78.0301 58.5852 77.9079 58.738 77.8149L58.7541 77.8057C58.9078 77.7125 59.0785 77.6507 59.2563 77.6241C59.434 77.5974 59.6153 77.6063 59.7896 77.6503C59.9639 77.6943 60.1277 77.7725 60.2715 77.8804C60.4153 77.9882 60.5363 78.1236 60.6273 78.2786C60.7201 78.4322 60.7816 78.6027 60.8081 78.7803C60.8346 78.9578 60.8256 79.1388 60.7816 79.3128C60.7376 79.4868 60.6595 79.6504 60.5518 79.794C60.4442 79.9376 60.3091 80.0584 60.1544 80.1495C59.947 80.2793 59.707 80.3473 59.4623 80.3456ZM66.3783 73.4204C66.1542 73.4228 65.9332 73.3672 65.737 73.2589C65.5785 73.1757 65.438 73.0619 65.3238 72.924C65.2096 72.7862 65.1238 72.6271 65.0715 72.4559C65.0191 72.2847 65.0012 72.1048 65.0189 71.9267C65.0365 71.7485 65.0892 71.5756 65.1741 71.418L65.1833 71.3949C65.3559 71.0756 65.6482 70.8378 65.996 70.734C66.3438 70.6302 66.7187 70.6688 67.038 70.8413C67.3574 71.0138 67.5952 71.3062 67.699 71.654C67.8028 72.0018 67.7642 72.3766 67.5917 72.696C67.4732 72.9146 67.2979 73.0973 67.0844 73.2247C66.8709 73.3522 66.627 73.4198 66.3783 73.4204ZM40.5092 80.3525C40.2652 80.3516 40.026 80.2847 39.8171 80.1587L39.8033 80.1495C39.5082 79.9566 39.2992 79.6572 39.2198 79.3137C39.1405 78.9703 39.197 78.6095 39.3775 78.3068C39.5581 78.004 39.8487 77.7828 40.1886 77.6895C40.5285 77.5961 40.8913 77.6377 41.2012 77.8057C41.458 77.959 41.6576 78.1921 41.7695 78.4694C41.8814 78.7467 41.8995 79.053 41.8211 79.3416C41.7427 79.6301 41.572 79.8851 41.3352 80.0677C41.0983 80.2502 40.8082 80.3502 40.5092 80.3525ZM33.5771 73.4204C33.3365 73.4216 33.1001 73.358 32.8926 73.2362C32.6852 73.1144 32.5144 72.939 32.3983 72.7283L32.389 72.7052C32.2134 72.3875 32.1707 72.0131 32.2701 71.6639C32.3695 71.3147 32.603 71.019 32.9196 70.8413C33.1035 70.74 33.3082 70.6821 33.518 70.6722C33.7277 70.6622 33.9369 70.7004 34.1296 70.7839C34.3223 70.8674 34.4933 70.9939 34.6295 71.1537C34.7657 71.3135 34.8635 71.5024 34.9154 71.7059C34.9673 71.9093 34.9718 72.122 34.9288 72.3275C34.8857 72.533 34.7961 72.726 34.6669 72.8915C34.5377 73.057 34.3723 73.1908 34.1834 73.2824C33.9944 73.3741 33.787 73.4213 33.5771 73.4204ZM58.4127 68.7905C58.1724 68.791 57.9364 68.7264 57.7299 68.6036L49.3144 63.7523C49.1059 63.6322 48.9329 63.459 48.8129 63.2503C48.693 63.0417 48.6304 62.805 48.6316 62.5643V50.0357C48.6316 49.6732 48.7756 49.3256 49.0319 49.0693C49.2883 48.8129 49.6359 48.6689 49.9984 48.6689C50.3609 48.6689 50.7086 48.8129 50.9649 49.0693C51.2212 49.3256 51.3652 49.6732 51.3652 50.0357V61.7777L59.0955 66.246C59.7484 66.6197 59.9744 67.4571 59.603 68.1077C59.4817 68.3159 59.308 68.4887 59.0992 68.6089C58.8904 68.7291 58.6537 68.7902 58.4127 68.7905Z" fill="#3391AC"/>
</svg>
