<svg width="100" height="100" viewBox="0 0 100 100" fill="none" xmlns="http://www.w3.org/2000/svg">
<path d="M94.3438 36.7969L82.8125 30.8281V14.0625C82.8088 12.8204 82.3138 11.6303 81.4355 10.752C80.5572 9.87376 79.3671 9.37871 78.125 9.375H21.875C20.633 9.37871 19.4428 9.87376 18.5646 10.752C17.6863 11.6303 17.1912 12.8204 17.1875 14.0625V30.8281L5.65627 36.7969C4.89142 37.1921 4.25043 37.7907 3.80384 38.5268C3.35724 39.2628 3.12236 40.1078 3.12502 40.9687V85.9375C3.12873 87.1796 3.62378 88.3697 4.50206 89.248C5.38033 90.1262 6.57046 90.6213 7.81252 90.625H92.1875C93.4296 90.6213 94.6197 90.1262 95.498 89.248C96.3763 88.3697 96.8713 87.1796 96.875 85.9375V40.9687C96.8777 40.1078 96.6428 39.2628 96.1962 38.5268C95.7496 37.7907 95.1086 37.1921 94.3438 36.7969ZM36.4531 64.0625L6.25002 85.7641V41.8953L36.4531 64.0625ZM47.2656 60.1406C48.0628 59.569 49.0191 59.2615 50 59.2615C50.981 59.2615 51.9372 59.569 52.7344 60.1406L90.8 87.5H9.21252L47.2656 60.1406ZM63.5781 64.0938L93.75 42.2031V85.7797L63.5781 64.0938ZM92.3953 39.3125L82.8125 46.2656V34.3594L92.3953 39.3125ZM20.3125 14.0625C20.3138 13.6485 20.4788 13.2518 20.7715 12.959C21.0643 12.6663 21.461 12.5012 21.875 12.5H78.125C78.539 12.5012 78.9358 12.6663 79.2285 12.959C79.5213 13.2518 79.6863 13.6485 79.6875 14.0625V48.5312L60.9063 62.1719L54.5625 57.6094C53.2349 56.6495 51.6383 56.1329 50 56.1329C48.3617 56.1329 46.7652 56.6495 45.4375 57.6094L39.1094 62.1562L20.3125 48.2656V14.0625ZM17.1875 45.9844L7.84221 39.1906L17.1875 34.3594V45.9844Z" fill="#3391AC"/>
<path d="M50 50C53.0903 50 56.1113 49.0836 58.6808 47.3667C61.2503 45.6498 63.253 43.2095 64.4356 40.3544C65.6182 37.4993 65.9277 34.3577 65.3248 31.3267C64.7219 28.2958 63.2337 25.5117 61.0485 23.3265C58.8633 21.1413 56.0792 19.6531 53.0483 19.0502C50.0173 18.4473 46.8757 18.7568 44.0206 19.9394C41.1655 21.122 38.7252 23.1247 37.0083 25.6942C35.2914 28.2637 34.375 31.2847 34.375 34.375C34.3795 38.5176 36.0272 42.4893 38.9565 45.4185C41.8858 48.3478 45.8574 49.9955 50 50ZM50 21.875C52.4723 21.875 54.889 22.6081 56.9446 23.9816C59.0002 25.3552 60.6024 27.3074 61.5485 29.5915C62.4946 31.8755 62.7421 34.3889 62.2598 36.8136C61.7775 39.2384 60.587 41.4657 58.8388 43.2138C57.0907 44.962 54.8634 46.1525 52.4386 46.6348C50.0139 47.1171 47.5005 46.8696 45.2165 45.9235C42.9324 44.9774 40.9801 43.3752 39.6066 41.3196C38.2331 39.264 37.5 36.8473 37.5 34.375C37.5041 31.0611 38.8224 27.884 41.1657 25.5407C43.509 23.1974 46.6861 21.8791 50 21.875Z" fill="#3391AC"/>
<path d="M42.1875 35.9375C41.7731 35.9375 41.3757 35.7729 41.0826 35.4799C40.7896 35.1868 40.625 34.7894 40.625 34.375C40.625 33.9606 40.7896 33.5632 41.0826 33.2701C41.3757 32.9771 41.7731 32.8125 42.1875 32.8125H48.4375V26.5625C48.4375 26.1481 48.6021 25.7507 48.8951 25.4576C49.1882 25.1646 49.5856 25 50 25C50.4144 25 50.8118 25.1646 51.1049 25.4576C51.3979 25.7507 51.5625 26.1481 51.5625 26.5625V32.8125H57.8125C58.2269 32.8125 58.6243 32.9771 58.9174 33.2701C59.2104 33.5632 59.375 33.9606 59.375 34.375C59.375 34.7894 59.2104 35.1868 58.9174 35.4799C58.6243 35.7729 58.2269 35.9375 57.8125 35.9375H51.5625V42.1875C51.5625 42.6019 51.3979 42.9993 51.1049 43.2924C50.8118 43.5854 50.4144 43.75 50 43.75C49.5856 43.75 49.1882 43.5854 48.8951 43.2924C48.6021 42.9993 48.4375 42.6019 48.4375 42.1875V35.9375H42.1875Z" fill="#3391AC"/>
</svg>
