<svg width="100" height="100" fill="none" xmlns="http://www.w3.org/2000/svg"><g clip-path="url(#clip0_163_4400)" fill="#3391AC"><path d="M76.603 72.892c-4.458-1.611-10.308-2.855-17.068-3.639.653-.66 1.297-1.33 1.93-2.01 6.052-6.498 10.081-12.852 12.318-19.423 4.807-14.114.085-31.597-10.981-40.666C57.172 2.54 50.006 0 42.624 0c-7.382 0-14.549 2.54-20.178 7.154-5.24 4.295-9.276 10.607-11.364 17.774-2.061 7.082-2.109 14.569-.132 21.082 2.642 8.713 8.318 16.388 14.996 23.247-6.737.784-12.568 2.023-17.018 3.63-6.07 2.189-9.147 4.93-9.147 8.15 0 3.93 4.516 7.116 13.422 9.469 7.917 2.091 18.414 3.244 29.555 3.244 11.14 0 21.636-1.152 29.554-3.244 8.906-2.353 13.421-5.54 13.421-9.47 0-3.216-3.071-5.956-9.13-8.144zM14.632 25.96c1.88-6.46 5.487-12.124 10.158-15.952C29.76 5.934 36.094 3.69 42.624 3.69c6.53 0 12.864 2.244 17.834 6.317 4.832 3.96 8.481 9.923 10.274 16.789 1.766 6.758 1.607 13.803-.447 19.835-4.63 13.598-16.81 23.735-27.661 32.67-11.5-9.48-24.001-20.723-28.138-34.362-1.771-5.837-1.72-12.577.146-18.98-1.866 6.403 1.88-6.46 0 0zM71.37 86.922c-7.617 2.017-17.778 3.13-28.609 3.136-10.83.006-20.991-1.098-28.61-3.107-8.425-2.221-10.674-4.75-10.675-5.894-.001-2.453 8.226-6.799 25.871-8.436 3.68 3.485 7.545 6.752 11.295 9.835 1.537 1.263 2.432 1.26 3.966-.003 3.65-3.008 7.627-6.288 11.459-9.855 17.71 1.614 25.97 5.963 25.971 8.42 0 1.142-2.246 3.674-10.668 5.904z"/><path d="M54.019 52.252c2.049-1.194.19-4.384-1.862-3.188a18.957 18.957 0 01-9.538 2.567c-10.454 0-18.959-8.497-18.959-18.94 0-10.444 8.505-18.94 18.96-18.94 10.453 0 18.958 8.496 18.958 18.94a18.89 18.89 0 01-1.045 6.218c-.778 2.238 2.712 3.453 3.491 1.211a22.564 22.564 0 001.25-7.43c0-12.48-10.163-22.632-22.654-22.632-12.492 0-22.655 10.153-22.655 22.632 0 12.48 10.163 22.632 22.654 22.632 4.01 0 7.953-1.061 11.4-3.07z"/><path d="M58.737 44.16c-1.005 0-1.85.841-1.85 1.846 0 1.003.846 1.846 1.85 1.845.976 0 1.8-.793 1.844-1.765a1.865 1.865 0 00-1.844-1.926z"/></g><defs><clipPath id="clip0_163_4400"><path fill="#fff" d="M0 0h100v100H0z"/></clipPath></defs></svg>