<svg width="100" height="100" fill="none" xmlns="http://www.w3.org/2000/svg"><g clip-path="url(#clip0_163_4292)"><g clip-path="url(#clip1_163_4292)" fill="#3391AC"><path d="M39.24 55.634c.199-.045.354-.178.465-.376.177-.244.265-.599.265-.974V50.23c0-2.082 1.727-3.765 3.788-3.765h6.11c2.06 0 3.788 1.683 3.788 3.765v1.218h10.207V50.23c0-2.082 1.728-3.765 3.809-3.765h6.09c1.04 0 1.993.42 2.678 1.086a3.779 3.779 0 011.11 2.68v4.053c0 .375.087.73.265.974a.747.747 0 00.487.376c4.14 1.241 16.94 4.186 19.442 6.867 1.528 1.616 2.258 3.831 2.258 6.933v24.299c0 3.433-2.833 6.267-6.266 6.267h-69.93c-3.455 0-6.267-2.834-6.267-6.267v-24.3c0-3.101.708-5.316 2.236-6.932.82-.863 2.747-1.772 5.116-2.636 4.848-1.772 11.557-3.389 14.349-4.23zm57.639 37.899h-21.08a1.58 1.58 0 01-1.573-1.574c0-.864.709-1.549 1.572-1.549h21.08V69.434c0-2.26-.441-3.788-1.394-4.785-1.683-1.794-15.08-5.117-18.09-6.003-.954-.287-1.684-.908-2.193-1.683-.51-.775-.775-1.728-.775-2.68V50.23a.615.615 0 00-.178-.442.652.652 0 00-.487-.2h-6.09c-.376 0-.686.265-.686.642v1.218a3.149 3.149 0 01-1.922 2.902c-.38.16-.788.242-1.2.243H53.654a3.118 3.118 0 01-2.215-.93 3.154 3.154 0 01-.907-2.215V50.23c0-.377-.31-.642-.665-.642h-6.111c-.355 0-.665.265-.665.642v4.053c0 .952-.266 1.904-.775 2.68-.51.775-1.24 1.396-2.193 1.683-1.793.532-16.409 4.209-18.09 6.003-.93.997-1.373 2.524-1.373 4.785V90.41h20.438a1.56 1.56 0 011.572 1.55c0 .863-.708 1.573-1.572 1.573H20.661v.2a3.155 3.155 0 003.144 3.143h69.93a3.156 3.156 0 003.143-3.143v-.2zm-64.04-53.935l.31 1.772c.221 1.306.42 2.547.133 3.854-.332 1.417-1.173 2.702-3.011 3.721L22.1 53.53c-1.949 1.086-3.809 1.13-5.403.62-2.103-.686-3.698-2.348-4.473-3.698-.687-1.24-1.373-2.48-2.06-3.699-4.517-8.085 2.104-18.45 12.998-27.4C31.466 12.576 41.852 6.75 51.95 3.228c13.33-4.63 25.62-4.873 30.137 3.212l2.08 3.677c.755 1.373 1.352 3.61.821 5.759-.4 1.617-1.395 3.19-3.344 4.275l-8.17 4.585c-1.839 1.041-3.366 1.107-4.739.62-1.262-.42-2.215-1.24-3.234-2.126l-1.35-1.196c-1.374-1.218-2.835-1.994-4.275-2.26-1.306-.22-2.59-.044-3.786.62L35.652 31.846c-1.196.664-2.037 1.684-2.502 2.925-.577 1.505-.599 3.233-.31 4.828zm-2.945 1.33l-14.658 8.438c.531.708 1.372 1.483 2.413 1.815.841.266 1.838.244 2.924-.376l8.17-4.563c.952-.553 1.373-1.107 1.506-1.683.155-.709 0-1.661-.177-2.658l-.178-.974zM13.686 46.64l15.855-9.103c0-1.395.243-2.701.708-3.875.731-1.928 2.037-3.5 3.875-4.541L54.562 17.67c1.84-1.04 3.854-1.329 5.891-.952 1.24.222 2.48.709 3.654 1.439l15.766-9.325-.487-.886C75.755 1.501 64.905 2.01 52.99 6.174c-9.765 3.411-19.84 9.059-27.835 15.615-9.787 7.996-15.9 16.967-12.268 23.435l.798 1.417zm53.1-26.446l.797.686c.753.665 1.462 1.285 2.148 1.53.575.198 1.262.132 2.236-.4l8.15-4.585c1.084-.599 1.638-1.44 1.838-2.281.287-1.197.044-2.525-.554-3.589l-14.615 8.639z"/><path d="M58.77 58.381a17.559 17.559 0 0112.444 5.16 17.577 17.577 0 015.16 12.47c0 4.874-1.97 9.26-5.16 12.45a17.556 17.556 0 01-12.445 5.16 17.571 17.571 0 01-12.467-5.16 17.525 17.525 0 01-5.16-12.45 17.58 17.58 0 015.16-12.47 17.569 17.569 0 0112.467-5.16zm0 11.518c3.366 0 6.089 2.747 6.089 6.113 0 3.367-2.723 6.114-6.09 6.114-3.366 0-6.11-2.748-6.11-6.114-.002-3.367 2.744-6.113 6.11-6.113zm0 3.124a2.976 2.976 0 00-2.99 2.989c0 1.661 1.328 2.969 2.99 2.969a2.969 2.969 0 002.967-2.97c0-1.638-1.33-2.988-2.968-2.988zm10.229-7.266a14.461 14.461 0 00-20.484 0 14.429 14.429 0 00-4.25 10.255c0 4.01 1.616 7.62 4.25 10.256a14.461 14.461 0 0010.253 4.23c3.986 0 7.618-1.617 10.23-4.23a14.433 14.433 0 004.252-10.256c0-4.01-1.616-7.62-4.251-10.255z"/><path fill-rule="evenodd" clip-rule="evenodd" d="M48.672 81.838a1.536 1.536 0 01.576-2.127c.731-.443 1.683-.178 2.125.575a1.567 1.567 0 01-.575 2.127c-.753.42-1.705.178-2.126-.575zm17.582-14.753c.665.554.753 1.53.2 2.194a1.576 1.576 0 01-2.215.2 1.595 1.595 0 01-.177-2.216c.554-.665 1.527-.731 2.192-.178zm3.986 6.89a1.562 1.562 0 01-1.262 1.816 1.574 1.574 0 01-1.816-1.263 1.574 1.574 0 011.262-1.816 1.563 1.563 0 011.816 1.263zm-22.963 0a1.575 1.575 0 011.816-1.262 1.574 1.574 0 011.262 1.815 1.563 1.563 0 11-3.078-.553zm3.986-6.89c.664-.553 1.66-.487 2.215.178a1.577 1.577 0 01-.733 2.508 1.55 1.55 0 01-1.66-.492c-.553-.665-.486-1.64.178-2.194zm7.507-2.746c.862 0 1.55.709 1.55 1.573a1.56 1.56 0 01-1.55 1.572 1.579 1.579 0 01-1.573-1.572 1.58 1.58 0 011.573-1.573zm10.097 17.499a1.585 1.585 0 01-2.148.575 1.567 1.567 0 01-.576-2.127c.443-.753 1.395-1.019 2.148-.575.732.42.997 1.373.576 2.127zm-6.112 5.138a1.587 1.587 0 01-2.015-.953 1.571 1.571 0 01.93-1.993c.82-.288 1.727.132 2.015.93a1.594 1.594 0 01-.93 2.016zm-7.972 0a1.587 1.587 0 01-.952-2.015 1.594 1.594 0 012.015-.93 1.57 1.57 0 01.13 2.881 1.563 1.563 0 01-1.193.064z"/><path d="M19.088 85.116a1.56 1.56 0 011.573 1.55 1.58 1.58 0 01-1.573 1.572H7.816a7.744 7.744 0 01-5.513-2.303A7.788 7.788 0 010 80.42V58.204c0-.709.066-1.683.288-2.748.244-1.107.708-2.28 1.528-3.21l7.794-8.95a1.548 1.548 0 012.193-.132c.665.553.731 1.55.155 2.193l-7.795 8.949c-.42.464-.686 1.151-.841 1.839-.155.73-.2 1.506-.2 2.06V80.42a4.672 4.672 0 001.373 3.3 4.687 4.687 0 003.321 1.396h11.272v-.001zm63.64-61.466a1.565 1.565 0 012.128-.576 1.536 1.536 0 01.575 2.127 8.121 8.121 0 01-2.303 2.525 8.047 8.047 0 01-3.189 1.262c-.841.133-1.638-.465-1.771-1.307a1.55 1.55 0 011.284-1.772 4.655 4.655 0 001.904-.753c.553-.399 1.04-.908 1.373-1.506zm13.485 3.013c.245-.82 1.13-1.286 1.95-1.042a1.582 1.582 0 011.04 1.95 21.542 21.542 0 01-7.639 10.897 21.23 21.23 0 01-12.578 4.252c-.863.022-1.55-.686-1.572-1.528 0-.864.686-1.572 1.55-1.572a18.073 18.073 0 0010.716-3.655c3.079-2.303 5.404-5.538 6.533-9.303zm-6.398-1.352a1.56 1.56 0 011.993-.93 1.559 1.559 0 01.929 1.992 14.795 14.795 0 01-5.181 6.956 14.752 14.752 0 01-8.172 2.88 1.542 1.542 0 01-1.615-1.484 1.561 1.561 0 011.483-1.64 11.62 11.62 0 006.444-2.258 11.8 11.8 0 004.119-5.516z"/></g></g><defs><clipPath id="clip0_163_4292"><path fill="#fff" d="M0 0h100v100H0z"/></clipPath><clipPath id="clip1_163_4292"><path fill="#fff" d="M0 0h100v100H0z"/></clipPath></defs></svg>