<svg width="100" height="100" fill="none" xmlns="http://www.w3.org/2000/svg"><path d="M94.344 36.797l-11.531-5.969V14.063a4.701 4.701 0 00-4.688-4.688h-56.25a4.702 4.702 0 00-4.688 4.688v16.765l-11.53 5.969a4.679 4.679 0 00-2.532 4.172v44.968a4.702 4.702 0 004.688 4.688h84.374a4.702 4.702 0 004.688-4.688V40.97a4.679 4.679 0 00-2.531-4.172zm-57.89 27.266L6.25 85.763V41.895l30.203 22.167zm10.812-3.922a4.693 4.693 0 015.468 0L90.8 87.5H9.213l38.053-27.36zm16.312 3.953l30.172-21.89V85.78L63.578 64.094zm28.817-24.781l-9.582 6.953V34.359l9.582 4.953zm-72.082-25.25a1.568 1.568 0 011.562-1.563h56.25a1.567 1.567 0 011.563 1.563V48.53L60.906 62.17l-6.343-4.562a7.787 7.787 0 00-9.126 0l-6.328 4.547-18.797-13.89V14.063zm-3.125 31.921l-9.346-6.793 9.346-4.832v11.625z" fill="#3391AC"/><path d="M50 50a15.625 15.625 0 10-15.625-15.625A15.642 15.642 0 0050 50zm0-28.125a12.5 12.5 0 11-12.5 12.5 12.516 12.516 0 0112.5-12.5z" fill="#3391AC"/><path d="M42.188 35.938a1.563 1.563 0 010-3.126h6.25v-6.25a1.563 1.563 0 013.124 0v6.25h6.25a1.563 1.563 0 010 3.126h-6.25v6.25a1.563 1.563 0 01-3.124 0v-6.25h-6.25z" fill="#3391AC"/></svg>