<svg width="172" height="68" viewBox="0 0 172 68" fill="none" xmlns="http://www.w3.org/2000/svg">
<path d="M26.1866 35.9612C24.6206 30.9773 18.1085 10.7926 16.826 6.12798H16.691C15.3874 10.8024 8.9018 30.98 7.3305 35.9612H26.1866ZM15.9502 3.90556H17.5664L32.5843 51.0464H31.0354L26.6579 37.3751H6.85875L2.54888 51.0464H1L15.9502 3.90556Z" fill="white"/>
<path d="M26.1866 35.9612C24.6206 30.9773 18.1085 10.7926 16.826 6.12798H16.691C15.3874 10.8024 8.9018 30.98 7.3305 35.9612H26.1866ZM15.9502 3.90556H17.5664L32.5843 51.0464H31.0354L26.6579 37.3751H6.85875L2.54888 51.0464H1L15.9502 3.90556Z" stroke="white" stroke-width="1.33333" stroke-miterlimit="10"/>
<path d="M52.0439 27.6779C61.2699 27.6779 63.8964 24.9842 63.8964 16.4313C63.8964 8.01333 61.2699 5.32006 51.9766 5.32006H41.9426V27.6779H52.0439ZM40.4609 3.90526H51.9766C62.1457 3.90526 65.378 7.13799 65.378 16.4313C65.378 24.5124 63.021 28.0819 55.8829 28.89L67.8699 51.0461H66.1865L54.2663 29.025C52.7946 29.1658 43.613 29.0618 41.9426 29.0918V51.0461H40.4609V3.90526Z" fill="white"/>
<path d="M52.0439 27.6779C61.2699 27.6779 63.8964 24.9842 63.8964 16.4313C63.8964 8.01333 61.2699 5.32006 51.9766 5.32006H41.9426V27.6779H52.0439ZM40.4609 3.90526H51.9766C62.1457 3.90526 65.378 7.13799 65.378 16.4313C65.378 24.5124 63.021 28.0819 55.8829 28.89L67.8699 51.0461H66.1865L54.2663 29.025C52.7946 29.1658 43.613 29.0618 41.9426 29.0918V51.0461H40.4609V3.90526Z" stroke="white" stroke-width="1.33333" stroke-miterlimit="10"/>
<path d="M84.6363 5.38687H70.7637V3.90526H100.058V5.38687H86.2525L86.1852 51.0461H84.6363V5.38687Z" fill="white"/>
<path d="M84.6363 5.38687H70.7637V3.90526H100.058V5.38687H86.2525L86.1852 51.0461H84.6363V5.38687Z" stroke="white" stroke-width="1.33333" stroke-miterlimit="10"/>
<path d="M149.694 61.1447C150.036 61.2205 150.036 61.9048 149.694 63.1985C149.546 63.5277 149.713 64.1344 149.237 64.2254C146.334 64.4402 138.441 65.1335 134.318 65.4806C130.761 65.7846 128.546 65.9748 127.672 66.051C126.796 66.1268 126.397 66.051 126.474 65.8232C126.36 65.1976 130.947 63.9012 132.635 63.712L137.713 62.8559C119.988 62.2088 103.709 62.4945 88.8758 63.712C88.5874 64.2254 87.8112 66.3671 87.5632 66.8501C87.1448 67.8003 86.4596 68.1617 85.5094 67.9339C84.7484 67.7057 84.4058 67.2106 84.4825 66.4505C84.421 65.9694 85.4587 64.4685 85.6807 63.9972C82.1435 64.3398 79.5188 64.6622 77.8071 64.9671C75.8973 65.1671 75.7376 61.9308 77.6932 61.829C77.8448 61.7909 79.9753 61.6012 84.0834 61.2586C84.8054 61.1819 85.8892 61.1061 87.3349 61.0304C98.5847 41.1164 116.612 17.3738 131.779 0.38324C132.387 -0.262948 133.263 -0.0920942 134.404 0.896695C135.278 1.62001 135.564 2.13302 135.26 2.43705L134.917 2.55141C129.415 4.11912 98.3354 46.7842 90.53 60.8021C104.313 59.9487 137.291 59.5263 149.694 61.1447Z" fill="white"/>
<path d="M130.069 26.0572C129.328 26.167 128.972 25.0123 129.27 24.4598C129.708 23.0361 134.355 17.7285 135.945 17.7276C136.982 17.6289 137.95 18.4518 137.999 19.4957C138.037 19.8769 136.781 21.0648 134.233 23.0616C131.685 25.0585 130.297 26.0572 130.069 26.0572ZM115.007 51.9594C114.322 51.9594 113.694 51.5599 113.124 50.7612C111.457 48.4137 112.486 45.872 113.894 43.0016C114.978 40.9477 116.242 39.0276 117.689 37.2397C121.187 33.0558 123.279 30.6787 123.964 30.1078C125.048 29.1791 126.17 29.7361 126.531 31.1347C126.721 31.9715 126.607 32.4285 126.19 32.5042C124.345 32.7697 113.329 46.6352 115.292 48.5361C117.127 49.9782 127.183 39.863 130.012 37.1253C130.582 36.5549 130.848 36.593 130.811 37.2397C130.772 38.3047 130.392 39.3697 129.669 40.4347L129.385 40.7764C127.379 42.7518 124.874 45.2796 122.652 47.2522C120.889 48.8276 120.234 49.3845 118.487 50.5899C117.297 51.3908 116.246 51.9235 115.007 51.9594Z" fill="white"/>
<path d="M122.367 54.5833C121.059 54.6622 120.199 51.6604 120.884 50.7613C124.441 44.5972 131.39 34.7429 136.174 29.2519C136.707 28.6057 137.391 28.8151 138.228 29.8797C138.95 30.7922 139.16 31.4398 138.856 31.8191C138.779 31.9335 138.665 31.9904 138.513 31.9904C137.791 31.9904 135.68 34.1779 132.181 38.5514C129.023 42.6218 127.578 44.6757 127.844 44.7133L128.016 44.599C132.845 40.2631 137.258 36.5833 141.252 33.5595C145.246 30.5357 147.718 29.0236 148.669 29.0236C149.163 29.0236 149.544 29.2716 149.81 29.7653C150.304 30.0703 150.552 30.4129 150.552 30.7922C150.552 31.1348 149.515 32.6851 147.442 35.442C145.369 38.2003 143.439 40.9577 141.651 43.7151C139.863 46.473 139.255 48.1366 139.826 48.707C141.367 50.2366 153.16 38.5317 154.66 37.1254C155.077 36.7075 155.324 36.8402 155.401 37.5245C155.553 38.6281 155.23 39.5981 154.431 40.4344C151.687 43.2299 147.944 46.8635 144.732 49.3918C143.279 50.5093 141.213 52.0398 139.597 52.1299C137.987 52.2331 136.374 50.3425 136.403 48.8779C136.403 47.6613 137.135 45.9308 138.599 43.6864C140.063 41.4425 141.442 39.4644 142.735 37.7528C144.028 36.0411 144.58 35.1097 144.39 34.9573C142.828 34.6761 127.67 48.1003 126.989 49.3918C126.218 50.2891 125.103 51.6586 124.45 52.5295C123.993 53.1232 123.385 53.9389 122.881 54.355C122.691 54.5066 122.52 54.5833 122.367 54.5833Z" fill="white"/>
<path d="M162.961 35.4707C164.958 34.0254 165.69 33.0371 165.157 32.5043C164.625 31.9716 163.436 32.4568 161.592 33.959C159.747 35.4617 157.874 37.4106 155.972 39.807C158.634 38.3617 160.964 36.9169 162.961 35.4707ZM170.749 37.068C171.091 36.7259 171.262 36.8025 171.262 37.2963C171.224 38.4756 170.558 39.8451 169.266 41.4039L168.125 42.5451C162.962 46.9232 152.995 56.9339 149.354 51.7308C148.631 50.7806 148.29 49.7537 148.327 48.6501C148.376 42.7877 160.347 28.9837 166.184 28.7384C167.645 28.7761 169.292 30.2061 169.152 31.7622C168.676 36.3357 157.706 42.1317 153.062 43.9716C151.236 46.9384 150.723 48.8779 151.522 49.7913C153.309 51.8451 159.718 47.6043 170.749 37.068Z" fill="white"/>
<path d="M100.317 44.3229H99.2871V43.2933H100.317V44.3229Z" fill="white"/>
</svg>
