<svg width="352" height="140" fill="none" xmlns="http://www.w3.org/2000/svg"><path d="M52.855 74.038C49.63 63.777 36.223 22.22 33.583 12.617h-.278c-2.684 9.623-16.037 51.165-19.272 61.42h38.822zM31.78 8.04h3.327l30.92 97.055h-3.19l-9.012-28.147H13.062L4.19 105.096H1L31.78 8.041z" fill="#3391AC"/><path d="M52.855 74.038C49.63 63.777 36.223 22.22 33.583 12.617h-.278c-2.684 9.623-16.037 51.165-19.272 61.42h38.822zM31.78 8.04h3.327l30.92 97.055h-3.19l-9.012-28.147H13.062L4.19 105.096H1L31.78 8.041z" stroke="#3391AC" stroke-width="1.333" stroke-miterlimit="10"/><path d="M106.091 56.984c18.995 0 24.402-5.546 24.402-23.155 0-17.331-5.407-22.876-24.54-22.876H85.294v46.03h20.797zM82.244 8.04h23.709c20.936 0 27.591 6.656 27.591 25.79 0 16.637-4.853 23.986-19.549 25.65l24.679 45.615h-3.466l-24.541-45.338c-3.03.29-21.934.076-25.373.138v45.2h-3.05V8.04z" fill="#3391AC"/><path d="M106.091 56.984c18.995 0 24.402-5.546 24.402-23.155 0-17.331-5.407-22.876-24.54-22.876H85.294v46.03h20.797zM82.244 8.04h23.709c20.936 0 27.591 6.656 27.591 25.79 0 16.637-4.853 23.986-19.549 25.65l24.679 45.615h-3.466l-24.541-45.338c-3.03.29-21.934.076-25.373.138v45.2h-3.05V8.04z" stroke="#3391AC" stroke-width="1.333" stroke-miterlimit="10"/><path d="M173.193 11.09h-28.561V8.04h60.312v3.05h-28.423l-.139 94.005h-3.189V11.091z" fill="#3391AC"/><path d="M173.193 11.09h-28.561V8.04h60.312v3.05h-28.423l-.139 94.005h-3.189V11.091z" stroke="#3391AC" stroke-width="1.333" stroke-miterlimit="10"/><path d="M307.137 125.886c.705.156.705 1.565 0 4.229-.306.677.04 1.926-.941 2.114-5.977.442-22.228 1.869-30.715 2.584-7.323.626-11.884 1.017-13.684 1.174-1.802.156-2.625 0-2.467-.469-.235-1.288 9.21-3.957 12.686-4.346l10.454-1.763c-36.492-1.332-70.007-.744-100.547 1.763-.594 1.057-2.192 5.466-2.703 6.461-.861 1.956-2.272 2.7-4.228 2.231-1.567-.47-2.272-1.489-2.114-3.054-.127-.991 2.01-4.081 2.467-5.051-7.283.705-12.687 1.369-16.211 1.997-3.932.412-4.26-6.251-.234-6.461.312-.078 4.698-.469 13.156-1.174 1.486-.158 3.718-.314 6.694-.47 23.162-41 60.277-89.881 91.504-124.862 1.252-1.33 3.054-.979 5.402 1.057 1.802 1.49 2.389 2.546 1.764 3.171l-.706.236C265.385 8.48 201.398 96.32 185.329 125.18c28.376-1.757 96.273-2.627 121.808.705z" fill="#3391AC"/><path d="M266.729 53.647c-1.525.226-2.257-2.151-1.644-3.288.901-2.932 10.468-13.86 13.742-13.861 2.136-.203 4.127 1.49 4.229 3.64.078.785-2.507 3.23-7.753 7.342-5.247 4.111-8.104 6.167-8.574 6.167zm-31.01 53.328c-1.41 0-2.702-.822-3.876-2.467-3.432-4.833-1.313-10.066 1.585-15.975a73.012 73.012 0 017.812-11.863c7.203-8.614 11.51-13.508 12.921-14.683 2.231-1.912 4.541-.766 5.285 2.114.391 1.723.156 2.663-.704 2.82-3.797.546-26.477 29.093-22.436 33.006 3.777 2.969 24.482-17.856 30.306-23.493 1.174-1.174 1.721-1.095 1.644.236-.079 2.193-.862 4.385-2.35 6.578l-.586.703c-4.13 4.067-9.287 9.272-13.861 13.333-3.63 3.243-4.978 4.39-8.575 6.872-2.45 1.649-4.615 2.745-7.165 2.819z" fill="#3391AC"/><path d="M250.87 112.377c-2.694.163-4.464-6.017-3.053-7.868 7.323-12.691 21.629-32.98 31.479-44.284 1.097-1.33 2.506-.9 4.229 1.292 1.486 1.879 1.918 3.212 1.293 3.993-.158.236-.393.353-.705.353-1.489 0-5.834 4.503-13.038 13.508-6.501 8.38-9.476 12.608-8.928 12.686l.353-.236c9.943-8.926 19.028-16.502 27.251-22.728 8.222-6.225 13.311-9.338 15.269-9.338 1.018 0 1.802.51 2.35 1.527 1.016.628 1.527 1.333 1.527 2.114 0 .705-2.135 3.897-6.402 9.573a299.317 299.317 0 00-11.922 17.033c-3.681 5.678-4.933 9.103-3.759 10.277 3.174 3.149 27.453-20.949 30.541-23.844.859-.86 1.368-.587 1.526.822.312 2.272-.353 4.268-1.996 5.99-5.65 5.756-13.358 13.237-19.969 18.442-2.992 2.301-7.245 5.452-10.572 5.637-3.314.213-6.636-3.68-6.577-6.695 0-2.505 1.507-6.067 4.521-10.688 3.014-4.62 5.853-8.693 8.517-12.217 2.662-3.524 3.797-5.441 3.406-5.755-3.216-.579-34.422 27.06-35.826 29.718-1.588 1.847-3.883 4.667-5.226 6.46-.941 1.222-2.193 2.902-3.23 3.758-.392.313-.745.47-1.059.47z" fill="#3391AC"/><path d="M334.445 73.028c4.111-2.976 5.618-5.01 4.522-6.107-1.097-1.097-3.544-.098-7.342 2.995-3.798 3.093-7.654 7.106-11.569 12.04 5.48-2.976 10.278-5.95 14.389-8.928zm16.034 3.288c.704-.704 1.057-.546 1.057.47-.079 2.428-1.451 5.248-4.111 8.457l-2.349 2.35c-10.629 9.013-31.149 29.624-38.646 18.912-1.488-1.957-2.191-4.071-2.114-6.343.101-12.07 24.746-40.49 36.765-40.995 3.007.078 6.397 3.022 6.109 6.226-.98 9.416-23.565 21.349-33.125 25.137-3.759 6.108-4.816 10.101-3.171 11.982 3.68 4.228 16.875-4.503 39.585-26.195zM205.473 91.253h-2.12v-2.12h2.12v2.12z" fill="#3391AC"/></svg>