<svg width="78" height="93" fill="none" xmlns="http://www.w3.org/2000/svg"><path d="M0 0h78v77.5L39 93 0 77.5V0z" fill="#3391AC"/><path d="M19.988 47.406c-.496-1.581-2.562-7.983-2.969-9.462h-.042c-.414 1.482-2.47 7.882-2.97 9.462h5.981zm-3.246-10.167h.512l4.763 14.95h-.49l-1.39-4.335h-6.279l-1.367 4.336H12l4.742-14.951z" fill="#fff"/><path d="M19.988 47.406c-.496-1.581-2.562-7.983-2.969-9.462h-.042c-.414 1.482-2.47 7.882-2.97 9.462h5.981zm-3.246-10.167h.512l4.763 14.95h-.49l-1.39-4.335h-6.279l-1.367 4.336H12l4.742-14.951z" stroke="#fff" stroke-width="1.333" stroke-miterlimit="10"/><path d="M28.19 44.779c2.925 0 3.758-.855 3.758-3.568 0-2.67-.833-3.524-3.78-3.524h-3.183v7.092h3.204zm-3.674-7.54h3.652c3.225 0 4.25 1.025 4.25 3.973 0 2.563-.747 3.695-3.011 3.95l3.802 7.028h-.534l-3.78-6.984c-.468.044-3.38.011-3.91.02v6.964h-.47V37.239z" fill="#fff"/><path d="M28.19 44.779c2.925 0 3.758-.855 3.758-3.568 0-2.67-.833-3.524-3.78-3.524h-3.183v7.092h3.204zm-3.674-7.54h3.652c3.225 0 4.25 1.025 4.25 3.973 0 2.563-.747 3.695-3.011 3.95l3.802 7.028h-.534l-3.78-6.984c-.468.044-3.38.011-3.91.02v6.964h-.47V37.239z" stroke="#fff" stroke-width="1.333" stroke-miterlimit="10"/><path d="M38.526 37.709h-4.4v-.47h9.292v.47h-4.38l-.02 14.48h-.492V37.71z" fill="#fff"/><path d="M38.526 37.709h-4.4v-.47h9.292v.47h-4.38l-.02 14.48h-.492V37.71z" stroke="#fff" stroke-width="1.333" stroke-miterlimit="10"/><path d="M59.16 55.393c.109.024.109.24 0 .651-.047.104.007.297-.144.326-.921.068-3.425.288-4.732.398l-2.108.18c-.278.025-.405 0-.38-.072-.036-.198 1.419-.61 1.954-.67l1.61-.27c-5.621-.206-10.784-.115-15.489.27-.091.164-.338.843-.416.996-.133.302-.35.416-.652.344-.24-.072-.35-.23-.325-.47-.02-.153.31-.63.38-.779-1.122.109-1.954.211-2.497.308-.606.063-.657-.963-.036-.995.047-.012.723-.073 2.026-.181a21.15 21.15 0 011.031-.073c3.568-6.316 9.286-13.846 14.096-19.235.193-.205.471-.15.833.163.277.23.368.392.271.489l-.108.036c-1.745.497-11.603 14.029-14.078 18.475 4.371-.27 14.83-.405 18.764.109z" fill="#fff"/><path d="M52.936 44.264c-.235.035-.348-.331-.254-.506.14-.452 1.613-2.135 2.117-2.136a.604.604 0 01.652.561c.012.121-.386.498-1.195 1.131-.808.634-1.248.95-1.32.95zm-4.778 8.215c-.217 0-.416-.126-.597-.38-.528-.744-.202-1.55.245-2.46a11.14 11.14 0 011.203-1.828c1.11-1.327 1.773-2.08 1.99-2.262.344-.294.7-.118.815.326.06.265.024.41-.109.434-.585.084-4.078 4.482-3.456 5.085.582.457 3.771-2.751 4.668-3.62.181-.18.266-.168.254.037-.012.338-.133.675-.362 1.013l-.09.109c-.637.626-1.431 1.428-2.136 2.054-.559.5-.767.676-1.32 1.058-.378.254-.712.423-1.105.434z" fill="#fff"/><path d="M50.493 53.312c-.415.025-.688-.927-.47-1.213 1.127-1.955 3.331-5.08 4.848-6.822.17-.205.386-.138.652.2.229.289.295.494.2.615a.122.122 0 01-.11.054c-.229 0-.898.694-2.008 2.08-1.001 1.292-1.46 1.943-1.375 1.955l.054-.036c1.532-1.375 2.931-2.542 4.198-3.501 1.267-.96 2.05-1.439 2.352-1.439.157 0 .278.079.362.235.157.097.236.206.236.326 0 .109-.33.6-.987 1.475a45.51 45.51 0 00-1.836 2.624c-.567.874-.76 1.402-.58 1.583.49.485 4.23-3.227 4.705-3.673.133-.133.211-.09.236.126.048.35-.055.658-.308.923-.87.887-2.058 2.04-3.076 2.841-.461.354-1.116.84-1.629.868-.51.033-1.022-.566-1.013-1.031 0-.386.232-.935.697-1.647.464-.711.901-1.339 1.312-1.881.41-.543.584-.839.524-.887-.495-.09-5.302 4.168-5.519 4.578a22.73 22.73 0 00-.805.995c-.145.188-.338.447-.497.58-.06.047-.115.072-.163.072z" fill="#fff"/><path d="M63.367 47.25c.633-.458.866-.772.697-.94-.17-.17-.546-.016-1.131.46-.585.477-1.18 1.095-1.782 1.855a20.326 20.326 0 002.216-1.375zm2.47.507c.109-.109.163-.085.163.072-.012.374-.224.808-.633 1.303l-.362.362c-1.638 1.388-4.799 4.563-5.954 2.913a1.494 1.494 0 01-.325-.977c.015-1.86 3.812-6.237 5.663-6.315.464.012.986.465.942.959-.151 1.45-3.63 3.289-5.103 3.872-.58.941-.742 1.556-.489 1.846.567.651 2.6-.694 6.098-4.035zm-22.338 2.301h-.327v-.327h.327v.327z" fill="#fff"/></svg>