<svg width="154" height="30" viewBox="0 0 154 30" fill="none" xmlns="http://www.w3.org/2000/svg">
<path d="M36.3737 0.277778C40.741 0.277778 44.2821 3.75125 44.2821 8.0308V29.2378H39.9588V27.6017C38.1205 29.0996 35.7576 30 33.1804 30C27.3178 30 22.5641 25.3403 22.5641 19.5922C22.5641 13.8454 27.3178 9.18507 33.1804 9.18507C35.7576 9.18507 38.1205 10.0862 39.9588 11.5833V8.0308C39.9595 6.08972 38.353 4.51678 36.3737 4.51678H29.6787V0.277778H36.3737ZM73.6045 0.277778C77.9718 0.277778 81.5128 3.75125 81.5128 8.0308V29.2378H77.1896V27.6017C75.3506 29.0996 72.9876 30 70.4105 30C64.5479 30 59.7949 25.3403 59.7949 19.5922C59.7949 13.8454 64.5479 9.18507 70.4105 9.18507C72.9876 9.18507 75.3506 10.0862 77.1896 11.5833V8.0308C77.1896 6.08972 75.5838 4.51678 73.6045 4.51678H66.9095V0.277778H73.6045ZM114.22 0.277778C118.587 0.277778 122.128 3.75125 122.128 8.0308L122.128 29.2378H117.804V27.6017C115.966 29.0996 113.603 30 111.026 30C105.163 30 100.41 25.3403 100.41 19.5922C100.41 13.8454 105.163 9.18507 111.026 9.18507C113.603 9.18507 115.966 10.0862 117.804 11.5833L117.805 8.0308C117.805 6.08972 116.199 4.51678 114.22 4.51678H107.525V0.277778H114.22ZM62.6154 0.277778V4.54646H56.021C54.0706 4.54646 52.4895 6.13132 52.4895 8.0863V29.4444H48.2308V8.0863C48.2308 3.77411 51.7189 0.277778 56.021 0.277778H62.6154ZM89.516 0.277778V3.35641H96.8639V7.62499H89.516V21.6361C89.516 23.5904 91.1261 25.1759 93.1121 25.1759H100.128V29.4444H93.1121C88.7321 29.4444 85.1795 25.9482 85.1795 21.6361L85.1802 0.277778H89.516ZM146.092 0.277778C150.459 0.277778 154 3.77478 154 8.0863V29.4444H149.676L149.677 8.0863C149.677 6.13132 148.071 4.54646 146.092 4.54646H142.2V29.4444H137.877V4.54646H133.985C132.006 4.54646 130.4 6.13132 130.4 8.0863V29.4444H126.077V8.0863C126.077 3.77411 129.618 0.277778 133.985 0.277778H146.092ZM4.38808 0V10.6782C4.38808 12.6331 6.01659 14.2179 8.02693 14.2179H15.0735V0H19.4615V21.3583C19.4615 25.6684 15.866 29.1667 11.4346 29.1667H0.615075V24.8981H11.4346C13.4443 24.8981 15.0735 23.3133 15.0735 21.3583V18.4865H8.02693C3.59482 18.4865 0 14.9902 0 10.6782V0H4.38808ZM33.1804 13.4234C29.7051 13.4234 26.888 16.1852 26.888 19.5922C26.888 22.9999 29.7045 25.761 33.1804 25.761C36.6557 25.761 39.4728 22.9999 39.4728 19.5922C39.4728 16.1852 36.6557 13.4234 33.1804 13.4234ZM70.4105 13.4234C66.9352 13.4234 64.1181 16.1852 64.1181 19.5922C64.1181 22.9999 66.9352 25.761 70.4105 25.761C73.8865 25.761 76.7036 22.9999 76.7036 19.5922C76.7036 16.1852 73.8865 13.4234 70.4105 13.4234ZM111.026 13.4234C107.55 13.4234 104.734 16.1852 104.734 19.5922C104.734 22.9999 107.55 25.761 111.026 25.761C114.502 25.761 117.318 22.9999 117.318 19.5922C117.318 16.1852 114.501 13.4234 111.026 13.4234Z" fill="#CA2319"/>
</svg>
