<svg width="121" height="40" viewBox="0 0 121 40" fill="none" xmlns="http://www.w3.org/2000/svg">
<path fill-rule="evenodd" clip-rule="evenodd" d="M46.3585 38.9375V22.5706H40.9685V34.0537C40.6989 34.2185 39.6206 34.9774 38.4079 34.9774C37.4981 34.9774 37.094 34.6474 36.9256 34.4828C36.4204 33.988 36.3527 33.1625 36.3527 31.3802V22.5706H30.9622V31.4797C30.9622 33.5914 30.8949 36.0339 32.748 37.8481C33.8934 38.9702 35.308 39.4323 37.0602 39.4323C39.722 39.4323 41.8441 37.6176 41.9791 37.4854V38.9375H46.3585Z" fill="#B5B6B3"/>
<path fill-rule="evenodd" clip-rule="evenodd" d="M56.0633 12.2273H50.6729V38.9376H56.0633V12.2273Z" fill="#B5B6B3"/>
<path fill-rule="evenodd" clip-rule="evenodd" d="M65.6588 22.5708H60.2686V38.9376H65.6588V22.5708Z" fill="#B5B6B3"/>
<path fill-rule="evenodd" clip-rule="evenodd" d="M65.8273 17.1451C65.8273 15.5941 64.5807 14.3732 62.9979 14.3732C61.4144 14.3732 60.1338 15.5941 60.1338 17.1451C60.1338 18.696 61.4144 19.95 62.9979 19.95C64.5807 19.95 65.8273 18.696 65.8273 17.1451Z" fill="#B5B6B3"/>
<path fill-rule="evenodd" clip-rule="evenodd" d="M86.72 38.9375L79.8802 29.8631L86.6516 22.5707H80.4193L75.2987 28.3122V12.2272H69.9082V38.9375H75.2987V31.5785L80.4872 38.9375H86.72Z" fill="#B5B6B3"/>
<path fill-rule="evenodd" clip-rule="evenodd" d="M94.6612 17.1451C94.6612 15.5941 93.4142 14.3732 91.8309 14.3732C90.2472 14.3732 88.9668 15.5941 88.9668 17.1451C88.9668 18.696 90.2472 19.95 91.8309 19.95C93.4142 19.95 94.6612 18.696 94.6612 17.1451Z" fill="#B5B6B3"/>
<path fill-rule="evenodd" clip-rule="evenodd" d="M94.4916 22.5708H89.1016V38.9376H94.4916V22.5708Z" fill="#B5B6B3"/>
<path fill-rule="evenodd" clip-rule="evenodd" d="M120.762 17.1451C120.762 15.5941 119.516 14.3732 117.932 14.3732C116.349 14.3732 115.068 15.5941 115.068 17.1451C115.068 18.696 116.349 19.95 117.932 19.95C119.516 19.95 120.762 18.696 120.762 17.1451Z" fill="#B5B6B3"/>
<path fill-rule="evenodd" clip-rule="evenodd" d="M120.593 22.5708H115.203V38.9376H120.593V22.5708Z" fill="#B5B6B3"/>
<path fill-rule="evenodd" clip-rule="evenodd" d="M6.76556 10.9115C4.24011 10.9115 2.22552 8.98882 2.22552 6.47845C2.22552 3.96808 4.24011 2.01799 6.76556 2.01799C9.29079 2.01799 11.3054 3.96808 11.3054 6.47845C11.3054 8.98882 9.29079 10.9115 6.76556 10.9115ZM6.76556 0.482877C3.35736 0.482877 0.658203 3.13257 0.658203 6.47845C0.658203 9.82411 3.35736 12.4473 6.76556 12.4473C10.174 12.4473 12.8733 9.82411 12.8733 6.47845C12.8733 3.13257 10.174 0.482877 6.76556 0.482877Z" fill="#B5B6B3"/>
<path fill-rule="evenodd" clip-rule="evenodd" d="M7.09279 5.86403C6.71129 5.97083 6.32935 5.94386 5.94784 5.94386V4.42201H6.38375C6.68376 4.42201 7.01129 4.39505 7.28376 4.4753C7.55624 4.55534 7.77452 4.74239 7.77452 5.11627C7.77452 5.59695 7.47452 5.75724 7.09279 5.86403ZM8.51044 7.3328C8.4285 7.119 8.21065 6.77188 7.88355 6.61179C8.61947 6.39778 8.947 5.78378 8.947 5.16978C8.947 4.66235 8.7285 4.18168 8.347 3.83433C7.80183 3.32712 7.1472 3.30016 6.32935 3.30016H4.74805V9.52258H5.94784V7.06572H6.16569C7.01129 7.06572 7.0657 7.06572 7.47452 7.92048L8.23796 9.52258H9.49195L8.51044 7.3328Z" fill="#B5B6B3"/>
</svg>
