<svg width="148" height="29" viewBox="0 0 148 29" fill="none" xmlns="http://www.w3.org/2000/svg">
<path d="M145.15 0.00201035C143.575 0.00201035 142.299 1.2385 142.299 2.76389C142.299 4.28895 143.575 5.52544 145.15 5.52544C146.724 5.52544 148.001 4.28895 148.001 2.76389C148.001 1.2385 146.724 0.00201035 145.15 0.00201035ZM0 28.5398H3.80098V14.1936L10.6904 23.6859L15.6792 16.8123V10.4102L10.6904 17.2836L3.82661 7.82682H3.80098H0V28.5398ZM21.3807 7.82682H17.5797V28.5398H21.3807V7.82682ZM147.05 7.82682H143.249V28.5398H147.05V7.82682ZM135.885 7.82682H132.084V21.9989L122.107 7.83493V7.82682H122.101H118.306V28.5398H122.107V14.368L132.084 28.5319V28.5398H132.09H135.885V7.82682ZM101.439 7.36658C95.2725 7.36658 90.2733 12.2095 90.2733 18.1833C90.2733 24.1573 95.2725 29 101.439 29C107.605 29 112.604 24.1573 112.604 18.1833C112.604 12.2095 107.605 7.36658 101.439 7.36658ZM101.439 11.0489C105.499 11.0489 108.803 14.2494 108.803 18.1833C108.803 22.1172 105.499 25.3177 101.439 25.3177C97.378 25.3177 94.0744 22.1172 94.0744 18.1833C94.0744 14.2494 97.378 11.0489 101.439 11.0489ZM70.7936 7.82682V11.279H77.2078V28.5398H81.0082V11.279H87.4225V7.82682H70.7936ZM68.3586 7.82682H63.9406L58.4105 16.8718L52.8804 7.82682H48.4626L56.51 20.9892V28.5398H60.311V20.9892L68.3586 7.82682ZM33.8844 20.9451L37.4165 12.4997L40.9488 20.9451H33.8844ZM44.1251 28.5398H48.2261L39.5633 7.82682H35.2698L26.6069 28.5398H30.7081L32.4407 24.3973H42.3925L44.1251 28.5398Z" fill="#231F20"/>
</svg>
