<svg width="145" height="49" viewBox="0 0 145 49" fill="none" xmlns="http://www.w3.org/2000/svg">
<g clip-path="url(#clip0_249_1988)">
<path fill-rule="evenodd" clip-rule="evenodd" d="M29.0481 12.2831C28.9785 14.7398 30.298 15.3924 30.298 15.3924L27.6234 15.7285C27.6234 15.7285 27.225 17.1495 25.0358 20.1488C22.8466 23.1478 20.8798 21.0731 20.8798 21.0731C23.1342 24.0975 27.8011 19.3373 27.8011 19.3373C28.0437 22.8769 25.966 25.2448 25.1255 26.1235C24.285 27.0023 22.547 27.4466 21.0169 27.6837C19.4246 27.9331 19.8421 29.1534 19.8421 29.1534L20.778 33.8595C20.8331 34.1376 20.8237 34.4254 20.7505 34.6998L16.9395 48.8561C33.1822 42.2744 33.6942 29.6289 33.6942 29.6289C34.5676 22.9258 32.2319 17.0162 29.0481 12.2831Z" fill="#232B56"/>
<path fill-rule="evenodd" clip-rule="evenodd" d="M16.9416 0.342529C-5.68165 17.0562 0.886281 32.5877 0.886281 32.5877C4.47661 44.4048 16.5973 48.459 16.5973 48.459C14.3786 45.4234 16.6843 37.6083 17.1368 36.1674C17.1835 36.0163 17.1734 35.8529 17.1086 35.709C14.9614 30.8967 15.1555 28.4054 15.1555 28.4054C14.8898 27.0087 12.4359 27.5257 11.7721 27.6209C11.1084 27.7161 3.28073 28.771 2.55111 23.1125C1.82048 17.4533 4.91633 14.0487 4.91633 14.0487C6.55361 18.468 11.5713 21.2858 14.6453 21.1066C17.7193 20.9275 17.6524 17.9953 17.6524 17.9953C17.6524 17.9953 16.8338 20.0689 13.8938 20.453C10.9535 20.8377 10.3337 17.7257 10.3337 17.7257C8.12236 17.2512 7.76998 13.9161 7.76998 13.9161C9.53894 15.4951 14.7783 14.4118 15.6638 14.2094C16.5493 14.0069 19.2222 13.3299 19.9958 15.3587C20.7695 17.3879 19.974 18.6287 19.4886 18.764C19.0025 18.8994 18.1389 18.2039 18.1389 18.2039C18.5373 19.1005 19.6864 19.0152 19.6864 19.0152C19.6864 19.0152 20.0408 19.4876 21.4554 20.2998C22.8693 21.1121 23.7995 20.2327 24.1522 19.3307C24.5046 18.4286 25.1025 16.2868 25.1025 16.2868L20.5484 17.8435L20.5703 17.4821C24.5717 16.1974 27.5121 13.469 27.5121 13.469C28.2548 12.8407 28.6455 12.358 28.846 11.9993C23.8532 4.73859 16.9416 0.353835 16.9416 0.353835V0.342529Z" fill="#232B56"/>
<path fill-rule="evenodd" clip-rule="evenodd" d="M16.544 23.8977C16.1906 22.7484 14.3777 22.4774 12.0565 22.1173C9.73525 21.7569 7.45703 20.6747 7.45703 20.6747C7.76742 21.599 11.8358 22.3873 14.1587 23.4918C16.4826 24.5963 15.6841 26.6292 15.6841 26.6292C15.7939 26.4938 16.9001 25.0522 16.5457 23.9008L16.544 23.8977Z" fill="#232B56"/>
<path fill-rule="evenodd" clip-rule="evenodd" d="M19.5513 26.4225C19.5513 26.4225 20.0156 24.2581 24.57 22.9063C24.57 22.9063 19.4193 23.2423 19.5513 26.4225Z" fill="#232B56"/>
<path fill-rule="evenodd" clip-rule="evenodd" d="M67.0191 11.8669C67.0191 11.4064 66.7299 11.0827 66.315 11.0827H50.1317C49.7078 11.0741 49.3487 11.3972 49.304 11.8268L45.458 38.2668C45.4103 38.4816 45.4607 38.7067 45.5954 38.8777C45.7365 39.0421 45.9424 39.1315 46.1557 39.1243H48.7635C49.1784 39.1346 49.5344 38.8235 49.5885 38.4046L51.2369 26.9077H62.2998C62.7119 26.9153 63.0653 26.609 63.1238 26.1924L63.4533 24.0756V24.0084C63.4533 23.5984 63.1275 23.2661 62.7254 23.2661C62.72 23.2661 62.7136 23.2661 62.7079 23.2661H51.7713L53.0139 14.7692H65.9019C66.3003 14.7617 66.6335 14.4575 66.6839 14.0532L67.0134 11.9374V11.8706L67.0191 11.8669Z" fill="#232B56"/>
<path fill-rule="evenodd" clip-rule="evenodd" d="M84.4473 20.277C83.2568 20.0098 81.6544 19.8679 79.8075 19.8679C76.2209 19.8679 72.7387 21.1732 70.2499 23.4524C68.0772 25.5017 66.9307 28.2332 66.9307 31.349C66.9307 33.8139 67.6092 35.7944 68.9479 37.2288C70.7682 39.1887 73.0941 39.396 74.0132 39.396C75.9653 39.396 77.5653 38.9349 79.0796 37.9198L79.0265 38.2559C78.9852 38.4659 79.0383 38.6844 79.172 38.8496C79.3221 39.0232 79.5401 39.1195 79.7672 39.112H81.7918C82.2221 39.1205 82.5792 38.7975 82.6249 38.3679L85.1063 21.2965C85.1796 20.7196 84.8225 20.3403 84.4473 20.2684V20.277ZM80.9503 23.2955L79.4121 34.2668C78.0947 35.6022 76.6882 36.1976 74.8789 36.1976C73.7737 36.1798 72.7216 35.7128 71.9571 34.8989C71.2153 34.065 70.8226 32.8101 70.8226 31.2705C70.8226 29.079 71.5808 27.1677 73.0192 25.7439C74.4587 24.3202 76.5793 23.4322 78.8428 23.3068C79.351 23.2695 79.7293 23.2537 80.0699 23.2537C80.3702 23.2537 80.6524 23.2667 80.949 23.2958L80.9503 23.2955Z" fill="#232B56"/>
<path fill-rule="evenodd" clip-rule="evenodd" d="M121.605 11.0843H119.206C118.775 11.0843 118.556 11.382 118.382 11.6033L106.991 31.8529L102.266 11.7678L102.202 11.5996C102.128 11.4454 101.964 11.084 101.542 11.084H99.253C98.8959 11.084 98.5754 11.3204 98.4105 11.7301L89.5559 38.163C89.4642 38.3853 89.4918 38.6375 89.6201 38.8351C89.7666 39.0294 89.9957 39.1387 90.2335 39.1273H92.6327C93.0173 39.1273 93.3559 38.8838 93.4842 38.5175L99.903 18.7209L104.143 36.583C104.216 37.0002 104.5 37.2551 104.884 37.2551H107.412C107.741 37.2551 108.071 37.1852 108.272 36.7238L118.381 18.8103V38.3493C118.381 38.818 118.683 39.1335 119.123 39.1335H121.531C121.998 39.1335 122.355 38.7974 122.355 38.3493V11.8668C122.373 11.4502 122.053 11.0994 121.641 11.0833C121.632 11.0833 121.622 11.0823 121.613 11.0823L121.605 11.0843Z" fill="#232B56"/>
<path fill-rule="evenodd" clip-rule="evenodd" d="M144.34 20.277C143.15 20.0098 141.539 19.8679 139.698 19.8679C136.109 19.8679 132.629 21.1732 130.138 23.4524C127.968 25.5028 126.814 28.2339 126.814 31.3507C126.814 33.8156 127.501 35.7971 128.838 37.2305C130.651 39.1884 132.986 39.3994 133.902 39.3994C135.852 39.3994 137.445 38.939 138.965 37.9242L138.91 38.2603C138.874 38.4703 138.919 38.6879 139.057 38.854C139.203 39.0277 139.423 39.124 139.652 39.1164H141.676C142.115 39.1164 142.481 38.7803 142.509 38.3723L144.99 21.3003C145.064 20.7234 144.707 20.3451 144.331 20.2732L144.34 20.277ZM140.833 23.2955L139.295 34.2668C137.977 35.6022 136.576 36.1976 134.763 36.1976C133.655 36.1798 132.611 35.7122 131.842 34.8989C131.1 34.065 130.706 32.8101 130.706 31.2705C130.706 29.079 131.467 27.1677 132.904 25.7439C134.342 24.3202 136.466 23.4322 138.728 23.3068C139.24 23.2695 139.616 23.2537 139.955 23.2537C140.257 23.2533 140.541 23.2667 140.833 23.2955Z" fill="#232B56"/>
<path fill-rule="evenodd" clip-rule="evenodd" d="M90.4535 28.0061C90.8657 27.1808 90.5543 26.1674 89.7394 25.7426C89.7027 25.722 89.6661 25.7032 89.6204 25.6864C88.7141 25.2989 87.6701 25.6902 87.2307 26.583C86.8095 27.4082 87.1299 28.4216 87.9358 28.8464C87.9815 28.8659 88.0181 28.8848 88.0547 28.9016C88.961 29.289 90.0051 28.8988 90.4535 28.0061Z" fill="#232B56"/>
<path fill-rule="evenodd" clip-rule="evenodd" d="M29.3108 0.0260365L29.2311 0C26.9778 0.647829 24.7711 1.4529 22.6246 2.40803C34.4366 13.3961 34.53 24.4113 34.53 24.4113C35.9318 38.2079 23.1043 45.6872 16.9512 48.816L16.9395 48.8609L16.9835 49C23.6723 47.185 36.486 40.6759 38.6131 29.2489C38.6131 29.2489 42.0008 16.0124 29.3118 0.0253513L29.3108 0.0260365Z" fill="#232B56"/>
</g>
<defs>
<clipPath id="clip0_249_1988">
<rect width="145" height="49" fill="white"/>
</clipPath>
</defs>
</svg>
