<svg width="117" height="65" viewBox="0 0 117 65" fill="none" xmlns="http://www.w3.org/2000/svg">
<mask id="mask0_249_2130" style="mask-type:luminance" maskUnits="userSpaceOnUse" x="0" y="0" width="117" height="65">
<path d="M0 7.62939e-06H117V65H0V7.62939e-06Z" fill="white"/>
</mask>
<g mask="url(#mask0_249_2130)">
<path d="M55.5537 14.8736H49.2487H49.2097H42.8226V14.8772C39.3528 14.9006 36.547 17.7064 36.5236 21.1749H36.5186V33.9257H36.5213L36.5186 40.2527C40.0168 40.2527 42.8534 37.4212 42.8616 33.9257H42.8639V21.2175H49.2487V21.2139C52.7341 21.1923 55.5537 18.364 55.5537 14.8736Z" fill="#2AB24B"/>
<path d="M99.1341 14.8792V14.8828C95.9229 14.9049 93.3051 17.3167 92.9093 20.4252H92.8291V14.8792H83.3115V21.2232H89.3785H92.8291V40.2583H99.1744V21.2232H108.692V14.8792H99.1341Z" fill="#2AB24B"/>
<path d="M18.2777 14.8719V14.8742C11.2696 14.8742 5.58927 20.556 5.58789 27.5626V27.564C5.58927 34.5721 11.2696 40.2524 18.2777 40.2524V40.2511H23.8287V33.9057H18.2777V33.908C15.1055 33.908 11.9337 31.5292 11.9323 27.564C11.9337 23.5984 15.1055 21.2196 18.2777 21.2196V21.2159C22.2433 21.2159 24.6216 24.3895 24.6216 27.5617V33.908C24.623 37.4109 27.4632 40.2511 30.9674 40.2511V33.908V27.5617C30.9674 20.5532 25.2857 14.8719 18.2777 14.8719Z" fill="#2AB24B"/>
<path d="M68.2425 14.8719V14.8742C61.2345 14.8742 55.5541 20.556 55.5527 27.5626V27.564C55.5541 34.5721 61.2345 40.2524 68.2425 40.2524V40.2511H73.7935V33.9057H68.2425V33.908C65.0703 33.908 61.8985 31.5292 61.8972 27.564C61.8985 23.5984 65.0703 21.2196 68.2425 21.2196V21.2159C72.2081 21.2159 74.5865 24.3895 74.5865 27.5617V33.908C74.5879 37.4109 77.428 40.2511 80.9323 40.2511V33.908V27.5617C80.9323 20.5532 75.2506 14.8719 68.2425 14.8719Z" fill="#2AB24B"/>
<path d="M7.99446 46.788H6.89471V48.9949H6.39941V44.1822H6.89471V46.3409H7.99446L9.62345 44.1822H10.1733L8.38612 46.5197L10.277 48.9949H9.69224L7.99446 46.788Z" fill="black"/>
<path d="M13.555 48.4205C13.7614 48.3036 13.9228 48.138 14.0398 47.922C14.1567 47.7069 14.2149 47.4616 14.2149 47.1869C14.2149 46.9117 14.1567 46.6677 14.0398 46.4545C13.9228 46.2417 13.7614 46.0757 13.555 45.9564C13.3486 45.8372 13.1198 45.7771 12.8675 45.7771C12.6107 45.7771 12.3805 45.8372 12.1769 45.9564C11.9728 46.0757 11.8123 46.2417 11.6953 46.4545C11.5784 46.6677 11.5201 46.9117 11.5201 47.1869C11.5201 47.4616 11.5784 47.7069 11.6953 47.922C11.8123 48.138 11.9728 48.3036 12.1769 48.4205C12.3805 48.5375 12.6107 48.5962 12.8675 48.5962C13.1198 48.5962 13.3486 48.5375 13.555 48.4205ZM13.8233 45.5817C14.0985 45.7354 14.3135 45.9514 14.4695 46.2316C14.6249 46.5109 14.7029 46.8292 14.7029 47.1869C14.7029 47.5492 14.6249 47.8698 14.4695 48.149C14.3135 48.4288 14.0994 48.6453 13.8265 48.7989C13.5541 48.9525 13.2459 49.0291 12.9019 49.0291C12.6089 49.0291 12.3438 48.9681 12.1081 48.8471C11.8719 48.7255 11.6784 48.5476 11.527 48.3141V50.3284H11.0391V45.3786H11.5064V46.094C11.6531 45.8555 11.8467 45.6721 12.0874 45.5441C12.3282 45.4153 12.5997 45.3515 12.9019 45.3515C13.2409 45.3515 13.5481 45.4281 13.8233 45.5817Z" fill="black"/>
<path d="M17.9382 48.4205C18.1423 48.3035 18.3014 48.138 18.4161 47.922C18.5307 47.7069 18.588 47.4615 18.588 47.1868C18.588 46.9116 18.5307 46.6667 18.4161 46.4512C18.3014 46.2356 18.1423 46.0696 17.9382 45.9527C17.7346 45.8357 17.5039 45.777 17.2475 45.777C16.9907 45.777 16.7605 45.8357 16.5564 45.9527C16.3523 46.0696 16.1923 46.2356 16.0753 46.4512C15.9584 46.6667 15.9001 46.9116 15.9001 47.1868C15.9001 47.4615 15.9584 47.7069 16.0753 47.922C16.1923 48.138 16.3523 48.3035 16.5564 48.4205C16.7605 48.5374 16.9907 48.5961 17.2475 48.5961C17.5039 48.5961 17.7346 48.5374 17.9382 48.4205ZM16.3055 48.792C16.0262 48.6337 15.8061 48.415 15.6456 48.1352C15.4851 47.8559 15.4053 47.5395 15.4053 47.1868C15.4053 46.8337 15.4851 46.5177 15.6456 46.2379C15.8061 45.9586 16.0262 45.7408 16.3055 45.5849C16.5853 45.4294 16.899 45.3514 17.2475 45.3514C17.5956 45.3514 17.9097 45.4294 18.189 45.5849C18.4688 45.7408 18.6876 45.9586 18.8458 46.2379C19.004 46.5177 19.0829 46.8337 19.0829 47.1868C19.0829 47.5395 19.004 47.8559 18.8458 48.1352C18.6876 48.415 18.4688 48.6337 18.189 48.792C17.9097 48.9497 17.5956 49.0291 17.2475 49.0291C16.899 49.0291 16.5853 48.9497 16.3055 48.792Z" fill="black"/>
<path d="M22.4513 48.4585C22.6067 48.3576 22.6851 48.1999 22.6851 47.9843C22.6851 47.7688 22.6136 47.6092 22.4719 47.5064C22.3297 47.4032 22.105 47.3514 21.7982 47.3514H20.6021V48.6094H21.75C22.0614 48.6094 22.2953 48.5594 22.4513 48.4585ZM20.6021 46.9873H21.6881C21.9674 46.9873 22.182 46.9345 22.3311 46.8291C22.4797 46.724 22.5544 46.5704 22.5544 46.3686C22.5544 46.1668 22.4797 46.0159 22.3311 45.9146C22.182 45.8137 21.9674 45.7637 21.6881 45.7637H20.6021V46.9873ZM23.1662 48.0114C23.1662 48.3278 23.0493 48.5709 22.8154 48.7401C22.582 48.9098 22.2334 48.9946 21.7707 48.9946H20.1279V45.3785H21.7225C22.1353 45.3785 22.4581 45.4587 22.6916 45.6192C22.9255 45.7798 23.0424 46.0086 23.0424 46.3067C23.0424 46.5034 22.9883 46.6722 22.881 46.8121C22.7732 46.952 22.6232 47.0556 22.4306 47.1249C22.9209 47.2395 23.1662 47.5349 23.1662 48.0114Z" fill="black"/>
<path d="M27.2626 45.3786V48.9948H26.7747V45.8116H25.042L24.9939 46.7059C24.9572 47.4571 24.8705 48.0345 24.7329 48.438C24.5954 48.8411 24.35 49.0425 23.9973 49.0425C23.901 49.0425 23.7841 49.0241 23.6465 48.9879L23.6809 48.5683C23.7634 48.5866 23.8208 48.5963 23.8529 48.5963C24.0409 48.5963 24.1831 48.5087 24.2794 48.3344C24.3757 48.1606 24.4394 47.9455 24.4715 47.6887C24.5036 47.4323 24.5311 47.0925 24.5541 46.671L24.616 45.3786H27.2626Z" fill="black"/>
<path d="M28.6514 45.3787H29.1393V48.2524L31.5525 45.3787H31.9855V48.9949H31.4975V46.1212L29.0912 48.9949H28.6514V45.3787Z" fill="black"/>
<path d="M35.1816 45.3787H35.6696V48.2524L38.0828 45.3787H38.5157V48.9949H38.0278V46.1212L35.6214 48.9949H35.1816V45.3787Z" fill="black"/>
<path d="M45.1733 48.197C45.4554 47.9543 45.5962 47.615 45.5962 47.1798C45.5962 46.7537 45.4554 46.4212 45.1733 46.1827C44.8918 45.9447 44.4827 45.8117 43.9466 45.7842V48.6028C44.4827 48.5753 44.8918 48.44 45.1733 48.197ZM42.2515 48.1901C42.529 48.4336 42.9358 48.5707 43.4724 48.6028V45.7842C42.9404 45.8117 42.535 45.9461 42.2552 46.1864C41.9755 46.4272 41.836 46.7578 41.836 47.1798C41.836 47.6108 41.9745 47.9475 42.2515 48.1901ZM45.5205 48.5065C45.1495 48.8275 44.6244 49.0014 43.9466 49.0289V50.3281H43.4724V49.0358C42.7982 49.0087 42.2772 48.833 41.908 48.5102C41.5393 48.1869 41.3545 47.7434 41.3545 47.1798C41.3545 46.6202 41.5393 46.1827 41.908 45.8667C42.2772 45.5503 42.7982 45.3783 43.4724 45.3513V43.8938H43.9466V45.3513C44.6244 45.3834 45.1495 45.5572 45.5205 45.8736C45.892 46.1896 46.0773 46.6253 46.0773 47.1798C46.0773 47.7434 45.892 48.1859 45.5205 48.5065Z" fill="black"/>
<path d="M48.8693 48.4551C49.066 48.3295 49.2132 48.1469 49.3091 47.9089V47.3178H48.1749C47.5563 47.3178 47.2467 47.5328 47.2467 47.9639C47.2467 48.1744 47.327 48.3405 47.4875 48.462C47.6475 48.5835 47.8723 48.6441 48.1612 48.6441C48.4363 48.6441 48.6721 48.5812 48.8693 48.4551ZM49.4191 45.7053C49.6714 45.9415 49.797 46.2909 49.797 46.7537V48.9949H49.3297V48.4308C49.2197 48.6188 49.0582 48.7656 48.845 48.8711C48.6317 48.9766 48.3786 49.0293 48.0855 49.0293C47.6824 49.0293 47.3614 48.933 47.1229 48.7404C46.8849 48.5478 46.7656 48.2932 46.7656 47.9772C46.7656 47.6704 46.8766 47.4228 47.099 47.2352C47.3215 47.0472 47.6751 46.9532 48.1612 46.9532H49.3091V46.733C49.3091 46.4212 49.2219 46.1845 49.0481 46.0213C48.8739 45.8589 48.6193 45.7773 48.285 45.7773C48.0557 45.7773 47.8356 45.8153 47.6251 45.891C47.4141 45.9667 47.2329 46.0708 47.0821 46.2038L46.8619 45.8397C47.0449 45.6837 47.2651 45.5631 47.5219 45.4787C47.7787 45.3939 48.0488 45.3512 48.3332 45.3512C48.8051 45.3512 49.1669 45.4691 49.4191 45.7053Z" fill="black"/>
<path d="M51.649 48.7954C51.367 48.6395 51.1459 48.4207 50.9854 48.1387C50.8254 47.8571 50.7451 47.5397 50.7451 47.1866C50.7451 46.8339 50.8254 46.5175 50.9854 46.2382C51.1459 45.9584 51.367 45.741 51.649 45.5851C51.9311 45.4292 52.2507 45.3512 52.608 45.3512C52.9199 45.3512 53.1978 45.4122 53.4431 45.5338C53.6885 45.6548 53.882 45.8323 54.0242 46.0662L53.6596 46.3139C53.5408 46.135 53.389 46.0006 53.206 45.9117C53.0226 45.8222 52.8235 45.7773 52.608 45.7773C52.3466 45.7773 52.1118 45.836 51.9036 45.9529C51.6949 46.0699 51.5321 46.2359 51.4151 46.4514C51.2982 46.6665 51.24 46.9119 51.24 47.1866C51.24 47.4663 51.2982 47.7126 51.4151 47.9259C51.5321 48.1387 51.6949 48.3038 51.9036 48.4207C52.1118 48.5377 52.3466 48.5959 52.608 48.5959C52.8235 48.5959 53.0226 48.5528 53.206 48.4652C53.389 48.3785 53.5408 48.2455 53.6596 48.0667L54.0242 48.3139C53.882 48.5478 53.6871 48.7257 53.4399 48.8468C53.1923 48.9683 52.9148 49.0293 52.608 49.0293C52.2507 49.0293 51.9311 48.9513 51.649 48.7954Z" fill="black"/>
<path d="M56.7472 48.4551C56.9439 48.3295 57.0912 48.1469 57.187 47.9089V47.3178H56.0529C55.4342 47.3178 55.1246 47.5328 55.1246 47.9639C55.1246 48.1744 55.2049 48.3405 55.3654 48.462C55.5255 48.5835 55.7502 48.6441 56.0391 48.6441C56.3143 48.6441 56.55 48.5812 56.7472 48.4551ZM57.2971 45.7053C57.5493 45.9415 57.675 46.2909 57.675 46.7537V48.9949H57.2077V48.4308C57.0976 48.6188 56.9362 48.7656 56.7229 48.8711C56.5096 48.9766 56.2565 49.0293 55.9634 49.0293C55.5603 49.0293 55.2393 48.933 55.0008 48.7404C54.7628 48.5478 54.6436 48.2932 54.6436 47.9772C54.6436 47.6704 54.7545 47.4228 54.977 47.2352C55.1994 47.0472 55.553 46.9532 56.0391 46.9532H57.187V46.733C57.187 46.4212 57.0999 46.1845 56.9261 46.0213C56.7518 45.8589 56.4973 45.7773 56.1629 45.7773C55.9336 45.7773 55.7135 45.8153 55.503 45.891C55.292 45.9667 55.1109 46.0708 54.96 46.2038L54.7399 45.8397C54.9228 45.6837 55.143 45.5631 55.3998 45.4787C55.6566 45.3939 55.9267 45.3512 56.2111 45.3512C56.683 45.3512 57.0448 45.4691 57.2971 45.7053Z" fill="black"/>
<path d="M59.5379 47.8844C59.4741 48.2169 59.3595 48.4448 59.1944 48.5682H61.4493V45.8115H59.7098L59.6686 46.6159C59.6452 47.1295 59.6025 47.5519 59.5379 47.8844ZM62.5009 48.5682V49.8674H62.0405V48.9947H58.8022V49.8674H58.3418V48.5682H58.5482C58.7912 48.5549 58.9559 48.376 59.043 48.0321C59.1301 47.6886 59.1893 47.207 59.2219 46.5888L59.27 45.3785H61.9373V48.5682H62.5009Z" fill="black"/>
<path d="M66.9686 45.3787H67.4566V48.9949H66.9686V45.3787ZM65.6111 48.4276C65.7826 48.2882 65.8689 48.0827 65.8689 47.8126C65.8689 47.5466 65.784 47.3494 65.6143 47.2214C65.4451 47.0926 65.1906 47.0265 64.8517 47.0219L63.9372 47.0082V48.617L64.8517 48.6303C65.186 48.6353 65.4391 48.5675 65.6111 48.4276ZM66.0064 46.96C66.2444 47.1572 66.3637 47.4411 66.3637 47.8126C66.3637 48.1969 66.2357 48.4927 65.9789 48.6991C65.7226 48.905 65.3557 49.0059 64.8792 49.0013L63.4492 48.9949V45.3787H63.9372V46.6436L64.9686 46.6573C65.4222 46.6624 65.768 46.7633 66.0064 46.96Z" fill="black"/>
<path d="M68.6216 48.919C68.5509 48.8461 68.5156 48.7566 68.5156 48.6512C68.5156 48.5457 68.5509 48.4572 68.6216 48.3865C68.6926 48.3155 68.7789 48.2797 68.8793 48.2797C68.9802 48.2797 69.0678 48.3155 69.1407 48.3865C69.2141 48.4572 69.2508 48.5457 69.2508 48.6512C69.2508 48.7566 69.2141 48.8461 69.1407 48.919C69.0678 48.9924 68.9802 49.0291 68.8793 49.0291C68.7789 49.0291 68.6926 48.9924 68.6216 48.919Z" fill="black"/>
<path d="M72.9052 47.6028C72.8158 48.077 72.6658 48.3948 72.4549 48.5548H75.4179V44.6227H73.1148L73.0735 45.7912C73.0501 46.5246 72.9942 47.1286 72.9052 47.6028ZM76.6411 48.5548V50.0742H76.1669V48.9946H71.9664L71.9596 50.0742H71.4854L71.4922 48.5548H71.7325C72.049 48.5365 72.2691 48.2856 72.3929 47.8023C72.5163 47.3184 72.592 46.6323 72.62 45.7431L72.6745 44.1824H75.9192V48.5548H76.6411Z" fill="black"/>
<path d="M80.5185 45.3786V48.9948H80.0305V45.8116H78.2979L78.2497 46.7059C78.2131 47.4571 78.1259 48.0345 77.9883 48.438C77.8512 48.8411 77.6054 49.0425 77.2532 49.0425C77.1569 49.0425 77.0399 49.0241 76.9023 48.9879L76.9363 48.5683C77.0193 48.5866 77.0766 48.5963 77.1083 48.5963C77.2967 48.5963 77.4385 48.5087 77.5348 48.3344C77.6311 48.1606 77.6953 47.9455 77.7274 47.6887C77.759 47.4323 77.787 47.0925 77.8099 46.671L77.8718 45.3786H80.5185Z" fill="black"/>
<path d="M83.1441 47.4344H84.2374V45.8119H83.1785C82.4727 45.8119 82.12 46.0847 82.12 46.63C82.12 47.1661 82.4612 47.4344 83.1441 47.4344ZM84.6837 45.3789V48.9946H84.2374V47.7986H83.1028H82.9652L82.1264 48.9946H81.5977L82.4979 47.7302C82.2182 47.6523 82.0031 47.5193 81.8517 47.3308C81.7008 47.1432 81.6247 46.9052 81.6247 46.6163C81.6247 46.2131 81.7623 45.9059 82.0375 45.6949C82.3126 45.4844 82.6882 45.3789 83.1647 45.3789H84.6837Z" fill="black"/>
<path d="M90.83 45.3786V48.9948H90.3421V45.8116H88.6094L88.5613 46.7059C88.5246 47.4571 88.4374 48.0345 88.2999 48.438C88.1627 48.8411 87.9169 49.0425 87.5647 49.0425C87.4684 49.0425 87.3515 49.0241 87.2139 48.9879L87.2478 48.5683C87.3308 48.5866 87.3881 48.5963 87.4198 48.5963C87.6083 48.5963 87.75 48.5087 87.8463 48.3344C87.9426 48.1606 88.0068 47.9455 88.0389 47.6887C88.0706 47.4323 88.0985 47.0925 88.1215 46.671L88.1834 45.3786H90.83Z" fill="black"/>
<path d="M95.9954 48.4241C96.1949 48.3049 96.3512 48.138 96.4659 47.922C96.5805 47.7073 96.6379 47.4615 96.6379 47.1868C96.6379 46.9116 96.5805 46.6667 96.4659 46.4512C96.3512 46.2361 96.1949 46.0696 95.9954 45.9527C95.7959 45.8357 95.5725 45.7775 95.3249 45.7775C95.0777 45.7775 94.8543 45.8357 94.6548 45.9527C94.4558 46.0696 94.2985 46.2361 94.1838 46.4512C94.0692 46.6667 94.0119 46.9116 94.0119 47.1868C94.0119 47.4615 94.0692 47.7073 94.1838 47.922C94.2985 48.138 94.4558 48.3049 94.6548 48.4241C94.8543 48.5434 95.0777 48.603 95.3249 48.603C95.5725 48.603 95.7959 48.5434 95.9954 48.4241ZM96.2425 45.5853C96.5154 45.7408 96.7301 45.9586 96.8855 46.2379C97.041 46.5177 97.119 46.8337 97.119 47.1868C97.119 47.5395 97.041 47.8559 96.8855 48.1352C96.7301 48.415 96.5154 48.6337 96.2425 48.792C95.9697 48.9497 95.6638 49.0291 95.3249 49.0291C95.0043 49.0291 94.7131 48.9593 94.4521 48.8195C94.1907 48.68 93.9788 48.4861 93.816 48.2389C93.6537 47.9912 93.5583 47.7073 93.5308 47.3858H92.7057V48.9947H92.2178V45.3785H92.7057V46.9396H93.5377C93.5743 46.6278 93.6739 46.3512 93.8367 46.1109C93.999 45.8706 94.2086 45.6835 94.4659 45.5505C94.7227 45.4175 95.0089 45.3514 95.3249 45.3514C95.6638 45.3514 95.9697 45.4294 96.2425 45.5853Z" fill="black"/>
<path d="M98.7078 47.8844C98.6436 48.2169 98.5289 48.4448 98.3638 48.5682H100.619V45.8115H98.8798L98.8385 46.6159C98.8151 47.1295 98.772 47.5519 98.7078 47.8844ZM101.671 48.5682V49.8674H101.21V48.9947H97.9722V49.8674H97.5117V48.5682H97.7181C97.9607 48.5549 98.1253 48.376 98.2129 48.0321C98.2996 47.6886 98.3592 47.207 98.3918 46.5888L98.4395 45.3785H101.107V48.5682H101.671Z" fill="black"/>
<path d="M103.159 46.1043C102.923 46.3262 102.789 46.6161 102.757 46.9738H105.321C105.289 46.6161 105.155 46.3262 104.919 46.1043C104.683 45.8818 104.388 45.7704 104.035 45.7704C103.687 45.7704 103.395 45.8818 103.159 46.1043ZM105.782 47.3379H102.757C102.784 47.714 102.928 48.0176 103.189 48.2492C103.451 48.4803 103.781 48.5964 104.18 48.5964C104.404 48.5964 104.61 48.556 104.798 48.4758C104.986 48.3955 105.149 48.2776 105.287 48.1217L105.561 48.4381C105.401 48.6303 105.2 48.7771 104.96 48.878C104.719 48.9788 104.455 49.0293 104.166 49.0293C103.795 49.0293 103.466 48.95 103.179 48.7917C102.893 48.634 102.67 48.4152 102.509 48.1355C102.348 47.8557 102.269 47.5397 102.269 47.1866C102.269 46.8339 102.346 46.5175 102.499 46.2382C102.652 45.9589 102.863 45.741 103.131 45.5851C103.399 45.4292 103.701 45.3512 104.035 45.3512C104.37 45.3512 104.67 45.4292 104.936 45.5851C105.201 45.741 105.41 45.9575 105.561 46.2345C105.713 46.512 105.788 46.8293 105.788 47.1866L105.782 47.3379Z" fill="black"/>
<path d="M107.768 44.6227C107.585 44.4668 107.491 44.2471 107.486 43.9627H107.837C107.841 44.1411 107.905 44.2847 108.029 44.3925C108.153 44.4998 108.313 44.5539 108.51 44.5539C108.708 44.5539 108.869 44.4998 108.995 44.3925C109.121 44.2847 109.186 44.1411 109.191 43.9627H109.541C109.537 44.2471 109.442 44.4668 109.256 44.6227C109.071 44.7786 108.822 44.8566 108.51 44.8566C108.199 44.8566 107.951 44.7786 107.768 44.6227ZM106.867 45.3785H107.356V48.2521L109.768 45.3785H110.202V48.9946H109.713V46.1214L107.307 48.9946H106.867V45.3785Z" fill="black"/>
</g>
</svg>
