<svg width="148" height="68" viewBox="0 0 148 68" fill="none" xmlns="http://www.w3.org/2000/svg">
    <g clip-path="url(#clip0_249_2389)">
        <path fill-rule="evenodd" clip-rule="evenodd" d="M110.759 34.5707L113.837 41.1724L116.97 34.5707H122.554L113.837 51.8171L105.176 34.5707H110.759Z" fill="#B5B6B3"/>
        <path fill-rule="evenodd" clip-rule="evenodd" d="M39.4736 31.2365V26.5105H21.9209V31.2365H27.9179V50.9375H33.5105V31.2365H39.4736Z" fill="#B5B6B3"/>
        <mask id="mask0_249_2389" style="mask-type:luminance" maskUnits="userSpaceOnUse" x="-23" y="-32" width="185" height="128">
            <path d="M-22.1582 -31.5421H161.797V95.8555H-22.1582V-31.5421Z" fill="white"/>
        </mask>
        <g mask="url(#mask0_249_2389)">
            <path fill-rule="evenodd" clip-rule="evenodd" d="M55.3585 50.9375V34.5706H49.9685V46.0537C49.6989 46.2185 48.6206 46.9774 47.4079 46.9774C46.4981 46.9774 46.094 46.6474 45.9256 46.4828C45.4204 45.988 45.3527 45.1625 45.3527 43.3802V34.5706H39.9622V43.4797C39.9622 45.5914 39.8949 48.0339 41.748 49.8481C42.8934 50.9702 44.308 51.4323 46.0602 51.4323C48.722 51.4323 50.8441 49.6176 50.9791 49.4854V50.9375H55.3585Z" fill="#B5B6B3"/>
            <path fill-rule="evenodd" clip-rule="evenodd" d="M65.0633 24.2273H59.6729V50.9376H65.0633V24.2273Z" fill="#B5B6B3"/>
            <path fill-rule="evenodd" clip-rule="evenodd" d="M74.6588 34.5708H69.2686V50.9376H74.6588V34.5708Z" fill="#B5B6B3"/>
            <path fill-rule="evenodd" clip-rule="evenodd" d="M74.8273 29.1451C74.8273 27.5941 73.5807 26.3732 71.9979 26.3732C70.4144 26.3732 69.1338 27.5941 69.1338 29.1451C69.1338 30.696 70.4144 31.95 71.9979 31.95C73.5807 31.95 74.8273 30.696 74.8273 29.1451Z" fill="#B5B6B3"/>
            <path fill-rule="evenodd" clip-rule="evenodd" d="M95.72 50.9375L88.8802 41.8631L95.6516 34.5707H89.4193L84.2987 40.3122V24.2272H78.9082V50.9375H84.2987V43.5785L89.4872 50.9375H95.72Z" fill="#B5B6B3"/>
            <path fill-rule="evenodd" clip-rule="evenodd" d="M103.661 29.1451C103.661 27.5941 102.414 26.3732 100.831 26.3732C99.2472 26.3732 97.9668 27.5941 97.9668 29.1451C97.9668 30.696 99.2472 31.95 100.831 31.95C102.414 31.95 103.661 30.696 103.661 29.1451Z" fill="#B5B6B3"/>
            <path fill-rule="evenodd" clip-rule="evenodd" d="M103.492 34.5708H98.1016V50.9376H103.492V34.5708Z" fill="#B5B6B3"/>
            <path fill-rule="evenodd" clip-rule="evenodd" d="M129.762 29.1451C129.762 27.5941 128.516 26.3732 126.932 26.3732C125.349 26.3732 124.068 27.5941 124.068 29.1451C124.068 30.696 125.349 31.95 126.932 31.95C128.516 31.95 129.762 30.696 129.762 29.1451Z" fill="#B5B6B3"/>
            <path fill-rule="evenodd" clip-rule="evenodd" d="M129.593 34.5708H124.203V50.9376H129.593V34.5708Z" fill="#B5B6B3"/>
            <path fill-rule="evenodd" clip-rule="evenodd" d="M15.7656 22.9115C13.2401 22.9115 11.2255 20.9888 11.2255 18.4784C11.2255 15.9681 13.2401 14.018 15.7656 14.018C18.2908 14.018 20.3054 15.9681 20.3054 18.4784C20.3054 20.9888 18.2908 22.9115 15.7656 22.9115ZM15.7656 12.4829C12.3574 12.4829 9.6582 15.1326 9.6582 18.4784C9.6582 21.8241 12.3574 24.4473 15.7656 24.4473C19.174 24.4473 21.8733 21.8241 21.8733 18.4784C21.8733 15.1326 19.174 12.4829 15.7656 12.4829Z" fill="#B5B6B3"/>
            <path fill-rule="evenodd" clip-rule="evenodd" d="M16.0928 17.864C15.7113 17.9708 15.3293 17.9439 14.9478 17.9439V16.422H15.3838C15.6838 16.422 16.0113 16.395 16.2838 16.4753C16.5562 16.5553 16.7745 16.7424 16.7745 17.1163C16.7745 17.5969 16.4745 17.7572 16.0928 17.864ZM17.5104 19.3328C17.4285 19.119 17.2107 18.7719 16.8836 18.6118C17.6195 18.3978 17.947 17.7838 17.947 17.1698C17.947 16.6624 17.7285 16.1817 17.347 15.8343C16.8018 15.3271 16.1472 15.3002 15.3293 15.3002H13.748V21.5226H14.9478V19.0657H15.1657C16.0113 19.0657 16.0657 19.0657 16.4745 19.9205L17.238 21.5226H18.4919L17.5104 19.3328Z" fill="#B5B6B3"/>
        </g>
    </g>
    <defs>
        <clipPath id="clip0_249_2389">
            <rect width="148" height="68" fill="white"/>
        </clipPath>
    </defs>
</svg>
