<svg width="215" height="48" viewBox="0 0 215 48" fill="none" xmlns="http://www.w3.org/2000/svg">
<path d="M26.764 26.4914H19.9565L17.7464 31.9994H16.1045L22.5492 16.0005H24.1911L30.6128 31.9994H28.979L26.764 26.4914ZM26.1877 25.0516L23.357 18.0403L20.5263 25.0516H26.1877Z" fill="#1D1D1B"/>
<path d="M40.6954 24.913H36.2063V31.9994H34.6875V16.0005H41.1322C43.6641 16.0005 45.7296 17.9881 45.7296 20.4568C45.7192 21.4547 45.3747 22.4208 44.7504 23.2028C44.1261 23.9848 43.2575 24.5383 42.2815 24.7761L46.0104 31.9994H44.3685L40.6954 24.913ZM36.2063 23.4048H41.1322C42.8349 23.4048 44.2174 22.0792 44.2174 20.4568C44.2174 18.8344 42.8349 17.5087 41.1322 17.5087H36.2063V23.4048Z" fill="#1D1D1B"/>
<path d="M65.9076 28.0454C65.0074 29.6569 63.5937 30.9257 61.8886 31.6527C60.1834 32.3798 58.2834 32.5237 56.4869 32.062C54.6904 31.6003 53.0992 30.5591 51.9633 29.102C50.8273 27.6448 50.2109 25.8542 50.2109 24.0115C50.2109 22.1687 50.8273 20.3781 51.9633 18.9209C53.0992 17.4638 54.6904 16.4226 56.4869 15.9609C58.2834 15.4992 60.1834 15.6432 61.8886 16.3702C63.5937 17.0972 65.0074 18.3661 65.9076 19.9775L64.5727 20.708C63.8359 19.3908 62.6794 18.3539 61.2849 17.7601C59.8904 17.1663 58.3368 17.0491 56.868 17.4271C55.3992 17.805 54.0984 18.6566 53.1698 19.8482C52.2411 21.0398 51.7373 22.5039 51.7373 24.0107C51.7373 25.5174 52.2411 26.9815 53.1698 28.1731C54.0984 29.3647 55.3992 30.2163 56.868 30.5942C58.3368 30.9722 59.8904 30.855 61.2849 30.2612C62.6794 29.6674 63.8359 28.6305 64.5727 27.3133L65.9076 28.0454Z" fill="#1D1D1B"/>
<path d="M83.4112 16.0005V31.9994H81.8924V24.7533H72.3362V31.9994H70.8174V16.0005H72.3362V23.2222H81.8891V16.0005H83.4112Z" fill="#1D1D1B"/>
<path d="M91.705 31.9994H90.1846V16.0005H91.705V31.9994Z" fill="#1D1D1B"/>
<path d="M109.572 20.4568C109.572 22.9254 107.502 24.913 104.975 24.913H100.049V31.9994H98.5303V16.0005H104.97C107.502 16.0005 109.572 17.9881 109.572 20.4568ZM108.054 20.4568C108.054 18.8344 106.673 17.5087 104.97 17.5087H100.044V23.4048H104.97C106.673 23.4048 108.054 22.0792 108.054 20.4568Z" fill="#1D1D1B"/>
<path d="M116.155 17.5087V23.245H125.246V24.7533H116.155V30.4911H125.678V31.9994H114.636V16.0005H125.684V17.5087H116.155Z" fill="#1D1D1B"/>
<path d="M141.347 30.4911V31.9994H130.875V16.0005H132.394V30.4911H141.347Z" fill="#1D1D1B"/>
<path d="M155.219 26.4914H148.407L146.197 31.9994H144.555L150.999 16.0005H152.641L159.063 31.9994H157.421L155.219 26.4914ZM154.644 25.0516L151.812 18.0403L148.981 25.0516H154.644Z" fill="#1D1D1B"/>
<path d="M178.236 23.9087C178.255 25.9488 177.525 27.9259 176.181 29.4691C174.837 31.0122 172.972 32.0153 170.936 32.2901C168.9 32.5649 166.833 32.0925 165.123 30.9617C163.413 29.8308 162.178 28.1191 161.648 26.1477C161.119 24.1764 161.332 22.081 162.248 20.2546C163.163 18.4283 164.719 16.9965 166.622 16.228C168.525 15.4595 170.645 15.4071 172.585 16.0806C174.524 16.7541 176.149 18.1072 177.155 19.8861L175.842 20.6166C175.05 19.1838 173.766 18.0814 172.224 17.5103C170.682 16.9392 168.985 16.9375 167.441 17.5055C165.898 18.0735 164.612 19.1734 163.817 20.6046C163.023 22.0357 162.773 23.7029 163.112 25.302C163.452 26.9011 164.36 28.3256 165.669 29.3158C166.978 30.306 168.602 30.7959 170.245 30.6961C171.888 30.5964 173.439 29.9137 174.618 28.7725C175.796 27.6313 176.521 26.1076 176.663 24.4793H168.317V22.9711H178.236V23.9087Z" fill="#1D1D1B"/>
<path d="M190.015 32.319C188.357 32.3226 186.736 31.8374 185.356 30.9249C183.976 30.0125 182.9 28.7138 182.264 27.1935C181.628 25.6732 181.461 23.9996 181.783 22.3847C182.106 20.7699 182.904 19.2866 184.076 18.1226C185.249 16.9586 186.743 16.1663 188.369 15.8462C189.995 15.5261 191.68 15.6925 193.211 16.3244C194.742 16.9563 196.049 18.0252 196.968 19.3957C197.887 20.7661 198.375 22.3765 198.371 24.0228C198.366 26.2218 197.484 28.3292 195.918 29.884C194.352 31.4388 192.229 32.3143 190.015 32.319ZM190.015 17.212C188.661 17.2098 187.336 17.6064 186.209 18.3516C185.082 19.0969 184.203 20.1573 183.682 21.3989C183.162 22.6404 183.024 24.0073 183.286 25.3267C183.548 26.6461 184.198 27.8587 185.154 28.8112C186.11 29.7637 187.329 30.4133 188.657 30.6779C189.984 30.9425 191.361 30.8101 192.613 30.2976C193.865 29.785 194.936 28.9153 195.69 27.7984C196.444 26.6815 196.848 25.3676 196.851 24.0228C196.846 22.2218 196.125 20.4953 194.845 19.2197C193.565 17.944 191.829 17.2224 190.015 17.212Z" fill="#1D1D1B"/>
<path d="M122.608 9.85641L117.909 12.5378L118.669 13.85L123.367 11.1686L122.608 9.85641Z" fill="#1D1D1B"/>
</svg>
