<svg width="100" height="100" fill="none" xmlns="http://www.w3.org/2000/svg"><path d="M83.43 29.551c1.93.791 3.178-2.023 1.328-2.985C69.96 10.861 56.83 4.046 45.689 6.325 34.251 8.66 29.026 19.739 27.911 22.435c-4.695 2.427-7.719 4.91-7.972 5.123-1.547 1.315.427 3.703 2.008 2.39.055-.045 2.625-2.16 6.694-4.35 3.965 5.866 14.76 13.996 27.648 9.974 10.419-2.922 24.302-5.828 27.14-6.02zm-51.97-5.357c4.515-2.052 10.235-3.772 16.29-3.36a1.563 1.563 0 00.21-3.119c-5.687-.38-11.026.9-15.494 2.65C34.74 16.5 39.2 10.83 46.337 9.382c9.547-1.933 21.079 3.914 34.291 17.395-7.272 1.25-18.445 3.896-25.184 5.788-13.352 3.74-21.347-4.842-23.983-8.37zm58.974 14.243c.22-2.026-2.948-2.601-3.239-.45-1.626 2.34-11.34 12.852-19.276 20.375-11.796 11.177-7.794 24.86-6.113 29.149-3.976 2.392-7.11 3.525-7.178 3.548-1.639.538-1.205 3.075.516 3.04 1.115-.141 3.922-1.32 8.98-4.305.85.13 2.457.328 4.528.328 24.73-.578 29.34-23.019 21.782-51.685zm-6.004 42.49c-4.933 5.223-11.872 6.093-16.235 6.043 3.819-2.958 7.707-6.92 10.372-12.062.914-1.84-1.798-3.246-2.773-1.438-2.82 5.436-7.246 9.485-11.325 12.324-1.585-4.197-4.505-15.59 5.598-25.164 5.106-4.835 13.144-13.11 18-18.729 4.399 18.69 3.177 31.811-3.637 39.025zM45.372 91.058c-.067-.023-3.202-1.156-7.178-3.548 1.68-4.288 5.682-17.972-6.113-29.149-7.936-7.523-17.65-18.036-19.276-20.375a1.571 1.571 0 00-1.216-1.353c-1.053-.24-2.187.711-2.023 1.803C4.117 59.69 5.378 74.71 13.317 83.093c7.166 7.143 15.469 7.518 22.56 6.7 5.085 3.025 7.821 4.104 8.98 4.304 1.704.017 2.171-2.478.515-3.039zM15.57 80.926c-6.814-7.214-8.036-20.336-3.637-39.025 4.864 5.63 12.886 13.888 18 18.729 10.103 9.575 7.183 20.967 5.598 25.164-4.078-2.838-8.506-6.888-11.325-12.324-.978-1.808-3.687-.398-2.773 1.438 2.665 5.142 6.553 9.104 10.372 12.062-4.364.05-11.302-.822-16.235-6.044z" fill="#3391AC"/></svg>