<svg width="100" height="100" viewBox="0 0 100 100" fill="none" xmlns="http://www.w3.org/2000/svg">
<path d="M67.7078 24.5703C64.919 22.0566 61.6252 20.1679 58.0471 19.0307C54.469 17.8936 50.6892 17.5341 46.9609 17.9766C41.1446 18.6728 35.718 21.2606 31.5158 25.3419C27.3137 29.4232 24.5687 34.772 23.7031 40.5656C22.9189 45.9268 23.7995 51.3996 26.2258 56.2442C28.6522 61.0888 32.5073 65.0717 37.2703 67.6547C38.0049 68.0565 38.6178 68.6486 39.0448 69.3689C39.4717 70.0892 39.697 70.9111 39.6969 71.7484V81.1422C39.7001 82.1082 40.0022 83.0496 40.5617 83.8371C41.1212 84.6246 41.9107 85.2197 42.8219 85.5406V86.5719C42.8219 88.4756 43.5781 90.3014 44.9243 91.6476C46.2705 92.9937 48.0962 93.75 50 93.75C51.9038 93.75 53.7295 92.9937 55.0757 91.6476C56.4219 90.3014 57.1781 88.4756 57.1781 86.5719V85.5406C58.0893 85.2197 58.8788 84.6246 59.4383 83.8371C59.9978 83.0496 60.2999 82.1082 60.3031 81.1422V71.75C60.2989 70.9177 60.5192 70.0997 60.9407 69.382C61.3623 68.6643 61.9695 68.0736 62.6984 67.6719C62.8813 67.5752 63.043 67.4431 63.1744 67.2834C63.3058 67.1237 63.4042 66.9395 63.4639 66.7414C63.5235 66.5434 63.5433 66.3355 63.522 66.1298C63.5007 65.9241 63.4387 65.7246 63.3398 65.543C63.2408 65.3614 63.1068 65.2013 62.9454 65.0719C62.7841 64.9425 62.5987 64.8464 62.3999 64.7892C62.2012 64.732 61.993 64.7148 61.7876 64.7387C61.5821 64.7625 61.3835 64.8269 61.2031 64.9281C59.9807 65.5981 58.9617 66.5854 58.2533 67.786C57.5449 68.9866 57.1735 70.356 57.1781 71.75V73.7312H42.8219V71.7484C42.8221 70.3503 42.446 68.9778 41.7332 67.7751C41.0203 66.5723 39.9969 65.5835 38.7703 64.9125C34.4194 62.5376 30.9334 58.8444 28.8135 54.3636C26.6936 49.8829 26.0489 44.8454 26.972 39.9753C27.8952 35.1051 30.3387 30.653 33.9513 27.2589C37.5639 23.8647 42.1596 21.7034 47.0778 21.0855C51.996 20.4675 56.9836 21.4249 61.3235 23.8198C65.6634 26.2148 69.1323 29.9241 71.2315 34.4145C73.3307 38.905 73.9522 43.9454 73.0066 48.8113C72.061 53.6771 69.597 58.1179 65.9688 61.4953C65.6652 61.7775 65.4862 62.1688 65.4711 62.5829C65.456 62.9971 65.6061 63.4004 65.8883 63.7039C66.1705 64.0075 66.5617 64.1865 66.9759 64.2016C67.3901 64.2166 67.7933 64.0666 68.0969 63.7844C70.7997 61.271 72.9484 58.2214 74.4056 54.8304C75.8628 51.4394 76.5964 47.7817 76.5597 44.0911C76.5229 40.4005 75.7165 36.7581 74.1921 33.3968C72.6676 30.0356 70.4602 27.0293 67.7078 24.5703ZM50 90.625C48.9254 90.6238 47.8952 90.1963 47.1354 89.4365C46.3755 88.6767 45.9481 87.6464 45.9469 86.5719V85.8297H54.0531V86.5719C54.0519 87.6464 53.6245 88.6767 52.8646 89.4365C52.1048 90.1963 51.0746 90.6238 50 90.625ZM57.1781 76.8562V81.1422C57.1777 81.5565 57.013 81.9537 56.72 82.2466C56.4271 82.5395 56.0299 82.7043 55.6156 82.7047H44.3844C43.9701 82.7043 43.5729 82.5395 43.28 82.2466C42.987 81.9537 42.8223 81.5565 42.8219 81.1422V76.8562H57.1781ZM50 14.45C50.4144 14.45 50.8118 14.2854 51.1049 13.9924C51.3979 13.6993 51.5625 13.3019 51.5625 12.8875V7.8125C51.5625 7.3981 51.3979 7.00067 51.1049 6.70765C50.8118 6.41462 50.4144 6.25 50 6.25C49.5856 6.25 49.1882 6.41462 48.8951 6.70765C48.6021 7.00067 48.4375 7.3981 48.4375 7.8125V12.8875C48.4375 13.3019 48.6021 13.6993 48.8951 13.9924C49.1882 14.2854 49.5856 14.45 50 14.45ZM78.7266 19.0641L75.1375 22.6531C74.8529 22.9478 74.6954 23.3425 74.699 23.7522C74.7025 24.1619 74.8668 24.5538 75.1565 24.8435C75.4462 25.1332 75.8381 25.2975 76.2478 25.3011C76.6575 25.3046 77.0522 25.1471 77.3469 24.8625L80.9359 21.2734C81.2206 20.9787 81.3781 20.5841 81.3745 20.1744C81.3709 19.7647 81.2066 19.3728 80.9169 19.0831C80.6272 18.7934 80.2353 18.6291 79.8256 18.6255C79.4159 18.622 79.0212 18.7794 78.7266 19.0641ZM92.1875 48.4375H87.1125C86.6981 48.4375 86.3007 48.6021 86.0076 48.8951C85.7146 49.1882 85.55 49.5856 85.55 50C85.55 50.4144 85.7146 50.8118 86.0076 51.1049C86.3007 51.3979 86.6981 51.5625 87.1125 51.5625H92.1875C92.6019 51.5625 92.9993 51.3979 93.2924 51.1049C93.5854 50.8118 93.75 50.4144 93.75 50C93.75 49.5856 93.5854 49.1882 93.2924 48.8951C92.9993 48.6021 92.6019 48.4375 92.1875 48.4375ZM77.3469 75.1375C77.0522 74.8529 76.6575 74.6954 76.2478 74.699C75.8381 74.7025 75.4462 74.8668 75.1565 75.1565C74.8668 75.4462 74.7025 75.8381 74.699 76.2478C74.6954 76.6575 74.8529 77.0522 75.1375 77.3469L78.7266 80.9359C79.0212 81.2206 79.4159 81.3781 79.8256 81.3745C80.2353 81.3709 80.6272 81.2066 80.9169 80.9169C81.2066 80.6272 81.3709 80.2353 81.3745 79.8256C81.3781 79.4159 81.2206 79.0212 80.9359 78.7266L77.3469 75.1375ZM22.6531 24.8625C22.9478 25.1471 23.3425 25.3046 23.7522 25.3011C24.1619 25.2975 24.5538 25.1332 24.8435 24.8435C25.1332 24.5538 25.2975 24.1619 25.3011 23.7522C25.3046 23.3425 25.1471 22.9478 24.8625 22.6531L21.2734 19.0625C20.9787 18.7779 20.5841 18.6204 20.1744 18.6239C19.7647 18.6275 19.3728 18.7918 19.0831 19.0815C18.7934 19.3712 18.6291 19.7631 18.6255 20.1728C18.622 20.5825 18.7794 20.9772 19.0641 21.2719L22.6531 24.8625ZM12.8875 48.4375H7.8125C7.3981 48.4375 7.00067 48.6021 6.70765 48.8951C6.41462 49.1882 6.25 49.5856 6.25 50C6.25 50.4144 6.41462 50.8118 6.70765 51.1049C7.00067 51.3979 7.3981 51.5625 7.8125 51.5625H12.8875C13.3019 51.5625 13.6993 51.3979 13.9924 51.1049C14.2854 50.8118 14.45 50.4144 14.45 50C14.45 49.5856 14.2854 49.1882 13.9924 48.8951C13.6993 48.6021 13.3019 48.4375 12.8875 48.4375ZM22.6531 75.1375L19.0625 78.7266C18.7779 79.0212 18.6204 79.4159 18.6239 79.8256C18.6275 80.2353 18.7918 80.6272 19.0815 80.9169C19.3712 81.2066 19.7631 81.3709 20.1728 81.3745C20.5825 81.3781 20.9772 81.2206 21.2719 80.9359L24.8609 77.3469C25.1456 77.0522 25.303 76.6575 25.2995 76.2478C25.2959 75.8381 25.1316 75.4462 24.8419 75.1565C24.5522 74.8668 24.1603 74.7025 23.7506 74.699C23.3409 74.6954 22.9463 74.8529 22.6516 75.1375H22.6531Z" fill="#3391AC"/>
<path d="M59.7281 35.6953C59.4351 35.4023 59.0378 35.2378 58.6234 35.2378C58.2091 35.2378 57.8118 35.4023 57.5187 35.6953L46.4 46.814L42.4812 42.8968C42.1882 42.6039 41.7909 42.4394 41.3766 42.4394C40.9622 42.4394 40.5649 42.6039 40.2719 42.8968L35.8531 47.3156C35.5602 47.6086 35.3956 48.006 35.3956 48.4203C35.3956 48.8346 35.5602 49.2319 35.8531 49.525L38.1312 51.8046C38.4259 52.0893 38.8206 52.2468 39.2303 52.2432C39.64 52.2396 40.0319 52.0753 40.3216 51.7856C40.6113 51.4959 40.7756 51.104 40.7792 50.6943C40.7827 50.2847 40.6252 49.89 40.3406 49.5953L39.1672 48.4203L41.3766 46.2109L45.2953 50.1281C45.5883 50.421 45.9857 50.5856 46.4 50.5856C46.8143 50.5856 47.2117 50.421 47.5047 50.1281L58.6234 39.0093L60.8328 41.2187L46.4 55.6515L44.2406 53.4921C43.9474 53.199 43.5498 53.0342 43.1352 53.0342C42.7205 53.0342 42.3229 53.199 42.0297 53.4921C41.7365 53.7853 41.5718 54.183 41.5718 54.5976C41.5718 55.0122 41.7365 55.4099 42.0297 55.7031L45.2953 58.9671C45.5883 59.2601 45.9857 59.4246 46.4 59.4246C46.8143 59.4246 47.2117 59.2601 47.5047 58.9671L64.1469 42.3234C64.4398 42.0304 64.6044 41.633 64.6044 41.2187C64.6044 40.8044 64.4398 40.407 64.1469 40.114L59.7281 35.6953Z" fill="#3391AC"/>
</svg>
