<svg width="100" height="100" fill="none" xmlns="http://www.w3.org/2000/svg"><g clip-path="url(#clip0_136_2906)" fill="#3391AC"><path d="M99.428 37.276L62.724.572c-.763-.763-2-.763-2.763 0L46.917 13.616a1.953 1.953 0 102.762 2.763L61.313 4.745c18.111 19.568 17.663 50.221-1.351 69.236-5.696 5.695-13.262 8.832-21.305 8.832-7.388 0-14.373-2.65-19.876-7.496l15.902-15.903.002-.002.002-.002 3.971-3.97 11.22 11.219a1.946 1.946 0 002.128.424 1.953 1.953 0 00.633-3.186L27.4 38.657 38.937 27.12a1.952 1.952 0 10-2.762-2.762L14.592 45.941l-.001.001-.002.001L.572 59.961c-.763.763-.763 2 0 2.763l14.015 14.015.004.004.005.004 22.68 22.68a1.947 1.947 0 002.13.425c.237-.099.452-.243.633-.424l59.389-59.389c.763-.763.763-2 0-2.763zm-67.504 11.43a5.624 5.624 0 01.002 7.94l-.005.006a2.733 2.733 0 01-3.86-.002l-9.196-9.196a10.224 10.224 0 015.773-1.77c2.75 0 5.335 1.072 7.283 3.018l.003.004zM16.05 50.162l9.25 9.249v.001l.002.002 1.93 1.929-11.182 11.18a17.732 17.732 0 01-3.935-11.18c0-4.115 1.387-8.017 3.935-11.181zm8.59-8.742l.376.376a15.494 15.494 0 00-.753 0l.376-.376zM4.715 61.343l3.826-3.827a22.022 22.022 0 000 7.653l-3.826-3.826zm33.942 33.942l-10.08-10.079a34.1 34.1 0 0010.08 1.513c3.467 0 6.856-.517 10.08-1.514l-10.08 10.08zM74.26 59.682c2.785-6.565 4.25-13.683 4.25-21.025 0-7.34-1.464-14.458-4.25-21.023l21.024 21.024L74.26 59.682z"/><path d="M42.99 22.258a1.96 1.96 0 001.381-.572c.365-.368.57-.864.572-1.381 0-.515-.209-1.018-.572-1.381a1.967 1.967 0 00-1.38-.572 1.969 1.969 0 00-1.382.572c-.365.367-.57.863-.572 1.38 0 .514.21 1.018.572 1.382.367.365.863.57 1.381.572zM57.262 71.28c.363-.363.572-.867.572-1.38 0-.514-.209-1.018-.572-1.382a1.967 1.967 0 00-1.381-.572 1.969 1.969 0 00-1.381.572 1.969 1.969 0 00-.572 1.381c0 .513.209 1.018.572 1.381s.867.572 1.38.572c.514 0 1.018-.209 1.382-.572z"/></g><defs><clipPath id="clip0_136_2906"><path fill="#fff" d="M0 0h100v100H0z"/></clipPath></defs></svg>