<svg width="100" height="100" fill="none" xmlns="http://www.w3.org/2000/svg"><path d="M50 12.776c-13.208 0-23.954 10.746-23.954 23.955 0 13.208 10.746 23.954 23.955 23.954 13.209 0 23.955-10.746 23.955-23.954 0-13.209-10.746-23.955-23.955-23.955zm0 44.716c-11.446 0-20.76-9.314-20.76-20.761 0-11.448 9.314-20.761 20.76-20.761 11.448 0 20.762 9.313 20.762 20.76 0 11.448-9.314 20.762-20.761 20.762z" fill="#3391AC"/><path d="M50 19.164c-9.685 0-17.566 7.881-17.566 17.567s7.881 17.567 17.567 17.567 17.567-7.881 17.567-17.567S59.687 19.164 50 19.164zm0 31.94c-7.925 0-14.372-6.447-14.372-14.373 0-7.926 6.447-14.373 14.373-14.373 7.926 0 14.373 6.447 14.373 14.373 0 7.926-6.447 14.373-14.373 14.373z" fill="#3391AC"/><path d="M85.04 40.752l-3.853-2.739a1.558 1.558 0 01-.674-1.282c0-.511.244-.976.672-1.281l3.855-2.74a3.976 3.976 0 001.586-4.16 4.05 4.05 0 00-3.245-3.053l-4.692-.835a1.653 1.653 0 01-1.215-.907 1.509 1.509 0 01.04-1.404l2.255-4.1a3.963 3.963 0 00-.407-4.432 4.107 4.107 0 00-4.247-1.36l-4.593 1.232a1.706 1.706 0 01-1.531-.316 1.55 1.55 0 01-.594-1.289l.209-4.65a4.003 4.003 0 00-2.317-3.806 4.127 4.127 0 00-4.42.586l-3.593 3.058a1.719 1.719 0 01-1.504.363 1.637 1.637 0 01-1.151-.938l-1.878-4.276A4.075 4.075 0 0050 0a4.075 4.075 0 00-3.742 2.423l-1.878 4.28a1.639 1.639 0 01-1.151.935 1.721 1.721 0 01-1.505-.362l-3.591-3.057a4.127 4.127 0 00-4.42-.587 4.008 4.008 0 00-2.32 3.805l.21 4.65a1.55 1.55 0 01-.593 1.29 1.709 1.709 0 01-1.531.316l-4.595-1.233a4.111 4.111 0 00-4.246 1.357 3.96 3.96 0 00-.409 4.433l2.255 4.101c.33.602.166 1.14.04 1.404-.232.48-.674.811-1.217.907l-4.692.835c-1.605.29-2.88 1.487-3.243 3.05a3.984 3.984 0 001.587 4.164l3.852 2.737a1.558 1.558 0 01.002 2.563l-3.856 2.74a3.976 3.976 0 00-1.585 4.16 4.05 4.05 0 003.245 3.053l4.692.835c.54.098.983.428 1.215.907.126.265.29.802-.04 1.404l-2.255 4.1a3.963 3.963 0 00.407 4.433 4.11 4.11 0 004.247 1.359l4.596-1.233c.547-.14 1.1-.029 1.531.316.4.321.617.79.594 1.289l-.209 4.65a4.003 4.003 0 002.317 3.806 4.13 4.13 0 004.42-.586l3.592-3.059a1.719 1.719 0 011.505-.362c.524.121.944.462 1.151.937l1.878 4.277A4.074 4.074 0 0050 73.461a4.075 4.075 0 003.742-2.422l1.878-4.28a1.64 1.64 0 011.151-.936 1.713 1.713 0 011.505.362l3.591 3.057a4.13 4.13 0 004.42.588 4.008 4.008 0 002.32-3.806l-.21-4.65a1.55 1.55 0 01.593-1.289 1.72 1.72 0 011.531-.316l4.595 1.233a4.115 4.115 0 004.246-1.358 3.96 3.96 0 00.409-4.433l-2.255-4.101a1.509 1.509 0 01-.04-1.404c.232-.48.674-.811 1.217-.907l4.692-.835c1.605-.29 2.88-1.487 3.243-3.05a3.987 3.987 0 00-1.589-4.162zm-1.52 3.435a.865.865 0 01-.7.632l-4.688.836a4.862 4.862 0 00-3.538 2.675 4.674 4.674 0 00.124 4.318l2.254 4.102a.771.771 0 01-.084.874.91.91 0 01-.946.294l-4.596-1.233a4.942 4.942 0 00-4.358.912 4.71 4.71 0 00-1.782 3.92l.21 4.648a.817.817 0 01-.486.773.924.924 0 01-.99-.128l-3.594-3.058a4.88 4.88 0 00-4.292-1.042 4.808 4.808 0 00-3.36 2.765l-1.879 4.28c-.271.62-1.36.623-1.63-.002l-1.878-4.277a4.802 4.802 0 00-3.36-2.766 5.039 5.039 0 00-1.128-.127 4.858 4.858 0 00-3.163 1.169l-3.595 3.06a.92.92 0 01-.989.126.818.818 0 01-.483-.77l.209-4.65a4.713 4.713 0 00-1.784-3.923 4.95 4.95 0 00-4.358-.91l-4.598 1.233a.914.914 0 01-.942-.292.785.785 0 01-.087-.877l2.255-4.101a4.674 4.674 0 00.123-4.318 4.862 4.862 0 00-3.535-2.675l-4.69-.836a.857.857 0 01-.699-.635.8.8 0 01.328-.83l3.855-2.741a4.717 4.717 0 002.015-3.884c0-1.557-.734-2.972-2.017-3.885l-3.852-2.738a.8.8 0 01-.329-.833.858.858 0 01.698-.633l4.69-.835a4.862 4.862 0 003.536-2.675 4.675 4.675 0 00-.123-4.318l-2.255-4.103a.772.772 0 01.087-.875.918.918 0 01.944-.292l4.596 1.233a4.95 4.95 0 004.358-.912 4.71 4.71 0 001.782-3.92l-.21-4.648a.817.817 0 01.486-.773.924.924 0 01.99.128l3.594 3.058a4.877 4.877 0 004.292 1.041 4.808 4.808 0 003.36-2.764l1.879-4.28c.271-.621 1.36-.623 1.63.002l1.878 4.276a4.802 4.802 0 003.36 2.766 4.881 4.881 0 004.293-1.04l3.595-3.06a.92.92 0 01.988-.127.819.819 0 01.484.77l-.21 4.65a4.713 4.713 0 001.785 3.922 4.952 4.952 0 004.358.91l4.598-1.232a.91.91 0 01.942.292c.206.252.24.596.086.877l-2.255 4.1a4.675 4.675 0 00-.123 4.32c.67 1.4 1.992 2.4 3.536 2.674l4.689.835a.86.86 0 01.7.636.8.8 0 01-.328.83l-3.855 2.74a4.717 4.717 0 00-2.016 3.885c0 1.557.735 2.972 2.017 3.885l3.854 2.739a.8.8 0 01.327.832z" fill="#3391AC"/><path d="M50 23.54l-3.877 7.855-8.666 1.259 6.271 6.114-1.48 8.634L50 43.326l7.752 4.077-1.48-8.633 6.27-6.115-8.666-1.258L50 23.54zm3.511 18.023l-3.51-1.846-3.51 1.846.669-3.91-2.84-2.768 3.926-.569L50 30.758l1.757 3.558 3.925.569-2.84 2.767.668 3.911zm10.863 53.27l-3.194-1.598V70.267h-3.194v21.371L50 87.646l-7.985 3.992v-21.37h-3.194v22.967l-3.194 1.597v-21.37h-3.194V100L50 91.217 67.568 100V73.461h-3.194v21.371z" fill="#3391AC"/></svg>