<svg width="100" height="100" fill="none" xmlns="http://www.w3.org/2000/svg"><g clip-path="url(#clip0_136_2942)" fill="#3391AC"><path d="M16.129 25.806h6.452v3.226h-6.452v-3.226zm9.677 0H38.71v3.226H25.806v-3.226zm56.452-12.903a4.845 4.845 0 00-4.839 4.839 4.845 4.845 0 004.84 4.839 4.845 4.845 0 004.838-4.839 4.845 4.845 0 00-4.839-4.839zm0 6.452a1.616 1.616 0 01-1.613-1.613c0-.889.724-1.613 1.613-1.613s1.613.724 1.613 1.613-.724 1.613-1.613 1.613z"/><path d="M97.834 22.58H100v-9.677h-2.166c-1 0-1.394-.761-1.49-.995-.097-.234-.358-1.05.35-1.758l1.532-1.532-6.844-6.844-1.532 1.532a1.584 1.584 0 01-1.758.35 1.58 1.58 0 01-.995-1.49V0h-9.678v2.166a1.581 1.581 0 01-.995 1.49c-.235.096-1.051.359-1.758-.35l-1.532-1.532-4.676 4.678H19.355a3.23 3.23 0 00-3.226 3.225H9.677a3.23 3.23 0 00-3.225 3.226v3.226H3.226A3.23 3.23 0 000 19.355v54.839a3.23 3.23 0 003.226 3.225h9.677v3.226a3.23 3.23 0 003.226 3.226h.898l-3.846 10.261A4.348 4.348 0 0017.247 100h.563a4.367 4.367 0 003.724-2.108l8.411-14.021h33.658l8.413 14.02A4.366 4.366 0 0075.74 100h.563a4.348 4.348 0 004.067-5.87l-3.848-10.259h.898a3.23 3.23 0 003.226-3.226V77.42h9.678a3.23 3.23 0 003.225-3.225V31.542l4.676-4.676-1.532-1.532c-.706-.707-.447-1.524-.35-1.758.097-.234.492-.995 1.492-.995zM19.354 9.678H67.35l.473.473c.706.707.446 1.524.35 1.758-.097.234-.49.995-1.49.995h-2.167v6.452H19.355V9.677zm-9.677 3.226h6.452v3.226H9.677v-3.226zm9.09 83.33a1.127 1.127 0 01-.957.541h-.563a1.12 1.12 0 01-1.047-1.511l4.273-11.392h5.71l-7.415 12.361zm58.581-.97a1.12 1.12 0 01-1.046 1.511h-.563a1.123 1.123 0 01-.958-.542l-7.416-12.361h5.71l4.273 11.392zm.071-14.618H16.13V77.42h61.29v3.226zM3.226 74.194v-54.84h12.903a3.229 3.229 0 003.226 3.227h47.327c1 0 1.394.76 1.49.995.097.234.359 1.05-.35 1.758l-1.532 1.532 6.844 6.844 1.532-1.533c.708-.706 1.524-.446 1.758-.35.234.097.995.49.995 1.49v34.425h-3.225v3.226h9.677v-3.226h-3.226V35.484h6.452v-2.166a1.581 1.581 0 01.995-1.49 1.576 1.576 0 011.758.35l.473.472v41.544H3.226zm90.137-51.852a4.75 4.75 0 00.379 4.445l-2.439 2.439a4.746 4.746 0 00-4.445-.38 4.75 4.75 0 00-2.876 3.412h-3.45a4.753 4.753 0 00-2.876-3.411 4.754 4.754 0 00-4.445.379l-2.438-2.439c.848-1.313 1.003-2.939.379-4.445-.625-1.506-1.883-2.547-3.412-2.876v-3.448c1.528-.33 2.787-1.37 3.412-2.876.624-1.506.469-3.13-.38-4.445l2.44-2.439a4.763 4.763 0 004.444.38 4.753 4.753 0 002.878-3.412h3.45a4.752 4.752 0 002.876 3.411 4.745 4.745 0 004.445-.379l2.438 2.439a4.75 4.75 0 00-.378 4.445 4.748 4.748 0 003.41 2.876v3.45a4.75 4.75 0 00-3.412 2.874z"/><path d="M82.258 6.452c-6.226 0-11.29 5.064-11.29 11.29 0 6.226 5.064 11.29 11.29 11.29 6.226 0 11.29-5.064 11.29-11.29 0-6.226-5.064-11.29-11.29-11.29zm0 19.355c-4.447 0-8.064-3.618-8.064-8.065 0-4.447 3.617-8.065 8.064-8.065s8.065 3.618 8.065 8.065c0 4.447-3.618 8.064-8.065 8.064zM66.4 33.153l1.555 2.33H12.69l1.555-2.33-2.684-1.79-3.822 5.734 3.822 5.734 2.684-1.79-1.555-2.331h55.265L66.4 41.04l2.684 1.79 3.822-5.733-3.822-5.734-2.684 1.79z"/><path d="M61.763 43.353a4.804 4.804 0 00-3.423-1.418H24.194v.049c-1.404 0-2.807.463-3.887 1.39l-9.294 7.966a3.816 3.816 0 00-1.336 2.902c0 1.903 1.402 3.474 3.226 3.763v12.963h54.839V57.997a3.891 3.891 0 003.226-3.826c0-1.04-.405-2.018-1.14-2.753l-8.065-8.065zM13.11 53.79l9.294-7.967a2.75 2.75 0 013.576 0l9.293 7.967a.596.596 0 01-.387 1.05H13.5a.596.596 0 01-.389-1.05zm3.018 4.276h16.13v9.677h-3.227v-3.226a3.23 3.23 0 00-3.226-3.226H22.58a3.23 3.23 0 00-3.226 3.226v3.226h-3.226v-9.678zm9.677 9.677H22.58v-3.226h3.226v3.226zm19.355 0h-3.226v-3.226h3.226v3.226zm12.904 0h-3.226v-3.226h3.226v3.226zm3.225 0v-3.226a3.229 3.229 0 00-3.225-3.226h-3.226a3.23 3.23 0 00-3.226 3.226v3.226h-3.226v-3.226a3.23 3.23 0 00-3.226-3.226h-3.226a3.23 3.23 0 00-3.225 3.226v3.226h-3.226v-9.678h29.032v9.678H61.29zm5.784-12.903H38.65c.03-.195.06-.392.06-.597a3.814 3.814 0 00-1.336-2.902l-7.208-6.179H58.34c.431 0 .837.168 1.142.473l8.065 8.064a.669.669 0 01-.473 1.14zM41.935 29.032h3.226v3.226h-3.226v-3.226zm6.452 0h3.226v3.226h-3.226v-3.226zm6.452 0h3.226v3.226h-3.226v-3.226z"/></g><defs><clipPath id="clip0_136_2942"><path fill="#fff" d="M0 0h100v100H0z"/></clipPath></defs></svg>