<svg width="100" height="100" fill="none" xmlns="http://www.w3.org/2000/svg"><path d="M67.708 24.57a26.35 26.35 0 00-20.747-6.593 26.728 26.728 0 00-23.258 22.589A26.46 26.46 0 0037.27 67.655a4.666 4.666 0 012.427 4.093v9.394a4.68 4.68 0 003.125 4.399v1.03a7.178 7.178 0 1014.356 0v-1.03a4.68 4.68 0 003.125-4.399V71.75a4.63 4.63 0 012.395-4.078 1.562 1.562 0 10-1.495-2.744 7.75 7.75 0 00-4.025 6.822v1.981H42.822v-1.983a7.791 7.791 0 00-4.052-6.836 23.437 23.437 0 1127.199-3.417 1.563 1.563 0 102.128 2.29 26.532 26.532 0 00-.39-39.215zM50 90.625a4.058 4.058 0 01-4.053-4.053v-.742h8.106v.742A4.057 4.057 0 0150 90.625zm7.178-13.769v4.286a1.564 1.564 0 01-1.562 1.563H44.384a1.564 1.564 0 01-1.562-1.563v-4.286h14.356zM50 14.45a1.563 1.563 0 001.563-1.563V7.812a1.563 1.563 0 10-3.126 0v5.075A1.563 1.563 0 0050 14.45zm28.727 4.614l-3.59 3.59a1.562 1.562 0 002.21 2.209l3.589-3.59a1.562 1.562 0 00-2.21-2.209zm13.46 29.373h-5.075a1.563 1.563 0 000 3.126h5.076a1.563 1.563 0 000-3.126zm-14.84 26.7a1.562 1.562 0 00-2.21 2.21l3.59 3.589a1.562 1.562 0 002.209-2.21l-3.59-3.588zM22.653 24.863a1.563 1.563 0 002.21-2.209l-3.59-3.59a1.563 1.563 0 00-2.209 2.209l3.59 3.59zm-9.765 23.576H7.812a1.563 1.563 0 100 3.124h5.074a1.563 1.563 0 000-3.124zm9.765 26.7l-3.59 3.589a1.563 1.563 0 002.209 2.209l3.589-3.59a1.563 1.563 0 00-2.21-2.209h.002z" fill="#3391AC"/><path d="M59.728 35.695a1.562 1.562 0 00-2.21 0L46.4 46.814l-3.919-3.917a1.562 1.562 0 00-2.21 0l-4.418 4.419a1.563 1.563 0 000 2.209l2.278 2.28a1.562 1.562 0 002.21-2.21l-1.174-1.175 2.21-2.21 3.918 3.918a1.563 1.563 0 002.21 0L58.623 39.01l2.21 2.21L46.4 55.65l-2.16-2.159a1.564 1.564 0 00-2.21 2.211l3.265 3.264a1.562 1.562 0 002.21 0l16.642-16.644a1.563 1.563 0 000-2.209l-4.419-4.419z" fill="#3391AC"/></svg>