<svg width="100" height="100" fill="none" xmlns="http://www.w3.org/2000/svg"><g clip-path="url(#clip0_136_2968)" fill-rule="evenodd" clip-rule="evenodd" fill="#3391AC"><path d="M21.755 1.805A6.162 6.162 0 0126.112 0h43.459a3.03 3.03 0 013.03 3.03V50a1.465 1.465 0 01-2.93 0V3.03a.1.1 0 00-.1-.1H26.112c-.857 0-1.68.34-2.285.946L10.922 16.782a3.233 3.233 0 00-.947 2.285v59.115a.1.1 0 00.1.1h32.88a1.465 1.465 0 010 2.93h-32.88a3.03 3.03 0 01-3.03-3.03V19.067c0-1.634.65-3.201 1.805-4.357L21.755 1.805z"/><path d="M24.167.72c.809 0 1.465.656 1.465 1.465V13.99a4.596 4.596 0 01-4.597 4.596H9.23a1.465 1.465 0 110-2.93h11.805c.92 0 1.667-.745 1.667-1.666V2.185c0-.81.656-1.465 1.465-1.465zm39.141 55.442c-7.838 0-14.192 6.354-14.192 14.192s6.354 14.191 14.192 14.191S77.5 78.192 77.5 70.354c0-7.838-6.354-14.192-14.192-14.192zM46.187 70.354c0-9.456 7.665-17.122 17.121-17.122s17.121 7.666 17.121 17.122-7.665 17.121-17.121 17.121-17.121-7.665-17.121-17.121z"/><path d="M31.995 26.616c.81 0 1.465.656 1.465 1.465v3.131a6.363 6.363 0 1012.727 0v-3.13a1.465 1.465 0 112.93 0v3.13a9.293 9.293 0 11-18.587 0v-3.13c0-.81.656-1.466 1.465-1.466zM73.554 80.6a1.465 1.465 0 012.071 0l3.34 3.34.07-.071h.001a3.031 3.031 0 014.285 0l8.746 8.745a3.03 3.03 0 010 4.286l-2.214 2.213a3.03 3.03 0 01-4.285 0l-8.746-8.745a3.03 3.03 0 010-4.285l.071-.072-3.34-3.339a1.465 1.465 0 010-2.072zm7.625 5.31a.101.101 0 00-.072.03l-2.213 2.214m2.285-2.243c.027 0 .052.01.071.03l-.071-.03zm.071.03l8.745 8.744m-11.101-6.388zm0 0l8.745 8.745a.102.102 0 00.072.03.102.102 0 00.07-.03l2.214-2.213"/><path d="M29.336 20.558c1.245-4.627 5.467-8.033 10.487-8.033 5.02 0 9.243 3.406 10.487 8.033l.067.026a3.031 3.031 0 011.87 2.8v3.131a3.03 3.03 0 01-3.03 3.03H30.43a3.03 3.03 0 01-3.03-3.03v-3.13a3.03 3.03 0 011.937-2.827zm1.215 2.725h18.666a.1.1 0 01.101.101v3.131a.1.1 0 01-.1.101h-18.79a.1.1 0 01-.1-.1v-3.132a.1.1 0 01.062-.093.1.1 0 01.038-.008h.122zm16.602-2.93a7.943 7.943 0 00-5.865-4.763v4.764h5.865zm-8.795 0h-5.865a7.943 7.943 0 015.865-4.763v4.764zM35.126 36.01c.81 0 1.465.656 1.465 1.465v3.569a3.03 3.03 0 01-2.072 2.875l-5.112 1.704a3.231 3.231 0 00-2.21 3.066v7.574a1.465 1.465 0 01-2.93 0v-7.574a6.162 6.162 0 014.214-5.846l5.111-1.704m1.534-5.129c-.809 0-1.465.656-1.465 1.465l1.465-1.465zm9.394 0c.81 0 1.465.656 1.465 1.465v3.569a.1.1 0 00.069.095m0 0l5.112 1.704a6.163 6.163 0 014.213 5.846V50a1.465 1.465 0 11-2.93 0v-1.31a3.231 3.231 0 00-2.21-3.066l-5.111-1.704a3.031 3.031 0 01-2.072-2.875v-3.569c0-.809.655-1.465 1.464-1.465m-10.859 1.465v3.569-3.569zm0 3.569z"/><path d="M50.884 10.859c0-.81.655-1.465 1.464-1.465h9.394a1.465 1.465 0 110 2.93h-9.394a1.465 1.465 0 01-1.464-1.465zm4.697 6.262c0-.809.655-1.464 1.464-1.464h4.697a1.465 1.465 0 110 2.93h-4.697a1.465 1.465 0 01-1.464-1.466zM31.817 42.43a1.465 1.465 0 012.05-.293l5.956 4.466 5.956-4.466a1.465 1.465 0 011.758 2.343l-6.249 4.687v7.096a1.465 1.465 0 11-2.93 0v-7.096L32.11 44.48a1.465 1.465 0 01-.293-2.05zm20.632 27.924c0-5.998 4.862-10.86 10.859-10.86 1.68 0 3.262.393 4.674 1.068a1.465 1.465 0 11-1.264 2.643 7.875 7.875 0 00-3.41-.78 7.93 7.93 0 00-7.93 7.929c0 1.218.284 2.37.781 3.41a1.465 1.465 0 11-2.643 1.263 10.804 10.804 0 01-1.067-4.673zM21.136 64.09c0-.81.656-1.465 1.465-1.465H41.39a1.465 1.465 0 110 2.93H22.6a1.465 1.465 0 01-1.465-1.465zm50.01.9a1.465 1.465 0 011.954.689 10.806 10.806 0 011.067 4.674c0 5.997-4.862 10.858-10.859 10.858-1.68 0-3.262-.392-4.674-1.067a1.465 1.465 0 011.264-2.643c1.04.497 2.192.78 3.41.78a7.93 7.93 0 007.93-7.928c0-1.219-.284-2.37-.781-3.41a1.465 1.465 0 01.69-1.954zm-50.01 5.363c0-.81.656-1.465 1.465-1.465H41.39a1.465 1.465 0 110 2.93H22.6a1.465 1.465 0 01-1.465-1.465zm64.935 16.992c.572.572.572 1.5 0 2.071l-3.7 3.7a1.465 1.465 0 01-2.07-2.072l3.698-3.7a1.465 1.465 0 012.072 0z"/></g><defs><clipPath id="clip0_136_2968"><path fill="#fff" d="M0 0h100v100H0z"/></clipPath></defs></svg>