<svg width="50" height="50" viewBox="0 0 50 50" fill="none" xmlns="http://www.w3.org/2000/svg">
<g clip-path="url(#clip0_75_119)">
<path d="M42.6916 16.6032L22.8208 2.03234C21.2688 0.895849 19.4323 0.211323 17.5151 0.0546365C15.5978 -0.10205 13.6746 0.275224 11.9587 1.14464C10.2427 2.01405 8.80101 3.34165 7.79337 4.98027C6.78574 6.61889 6.25152 8.50453 6.24995 10.4282V39.5844C6.24696 41.51 6.77838 43.3985 7.78505 45.04C8.79173 46.6814 10.2342 48.0112 11.9518 48.8815C13.6695 49.7518 15.5949 50.1283 17.5139 49.9692C19.4328 49.8101 21.2699 49.1215 22.8208 47.9803L42.6916 33.4094C44.0101 32.4418 45.0823 31.1774 45.8213 29.7184C46.5603 28.2594 46.9453 26.647 46.9453 25.0115C46.9453 23.3761 46.5603 21.7636 45.8213 20.3046C45.0823 18.8457 44.0101 17.5812 42.6916 16.6136V16.6032Z" fill="white"/>
</g>
<defs>
<clipPath id="clip0_75_119">
<rect width="50" height="50" fill="white"/>
</clipPath>
</defs>
</svg>
