<svg width="30" height="30" fill="none" xmlns="http://www.w3.org/2000/svg"><g clip-path="url(#clip0_158_2891)"><mask id="a" style="mask-type:luminance" maskUnits="userSpaceOnUse" x="0" y="0" width="30" height="30"><path d="M30 0H0v30h30V0z" fill="#fff"/><path d="M15 27.656A1.172 1.172 0 1015 30a1.172 1.172 0 000-2.344zm4.57 0a1.172 1.172 0 100 2.344 1.172 1.172 0 000-2.344zm-9.14 0a1.172 1.172 0 110 2.344 1.172 1.172 0 010-2.344zM15 17.344a1.172 1.172 0 100 2.343 1.172 1.172 0 000-2.343zm4.57 0a1.172 1.172 0 100 2.343 1.172 1.172 0 000-2.343zm-9.14 0a1.172 1.172 0 110 2.343 1.172 1.172 0 010-2.343z" fill="#fff"/></mask><g mask="url(#a)"><mask id="b" style="mask-type:luminance" maskUnits="userSpaceOnUse" x="0" y="0" width="30" height="30"><path d="M0 0h30v30H0V0z" fill="#fff"/></mask><g mask="url(#b)" fill="#E0E3E4"><path fill-rule="evenodd" clip-rule="evenodd" d="M23.16 18.516c0 .606.491 1.098 1.098 1.098h1.64a1.1 1.1 0 001.1-1.098v-7.383a1.099 1.099 0 00-2.198 0v6.284h-.542c-.607 0-1.099.492-1.099 1.099z"/><path fill-rule="evenodd" clip-rule="evenodd" d="M29.602 14.842a1.1 1.1 0 00.005-1.554L17.397.998a3.443 3.443 0 00-4.68-.01L.396 13.285a1.099 1.099 0 101.552 1.555L14.244 2.568a1.245 1.245 0 011.62.004l12.185 12.265c.427.43 1.123.433 1.553.005zM23.16 28.828c0 .607.491 1.099 1.098 1.099h1.64a1.1 1.1 0 001.1-1.099v-5.625a1.099 1.099 0 00-2.198 0v4.527h-.542c-.607 0-1.099.491-1.099 1.098zm-20.157 0c0 .607.492 1.099 1.099 1.099H5.8a1.099 1.099 0 000-2.197h-.6v-4.527a1.099 1.099 0 00-2.198 0v5.625z"/><path fill-rule="evenodd" clip-rule="evenodd" d="M3.003 18.516c0 .606.492 1.098 1.099 1.098H5.8a1.099 1.099 0 000-2.197h-.6V11.66a1.099 1.099 0 10-2.198 0v6.856z"/><path d="M15 27.656A1.172 1.172 0 1015 30a1.172 1.172 0 000-2.344zm4.57 0a1.172 1.172 0 100 2.344 1.172 1.172 0 000-2.344zm-9.14 0a1.172 1.172 0 110 2.344 1.172 1.172 0 010-2.344zM15 17.344a1.172 1.172 0 100 2.343 1.172 1.172 0 000-2.343zm4.57 0a1.172 1.172 0 100 2.343 1.172 1.172 0 000-2.343zm-9.14 0a1.172 1.172 0 110 2.343 1.172 1.172 0 010-2.343z"/></g></g></g><defs><clipPath id="clip0_158_2891"><path fill="#fff" d="M0 0h30v30H0z"/></clipPath></defs></svg>