<svg width="30" height="30" fill="none" xmlns="http://www.w3.org/2000/svg"><path fill-rule="evenodd" clip-rule="evenodd" d="M9.694 7.334a4.99 4.99 0 011.794.332l-.63 1.641a3.23 3.23 0 00-1.163-.215H4.998a3.24 3.24 0 00-3.24 3.24v1.928h1.84v6.427h6.776v1.758H1.84v-6.427H0v-3.686a4.998 4.998 0 014.998-4.998h4.696z" fill="#E0E3E4"/><path fill-rule="evenodd" clip-rule="evenodd" d="M6.162 8.213v1.483c0 .654.53 1.184 1.184 1.184h.001c.277 0 .545-.097.758-.275l1.129 1.347a2.934 2.934 0 01-1.889.686M8.53 9.696V8.213h1.758v1.483H8.53z" fill="#E0E3E4"/><path fill-rule="evenodd" clip-rule="evenodd" d="M17.347 7.334a4.99 4.99 0 011.795.332l-.63 1.641a3.23 3.23 0 00-1.163-.215h-4.697a3.24 3.24 0 00-3.24 3.24v3.686h1.84v8.185h7.495v-2.637h1.758v4.395H9.495v-8.185H7.654v-5.444a4.998 4.998 0 014.998-4.998h4.695z" fill="#E0E3E4"/><path fill-rule="evenodd" clip-rule="evenodd" d="M13.816 8.213v1.483c0 .654.53 1.184 1.184 1.184h.001c.277 0 .545-.097.757-.275l1.13 1.348a2.934 2.934 0 01-1.889.685m1.185-2.942V8.213h1.758v1.483h-1.758z" fill="#E0E3E4"/><path fill-rule="evenodd" clip-rule="evenodd" d="M15.308 12.332a4.998 4.998 0 014.998-4.998h4.696A4.998 4.998 0 0130 12.332v2.438l-1.84.914v6.76H17.148v-6.76l-1.841-.914v-2.438zm4.998-3.24a3.24 3.24 0 00-3.24 3.24v1.348l1.84.914v6.093h7.495v-6.093l1.841-.914v-1.348a3.24 3.24 0 00-3.24-3.24h-4.696z" fill="#E0E3E4"/><path fill-rule="evenodd" clip-rule="evenodd" d="M6.467 5.797H0V4.039h30v1.758h-6.467v2.178h-1.758V5.796h-5.896v2.178H14.12V5.796H8.225v2.178H6.467V5.796zM21.47 8.213v1.483a1.184 1.184 0 002.368 0V8.213h1.758v1.483a2.942 2.942 0 01-5.884 0V8.213h1.758z" fill="#E0E3E4"/></svg>