<svg width="32" height="31" fill="none" xmlns="http://www.w3.org/2000/svg"><path d="M30.59 25.566a1.406 1.406 0 000-1.993l-4.001-4.003c-.558-.558-1.484-.571-2.03 0a1.407 1.407 0 00.018 1.97l1.626 1.625H10.807a2.972 2.972 0 01-2.972-2.972V4.799L9.46 6.424a1.406 1.406 0 101.99-1.988L7.417.41a1.401 1.401 0 00-1.98 0L1.41 4.436a1.406 1.406 0 00-.018 1.969c.546.568 1.472.555 2.03 0l1.6-1.606V20.19a5.785 5.785 0 005.785 5.785h15.396l-1.626 1.626a1.405 1.405 0 101.989 1.988l4.024-4.024zm-.992-7.93a1.406 1.406 0 001.406-1.405V5.782A5.791 5.791 0 0025.22 0H14.77a1.406 1.406 0 000 2.813h10.45a2.976 2.976 0 012.973 2.972V16.23a1.406 1.406 0 001.406 1.407z" fill="#E0E3E4"/><path d="M19.7 18.535a1.05 1.05 0 001.05-1.05V13.14a3.301 3.301 0 00-5.557-2.413 3.294 3.294 0 00-3.633-.586 1.05 1.05 0 00-1.92.586v6.756a1.05 1.05 0 002.1 0V13.14a1.202 1.202 0 112.403 0v4.343a1.051 1.051 0 002.101 0V13.14a1.202 1.202 0 112.403 0v4.343a1.05 1.05 0 001.052 1.051zm5.992-7.348h-.812l.951-.95c.44-.435.701-1.018.732-1.635V8.49a2.54 2.54 0 00-5.044-.405.99.99 0 001.955.313.56.56 0 011.113.09v.026a.494.494 0 01-.154.32l-2.64 2.641a.99.99 0 00.699 1.69h3.2a.99.99 0 100-1.98v.001z" fill="#E0E3E4"/></svg>