<svg width="30" height="30" viewBox="0 0 30 30" fill="none" xmlns="http://www.w3.org/2000/svg">
<g clip-path="url(#clip0_158_2891)">
<mask id="mask0_158_2891" style="mask-type:luminance" maskUnits="userSpaceOnUse" x="0" y="0" width="30" height="30">
<path d="M30 0H0V30H30V0Z" fill="white"/>
<path d="M15 27.6563C14.3528 27.6563 13.8281 28.1809 13.8281 28.8281C13.8281 29.4754 14.3528 30 15 30C15.6472 30 16.1719 29.4754 16.1719 28.8281C16.1719 28.1809 15.6472 27.6563 15 27.6563Z" fill="white"/>
<path d="M19.5703 27.6563C18.9231 27.6563 18.3984 28.1809 18.3984 28.8281C18.3984 29.4754 18.9231 30 19.5703 30C20.2175 30 20.7422 29.4754 20.7422 28.8281C20.7422 28.1809 20.2175 27.6563 19.5703 27.6563Z" fill="white"/>
<path d="M10.4297 27.6563C11.0769 27.6563 11.6016 28.1809 11.6016 28.8281C11.6016 29.4754 11.0769 30 10.4297 30C9.78246 30 9.25781 29.4754 9.25781 28.8281C9.25781 28.1809 9.78246 27.6563 10.4297 27.6563Z" fill="white"/>
<path d="M15 17.3438C14.3528 17.3438 13.8281 17.8684 13.8281 18.5156C13.8281 19.1629 14.3528 19.6875 15 19.6875C15.6472 19.6875 16.1719 19.1629 16.1719 18.5156C16.1719 17.8684 15.6472 17.3438 15 17.3438Z" fill="white"/>
<path d="M19.5703 17.3438C18.9231 17.3438 18.3984 17.8684 18.3984 18.5156C18.3984 19.1629 18.9231 19.6875 19.5703 19.6875C20.2175 19.6875 20.7422 19.1629 20.7422 18.5156C20.7422 17.8684 20.2175 17.3438 19.5703 17.3438Z" fill="white"/>
<path d="M10.4297 17.3438C11.0769 17.3438 11.6016 17.8684 11.6016 18.5156C11.6016 19.1629 11.0769 19.6875 10.4297 19.6875C9.78246 19.6875 9.25781 19.1629 9.25781 18.5156C9.25781 17.8684 9.78246 17.3438 10.4297 17.3438Z" fill="white"/>
</mask>
<g mask="url(#mask0_158_2891)">
<mask id="mask1_158_2891" style="mask-type:luminance" maskUnits="userSpaceOnUse" x="0" y="0" width="30" height="30">
<path d="M0 8.7738e-05H29.9999V30H0V8.7738e-05Z" fill="white"/>
</mask>
<g mask="url(#mask1_158_2891)">
<path fill-rule="evenodd" clip-rule="evenodd" d="M23.1592 18.5156C23.1592 19.1224 23.6511 19.6143 24.2578 19.6143H25.8984C26.5052 19.6143 26.9971 19.1224 26.9971 18.5156V11.1328C26.9971 10.5261 26.5052 10.0342 25.8984 10.0342C25.2917 10.0342 24.7998 10.5261 24.7998 11.1328V17.417H24.2578C23.6511 17.417 23.1592 17.9089 23.1592 18.5156Z" fill="#E0E3E4"/>
<path fill-rule="evenodd" clip-rule="evenodd" d="M29.6023 14.8419C30.0328 14.4143 30.0351 13.7187 29.6074 13.2882L17.3972 0.997443C17.3825 0.982618 17.3673 0.968216 17.3518 0.954255C16.0476 -0.216665 14.072 -0.220788 12.7629 0.944612C12.7473 0.958492 12.7321 0.972814 12.7174 0.987559L0.39579 13.2849C-0.0336751 13.7135 -0.0343606 14.4091 0.394259 14.8386C0.822879 15.2681 1.51849 15.2687 1.94796 14.8401L14.2439 2.56835C14.7107 2.17003 15.3989 2.17147 15.8639 2.57173L28.0486 14.8368C28.4763 15.2672 29.1719 15.2695 29.6023 14.8419Z" fill="#E0E3E4"/>
<path fill-rule="evenodd" clip-rule="evenodd" d="M23.1592 28.8281C23.1592 29.4349 23.6511 29.9268 24.2578 29.9268H25.8984C26.5052 29.9268 26.9971 29.4349 26.9971 28.8281V23.2031C26.9971 22.5964 26.5052 22.1045 25.8984 22.1045C25.2917 22.1045 24.7998 22.5964 24.7998 23.2031V27.7295H24.2578C23.6511 27.7295 23.1592 28.2214 23.1592 28.8281Z" fill="#E0E3E4"/>
<path fill-rule="evenodd" clip-rule="evenodd" d="M3.00293 28.8281C3.00293 29.4349 3.4948 29.9268 4.10156 29.9268H5.80078C6.40753 29.9268 6.89941 29.4349 6.89941 28.8281C6.89941 28.2214 6.40753 27.7295 5.80078 27.7295H5.20019V23.2031C5.20019 22.5964 4.70832 22.1045 4.10156 22.1045C3.4948 22.1045 3.00293 22.5964 3.00293 23.2031V28.8281Z" fill="#E0E3E4"/>
<path fill-rule="evenodd" clip-rule="evenodd" d="M3.00293 18.5156C3.00293 19.1224 3.4948 19.6143 4.10156 19.6143H5.80078C6.40753 19.6143 6.89941 19.1224 6.89941 18.5156C6.89941 17.9089 6.40753 17.417 5.80078 17.417H5.20019V11.6602C5.20019 11.0534 4.70832 10.5615 4.10156 10.5615C3.4948 10.5615 3.00293 11.0534 3.00293 11.6602V18.5156Z" fill="#E0E3E4"/>
<path d="M15 27.6563C14.3528 27.6563 13.8281 28.1809 13.8281 28.8281C13.8281 29.4754 14.3528 30 15 30C15.6472 30 16.1719 29.4754 16.1719 28.8281C16.1719 28.1809 15.6472 27.6563 15 27.6563Z" fill="#E0E3E4"/>
<path d="M19.5703 27.6563C18.9231 27.6563 18.3984 28.1809 18.3984 28.8281C18.3984 29.4754 18.9231 30 19.5703 30C20.2175 30 20.7422 29.4754 20.7422 28.8281C20.7422 28.1809 20.2175 27.6563 19.5703 27.6563Z" fill="#E0E3E4"/>
<path d="M10.4297 27.6563C11.0769 27.6563 11.6016 28.1809 11.6016 28.8281C11.6016 29.4754 11.0769 30 10.4297 30C9.78246 30 9.25781 29.4754 9.25781 28.8281C9.25781 28.1809 9.78246 27.6563 10.4297 27.6563Z" fill="#E0E3E4"/>
<path d="M15 17.3438C14.3528 17.3438 13.8281 17.8684 13.8281 18.5156C13.8281 19.1629 14.3528 19.6875 15 19.6875C15.6472 19.6875 16.1719 19.1629 16.1719 18.5156C16.1719 17.8684 15.6472 17.3438 15 17.3438Z" fill="#E0E3E4"/>
<path d="M19.5703 17.3438C18.9231 17.3438 18.3984 17.8684 18.3984 18.5156C18.3984 19.1629 18.9231 19.6875 19.5703 19.6875C20.2175 19.6875 20.7422 19.1629 20.7422 18.5156C20.7422 17.8684 20.2175 17.3438 19.5703 17.3438Z" fill="#E0E3E4"/>
<path d="M10.4297 17.3438C11.0769 17.3438 11.6016 17.8684 11.6016 18.5156C11.6016 19.1629 11.0769 19.6875 10.4297 19.6875C9.78246 19.6875 9.25781 19.1629 9.25781 18.5156C9.25781 17.8684 9.78246 17.3438 10.4297 17.3438Z" fill="#E0E3E4"/>
</g>
</g>
</g>
<defs>
<clipPath id="clip0_158_2891">
<rect width="30" height="30" fill="white"/>
</clipPath>
</defs>
</svg>
