<svg width="30" height="30" fill="none" xmlns="http://www.w3.org/2000/svg"><path d="M26.25 23.438H3.75a.938.938 0 01-.938-.938v-2.813a.937.937 0 01.938-.937h22.5a.938.938 0 01.938.938V22.5a.938.938 0 01-.938.938zM4.687 21.563h20.625v-.938H4.688v.938z" fill="#E0E3E4"/><path d="M26.25 23.438H3.75a.938.938 0 01-.938-.938v-5.625a2.812 2.812 0 012.813-2.813h18.75a2.812 2.812 0 012.813 2.813V22.5a.938.938 0 01-.938.938zM4.687 21.563h20.625v-4.688a.938.938 0 00-.937-.938H5.625a.938.938 0 00-.938.938v4.688z" fill="#E0E3E4"/><path d="M24.375 15.938H5.625A.938.938 0 014.687 15V9.375A2.813 2.813 0 017.5 6.562h15a2.812 2.812 0 012.813 2.813V15a.938.938 0 01-.938.938zM6.562 14.062h16.875V9.375a.938.938 0 00-.937-.938h-15a.937.937 0 00-.938.938v4.688zm17.813 7.501h-.938a.937.937 0 00-.937.937v.938c0 .517.42.937.938.937h.937c.518 0 .938-.42.938-.938V22.5a.937.937 0 00-.938-.938zm-17.812 0h-.938a.937.937 0 00-.938.937v.938c0 .517.42.937.938.937h.938c.517 0 .937-.42.937-.938V22.5a.937.937 0 00-.938-.938z" fill="#E0E3E4"/><path d="M12.188 15.938h-1.876a1.875 1.875 0 01-1.874-1.876v-.937a1.875 1.875 0 011.874-1.875h1.876a1.875 1.875 0 011.874 1.875v.938a1.875 1.875 0 01-1.874 1.874zm-1.876-2.813v.938h1.876v-.938h-1.876zm9.376 2.813h-1.875a1.875 1.875 0 01-1.875-1.876v-.937a1.875 1.875 0 011.874-1.875h1.875a1.875 1.875 0 011.875 1.875v.938a1.875 1.875 0 01-1.875 1.874zm-1.875-2.813v.938h1.875v-.938h-1.875z" fill="#E0E3E4"/></svg>