<svg width="32" height="31" viewBox="0 0 32 31" fill="none" xmlns="http://www.w3.org/2000/svg">
<path d="M30.59 25.5656C30.7211 25.435 30.8251 25.2797 30.8961 25.1088C30.967 24.9379 31.0036 24.7546 31.0036 24.5695C31.0036 24.3844 30.967 24.2012 30.8961 24.0303C30.8251 23.8593 30.7211 23.7041 30.59 23.5734L26.5886 19.5703C26.0308 19.0125 25.105 18.999 24.5583 19.5703C24.303 19.8357 24.1619 20.1906 24.1654 20.5588C24.1689 20.927 24.3167 21.2792 24.5771 21.5396L26.203 23.165H10.8075C10.0192 23.165 9.26314 22.8519 8.70569 22.2944C8.14825 21.737 7.83508 20.9809 7.83508 20.1926V4.79883L9.46047 6.42422C9.59066 6.55655 9.74576 6.66179 9.91683 6.73388C10.0879 6.80596 10.2715 6.84346 10.4572 6.84422C10.6428 6.84497 10.8268 6.80897 10.9984 6.73828C11.1701 6.66759 11.326 6.56361 11.4573 6.43235C11.5885 6.30109 11.6925 6.14513 11.7632 5.97348C11.8339 5.80183 11.8699 5.61789 11.8691 5.43225C11.8684 5.24662 11.8309 5.06297 11.7588 4.89191C11.6867 4.72084 11.5815 4.56574 11.4491 4.43555L7.41848 0.410156C7.15578 0.14767 6.79961 0.000225202 6.42824 0.000225202C6.05688 0.000225202 5.70071 0.14767 5.43801 0.410156L1.41027 4.43555C1.14992 4.69598 1.0021 5.04815 0.998599 5.41638C0.995093 5.78462 1.13617 6.13954 1.39152 6.40488C1.9382 6.97266 2.86398 6.95977 3.42121 6.40488L5.02258 4.79883V20.1914C5.02258 20.9511 5.17221 21.7034 5.46293 22.4052C5.75365 23.1071 6.17977 23.7448 6.71695 24.282C7.80184 25.3669 9.27327 25.9764 10.8075 25.9764H26.203L24.5771 27.6018C24.4424 27.7314 24.335 27.8866 24.261 28.0583C24.1871 28.2299 24.1481 28.4146 24.1463 28.6015C24.1446 28.7885 24.1801 28.9738 24.2509 29.1469C24.3216 29.3199 24.4261 29.4771 24.5583 29.6092C24.6905 29.7414 24.8477 29.8458 25.0207 29.9165C25.1938 29.9872 25.3792 30.0227 25.5661 30.0209C25.753 30.0191 25.9377 29.98 26.1093 29.906C26.281 29.832 26.4361 29.7245 26.5657 29.5898L30.59 25.5656ZM29.598 17.6367C29.9709 17.6367 30.3286 17.4886 30.5923 17.2248C30.8561 16.9611 31.0042 16.6034 31.0042 16.2305V5.78262C31.0019 4.24928 30.3916 2.77944 29.3071 1.69543C28.2227 0.611416 26.7526 0.0017047 25.2193 0L14.7696 0C14.3967 0 14.039 0.148158 13.7753 0.411881C13.5116 0.675604 13.3634 1.03329 13.3634 1.40625C13.3634 1.77921 13.5116 2.1369 13.7753 2.40062C14.039 2.66434 14.3967 2.8125 14.7696 2.8125H25.2193C26.0073 2.81343 26.7628 3.1269 27.3201 3.68414C27.8773 4.24138 28.1908 4.9969 28.1917 5.78496V16.2305C28.1917 16.6034 28.3399 16.9611 28.6036 17.2248C28.8673 17.4886 29.225 17.6367 29.598 17.6367Z" fill="#E0E3E4"/>
<path d="M19.6991 18.535C19.9778 18.535 20.245 18.4243 20.442 18.2273C20.639 18.0302 20.7497 17.763 20.7497 17.4844V13.1408C20.7501 12.4971 20.5623 11.8673 20.2094 11.3289C19.8565 10.7905 19.3539 10.3671 18.7634 10.1106C18.173 9.85423 17.5204 9.77606 16.8861 9.88573C16.2518 9.99541 15.6634 10.2882 15.1933 10.7279C14.7148 10.2798 14.1135 9.9847 13.4663 9.88031C12.8191 9.77593 12.1555 9.86705 11.5604 10.142C11.4347 9.9557 11.2524 9.81466 11.0406 9.7396C10.8287 9.66454 10.5983 9.65942 10.3833 9.72499C10.1683 9.79056 9.97996 9.92337 9.84602 10.1039C9.71208 10.2844 9.63958 10.5032 9.63916 10.7279V17.4844C9.63916 17.763 9.74985 18.0302 9.94687 18.2273C10.1439 18.4243 10.4111 18.535 10.6897 18.535C10.9684 18.535 11.2356 18.4243 11.4326 18.2273C11.6296 18.0302 11.7403 17.763 11.7403 17.4844V13.1408C11.7332 12.9786 11.7589 12.8167 11.8161 12.6647C11.8732 12.5127 11.9605 12.3739 12.0728 12.2565C12.185 12.1392 12.3198 12.0459 12.4692 11.9821C12.6185 11.9183 12.7791 11.8854 12.9415 11.8854C13.1039 11.8854 13.2645 11.9183 13.4139 11.9821C13.5632 12.0459 13.698 12.1392 13.8102 12.2565C13.9225 12.3739 14.0098 12.5127 14.0669 12.6647C14.1241 12.8167 14.1498 12.9786 14.1427 13.1408V17.4844C14.1492 17.7588 14.2627 18.0198 14.4591 18.2116C14.6555 18.4034 14.9191 18.5107 15.1936 18.5107C15.468 18.5107 15.7316 18.4034 15.928 18.2116C16.1244 18.0198 16.238 17.7588 16.2444 17.4844V13.1408C16.2373 12.9786 16.263 12.8167 16.3202 12.6647C16.3773 12.5127 16.4646 12.3739 16.5769 12.2565C16.6891 12.1392 16.8239 12.0459 16.9733 11.9821C17.1226 11.9183 17.2832 11.8854 17.4456 11.8854C17.608 11.8854 17.7686 11.9183 17.918 11.9821C18.0673 12.0459 18.2021 12.1392 18.3144 12.2565C18.4266 12.3739 18.5139 12.5127 18.5711 12.6647C18.6282 12.8167 18.6539 12.9786 18.6468 13.1408V17.4844C18.6468 17.6225 18.674 17.7593 18.7269 17.8868C18.7798 18.0144 18.8574 18.1303 18.9551 18.2279C19.0529 18.3255 19.1689 18.4028 19.2965 18.4555C19.4242 18.5082 19.561 18.5352 19.6991 18.535ZM25.6915 11.1873H24.88L25.831 10.2363C26.2713 9.80248 26.5325 9.21899 26.5628 8.60157V8.49083C26.5588 7.85526 26.3166 7.24429 25.8841 6.77858C25.4516 6.31287 24.8601 6.02629 24.2266 5.97543C23.593 5.92458 22.9635 6.11314 22.4622 6.50389C21.9609 6.89463 21.6244 7.45915 21.519 8.08595C21.4778 8.34503 21.541 8.60988 21.6948 8.82242C21.8486 9.03497 22.0804 9.17785 22.3394 9.21974C22.3914 9.22839 22.4442 9.2327 22.497 9.23263C22.7325 9.23348 22.9606 9.14989 23.1398 8.99703C23.319 8.84417 23.4374 8.63215 23.4737 8.39942C23.4915 8.25644 23.5639 8.12586 23.6756 8.03493C23.7874 7.944 23.93 7.89973 24.0736 7.91137C24.2172 7.92301 24.3508 7.98966 24.4464 8.0974C24.5421 8.20515 24.5925 8.34568 24.587 8.48966V8.51544C24.5771 8.63722 24.5224 8.75101 24.4335 8.83477L21.7921 11.4762C21.6536 11.6146 21.5593 11.791 21.5211 11.9831C21.4829 12.1751 21.5025 12.3741 21.5773 12.5551C21.6522 12.736 21.779 12.8906 21.9418 12.9995C22.1045 13.1083 22.2959 13.1665 22.4917 13.1666H25.6915C25.9541 13.1666 26.206 13.0623 26.3917 12.8766C26.5774 12.6909 26.6817 12.439 26.6817 12.1764C26.6817 11.9137 26.5774 11.6619 26.3917 11.4762C26.206 11.2905 25.9541 11.1861 25.6915 11.1861V11.1873Z" fill="#E0E3E4"/>
</svg>
