<svg width="30" height="30" fill="none" xmlns="http://www.w3.org/2000/svg"><path d="M27.946 14.369a12.892 12.892 0 00-3.968-8.79 12.887 12.887 0 00-8.1-3.584V0h-1.757v1.995A12.887 12.887 0 006.022 5.58a12.892 12.892 0 00-3.968 8.789l-.063 1.5 1.339-.68a5.715 5.715 0 012.609-.62c1.463 0 2.86.548 3.932 1.545l.598.556.599-.556a5.754 5.754 0 013.053-1.478V30h1.758V14.636a5.754 5.754 0 013.053 1.477l.599.557.598-.557a5.758 5.758 0 013.932-1.545c.919 0 1.796.21 2.61.622l1.338.678-.063-1.5zM9.637 13.78a7.51 7.51 0 00-3.698-.97c-.681 0-1.346.088-1.987.263A11.14 11.14 0 017.24 6.847a11.142 11.142 0 015.461-2.887c-1.27 1.718-2.782 4.784-3.064 9.82zM15 12.81a7.512 7.512 0 00-3.597.913c.151-2.389.66-5.252 2.023-7.653.587-1.034 1.178-1.701 1.574-2.083.396.382.987 1.05 1.574 2.083 1.364 2.401 1.871 5.264 2.023 7.653A7.511 7.511 0 0015 12.81zm9.061 0a7.51 7.51 0 00-3.698.97c-.282-5.037-1.794-8.103-3.064-9.821a11.141 11.141 0 015.46 2.887 11.141 11.141 0 013.29 6.227 7.517 7.517 0 00-1.988-.264z" fill="#E0E3E4"/></svg>