<svg width="30" height="30" fill="none" xmlns="http://www.w3.org/2000/svg"><path d="M15 1.406C7.5 1.406 1.406 7.5 1.406 15 1.406 22.5 7.5 28.594 15 28.594c7.5 0 13.594-6.094 13.594-13.594C28.594 7.5 22.5 1.406 15 1.406zm0 25.782C8.273 27.188 2.812 21.727 2.812 15S8.274 2.812 15 2.812 27.188 8.274 27.188 15 21.727 27.188 15 27.188z" fill="#E0E3E4"/><path d="M15.469 9.61h-2.813a.69.69 0 00-.703.703v10.546a.69.69 0 00.703.703.69.69 0 00.703-.703v-3.28h2.11a3.98 3.98 0 003.984-3.985 3.981 3.981 0 00-3.984-3.985zm0 6.562h-2.11v-5.156h2.11a2.57 2.57 0 012.578 2.578 2.57 2.57 0 01-2.578 2.578z" fill="#E0E3E4"/></svg>