<svg width="28" height="30" fill="none" xmlns="http://www.w3.org/2000/svg"><path d="M27.28 15.47a2.765 2.765 0 00-2.762-2.761H14.245V3.232A3.236 3.236 0 0011.013 0h-7.06A3.236 3.236 0 00.72 3.232v12.239c0 .57.173 1.099.47 1.54a12.696 12.696 0 002.6 4.837 12.77 12.77 0 003.99 3.088v4.185a.88.88 0 00.88.879h9.413a.879.879 0 00.88-.879v-4.185a12.686 12.686 0 006.208-6.78 2.766 2.766 0 002.119-2.685zm-23.8-2.76c-.343 0-.684.064-1.004.19V5.523h10.01v7.186H3.481zm.471-10.951h7.06c.814 0 1.475.661 1.475 1.474v.534H2.477v-.534c0-.813.662-1.474 1.475-1.474zm13.77 21.812a.878.878 0 00-.528.805v3.867H9.538v-3.867a.88.88 0 00-.527-.805 11.002 11.002 0 01-5.492-5.338h19.697a10.927 10.927 0 01-5.495 5.338zm6.796-7.095H3.481a1.005 1.005 0 010-2.008h21.037a1.005 1.005 0 010 2.008z" fill="#E0E3E4"/></svg>