<svg width="30" height="30" fill="none" xmlns="http://www.w3.org/2000/svg"><path d="M28.125 14.06a.939.939 0 00-.55-.85L22.5 10.901v-4.34a.938.938 0 00-.473-.813l-6.562-3.75a.937.937 0 00-.93 0l-6.563 3.75a.938.938 0 00-.472.813v4.34l-5.076 2.306a.937.937 0 00-.549.852v7.502a.94.94 0 00.545.852l12.187 5.625a.936.936 0 00.786 0l12.187-5.625a.938.938 0 00.545-.852V14.06zm-7.5-5.882v1.872l-1.824-.83 1.824-1.042zm-4.688.52v-4.27l3.736 2.134-3.735 2.135zm-1.874-4.27v4.27l-3.736-2.136 3.736-2.134zm-4.688 3.75l1.824 1.042-1.824.83V8.178zm-5.625 7.35l3.75 1.73v1.685l-3.75-1.73v-1.685zm.938 5.868l-.938-.434v-1.684l.938.433v1.685zm5.625.916v1.679l-3.75-1.73v-1.685l3.75 1.73v.006zm3.75 3.41l-1.876-.865v-1.685l1.876.865v1.685zm0-3.75l-4.71-2.174c.004-.037.022-.071.022-.11v-1.564l4.688 2.163v1.685zM15 18.654L5.063 14.07 7.5 12.962v1.1a.938.938 0 001.875 0V12.11l3.832-1.742.855.488v6.019a.938.938 0 001.876 0v-6.019l.855-.488 3.832 1.742v1.952a.938.938 0 001.875 0v-1.1l2.437 1.106L15 18.654zm5.648 1.144l-4.71 2.174v-1.685l4.687-2.163v1.563c0 .04.018.074.023.111zm-2.835 5.059l-1.875.865v-1.685l1.874-.865v1.685zm5.625-2.597l-3.75 1.731v-1.679l-.001-.005 3.75-1.73v1.683zm2.812-1.298l-.938.434V19.71l.938-.433v1.684zm0-3.75l-3.75 1.731V17.26l3.75-1.73v1.683z" fill="#E0E3E4"/></svg>