<svg width="30" height="30" fill="none" xmlns="http://www.w3.org/2000/svg"><g clip-path="url(#clip0_163_3914)"><path d="M29.311 20H26.35v-1.24h1.556a.689.689 0 100-1.377H26.35v-2.59h1.556a.689.689 0 000-1.377H26.35V10.84h1.556a.689.689 0 000-1.377H26.35V6.846h1.556a.689.689 0 100-1.378H26.35V2.92h1.556a.689.689 0 100-1.377H26.35v-.84a.689.689 0 10-1.378 0v.853h-2.438V.702a.689.689 0 10-1.377 0v.854h-2.452V.702a.689.689 0 10-1.377 0v.854h-2.383V.702a.689.689 0 10-1.378 0v.854h-2.644V.702a.689.689 0 00-.69-.688H.69A.689.689 0 000 .702v28.595c0 .38.308.69.689.69H29.31c.38 0 .69-.31.69-.69V20.62a.69.69 0 00-.69-.62zM22.534 2.92h2.397v2.548h-2.397V2.92zm0 3.926h2.438l-.04 2.617h-2.398V6.846zm0 3.994h2.438l-.04 2.576h-2.398V10.84zm0 3.953h2.438l-.04 2.576h-2.398v-2.576zm0 3.967h2.438V20h-2.438v-1.24zM18.705 2.92h2.41v2.548h-2.41V2.92zm0 3.926h2.41v2.617h-2.41V6.846zm0 3.994h2.41v2.576h-2.41V10.84zm0 3.953h2.41v2.576h-2.41v-2.576zm0 3.954h2.41v1.24h-2.41v-1.24zM14.945 2.92h2.383v2.548h-2.383V2.92zm0 3.926h2.383v2.617h-2.383V6.846zm0 3.994h2.383v2.576h-2.383V10.84zm-.041 6.143v-2.19h2.424v2.576l-2.231.014-.193-.193a.674.674 0 000-.207zm2.424 1.764v1.24h-1.185v-1.24h1.185zm-3.72-7.907v2.576h-2.465l-.179-.165v-2.41h2.645zm-.082 3.953v1.047l-1.047-1.047h1.047zM10.923 2.92h2.603v2.548h-2.603V2.92zm0 3.926h2.645l-.042 2.617h-2.603V6.846zm17.7 21.763H1.377V1.336h8.168V13.43a.689.689 0 00.207.482l.62.62h.069l4.435 4.435v1.653c0 .38.308.688.689.688h13.058v7.3z" fill="#E0E3E4"/></g><defs><clipPath id="clip0_163_3914"><path fill="#fff" d="M0 0h30v30H0z"/></clipPath></defs></svg>