<svg width="30" height="30" fill="none" xmlns="http://www.w3.org/2000/svg"><g clip-path="url(#clip0_158_3747)" fill="#E0E3E4"><path d="M23.46 17.496h1c.299 0 .498-.2.498-.5 0-.299-.2-.498-.499-.498h-.998c-.3 0-.5.2-.5.499 0 .3.2.499.5.499zm0 4.992h1c.299 0 .498-.2.498-.5s-.2-.499-.499-.499h-.998c-.3 0-.5.2-.5.5 0 .299.2.499.5.499zm0 4.991h1c.299 0 .498-.2.498-.499 0-.3-.2-.5-.499-.5h-.998c-.3 0-.5.2-.5.5s.2.5.5.5z"/><path d="M29.451 11.955h-2.496V7.013c0-.3-.2-.499-.5-.499h-1.497V5.017c0-.3-.2-.5-.499-.5h-1.996c-.3 0-.5.2-.5.5v.499h-1.497c-.3 0-.5.2-.5.499v5.94h-6.538v-.3c0-.648-.5-1.148-1.149-1.148h-.299v-.499h4.992a1 1 0 00.998-.998V1.023c0-.549-.45-.998-.998-.998H3.993c-.549 0-.998.45-.998.998V9.01c0 .549.45.998.998.998h4.992v.5h-.35a1.13 1.13 0 00-1.147 1.148v.299H.549c-.3 0-.549.25-.549.55v1.946c0 .3.25.549.55.549h.448v14.476c0 .3.2.5.5.5h1.996c.3 0 .5-.2.5-.5V15h14.974v14.476c0 .3.2.499.5.499h8.985c.299 0 .499-.2.499-.5V15h.449c.3 0 .549-.25.599-.55v-1.946c0-.3-.25-.549-.549-.549zm-3.494-4.443v4.443h-.999V7.512h.999zm-2.995-1.996h.998v6.439h-.998v-6.44zm-1.997.998h.998v5.441h-.998v-5.44zm-3.993-5.49v5.99H3.993v-5.99h12.979zM3.993 8.011h12.979v.998H3.993v-.998zm5.99 1.996h.999v.5h-.999v-.5zm-1.447 1.648c0-.1.05-.15.15-.15h3.643c.1 0 .15.05.15.15v.299H8.536v-.3zm-5.541 17.32h-.998V15h.998v13.977zm24.958-4.991h-7.986v-3.993h7.986v3.993zm0 4.992h-7.986v-3.994h7.986v3.994zm0-9.984h-7.986V15h7.986v3.993zm.999-4.991H.998v-.999h27.954v.999z"/><path d="M4.992 3.52c.15 0 .25-.05.349-.15l.998-.999c.2-.2.2-.5 0-.699-.2-.2-.499-.2-.699 0l-.998.999c-.2.2-.2.499 0 .698.1.1.2.15.35.15zm.15 1.846c.1.1.199.15.349.15.15 0 .25-.05.35-.15L8.335 2.87c.2-.2.2-.499 0-.699-.2-.2-.5-.2-.699 0L5.141 4.667c-.2.2-.2.5 0 .7z"/></g><defs><clipPath id="clip0_158_3747"><path fill="#fff" d="M0 0h30v30H0z"/></clipPath></defs></svg>