<svg width="24" height="24" fill="none" xmlns="http://www.w3.org/2000/svg"><path d="M21.534 7.113A9.822 9.822 0 0024 4.559c-.893.391-1.843.65-2.835.776a4.894 4.894 0 002.165-2.719 9.845 9.845 0 01-3.12 1.191 4.92 4.92 0 00-8.511 3.364c0 .39.033.765.114 1.122-4.09-.2-7.71-2.16-10.142-5.147a4.962 4.962 0 00-.674 2.487c0 1.704.877 3.214 2.186 4.089A4.863 4.863 0 01.96 9.116v.054a4.943 4.943 0 003.942 4.835c-.401.11-.837.162-1.29.162-.315 0-.633-.018-.931-.084.637 1.948 2.447 3.381 4.597 3.428a9.89 9.89 0 01-6.101 2.098c-.403 0-.79-.018-1.177-.067a13.857 13.857 0 007.548 2.208c8.683 0 14.342-7.244 13.986-14.637z" fill="#3391AC"/></svg>