<svg width="25" height="25" viewBox="0 0 25 25" fill="none" xmlns="http://www.w3.org/2000/svg">
<g clip-path="url(#clip0_150_761)">
<path d="M12.5 2.5C13.8295 2.50252 15.1452 2.76901 16.3708 3.28399C17.5965 3.79898 18.7077 4.55221 19.64 5.5H15.5V7.5H20.643C21.1353 7.49947 21.6074 7.30365 21.9555 6.95551C22.3037 6.60737 22.4995 6.13534 22.5 5.643V0.5H20.5V3.56C18.7736 2.0159 16.6373 1.0044 14.3488 0.647551C12.0603 0.290704 9.71748 0.603762 7.60297 1.54895C5.48846 2.49413 3.69266 4.03106 2.43229 5.97425C1.17192 7.91744 0.500824 10.1839 0.5 12.5H2.5C2.50291 9.84873 3.55742 7.30688 5.43215 5.43215C7.30688 3.55742 9.84873 2.50291 12.5 2.5Z" fill="white"/>
<path d="M22.5 12.5C22.4997 14.486 21.9081 16.427 20.8005 18.0755C19.6929 19.724 18.1195 21.0054 16.2809 21.7562C14.4422 22.5071 12.4217 22.6936 10.4767 22.2917C8.53177 21.8899 6.75051 20.918 5.36 19.5H9.5V17.5H4.357C3.86466 17.5005 3.39263 17.6963 3.04449 18.0445C2.69635 18.3926 2.50053 18.8647 2.5 19.357V24.5H4.5V21.44C6.22635 22.9841 8.36267 23.9956 10.6512 24.3524C12.9397 24.7093 15.2825 24.3962 17.397 23.4511C19.5115 22.5059 21.3073 20.9689 22.5677 19.0258C23.8281 17.0826 24.4992 14.8161 24.5 12.5H22.5Z" fill="white"/>
</g>
<defs>
<clipPath id="clip0_150_761">
<rect width="24" height="24" fill="white" transform="translate(0.5 0.5)"/>
</clipPath>
</defs>
</svg>
